%TF.GenerationSoftware,KiCad,Pcbnew,9.0.7*%
%TF.CreationDate,2026-01-12T23:46:57+09:00*%
%TF.ProjectId,toytalk_demo_v2,746f7974-616c-46b5-9f64-656d6f5f7632,rev?*%
%TF.SameCoordinates,Original*%
%TF.FileFunction,Paste,Top*%
%TF.FilePolarity,Positive*%
%FSLAX46Y46*%
G04 Gerber Fmt 4.6, Leading zero omitted, Abs format (unit mm)*
G04 Created by KiCad (PCBNEW 9.0.7) date 2026-01-12 23:46:57*
%MOMM*%
%LPD*%
G01*
G04 APERTURE LIST*
G04 Aperture macros list*
%AMRoundRect*
0 Rectangle with rounded corners*
0 $1 Rounding radius*
0 $2 $3 $4 $5 $6 $7 $8 $9 X,Y pos of 4 corners*
0 Add a 4 corners polygon primitive as box body*
4,1,4,$2,$3,$4,$5,$6,$7,$8,$9,$2,$3,0*
0 Add four circle primitives for the rounded corners*
1,1,$1+$1,$2,$3*
1,1,$1+$1,$4,$5*
1,1,$1+$1,$6,$7*
1,1,$1+$1,$8,$9*
0 Add four rect primitives between the rounded corners*
20,1,$1+$1,$2,$3,$4,$5,0*
20,1,$1+$1,$4,$5,$6,$7,0*
20,1,$1+$1,$6,$7,$8,$9,0*
20,1,$1+$1,$8,$9,$2,$3,0*%
G04 Aperture macros list end*
%ADD10C,0.010000*%
%ADD11C,0.001000*%
%ADD12RoundRect,0.200000X-0.200000X-0.275000X0.200000X-0.275000X0.200000X0.275000X-0.200000X0.275000X0*%
%ADD13R,1.050000X0.650000*%
%ADD14RoundRect,0.225000X0.225000X0.250000X-0.225000X0.250000X-0.225000X-0.250000X0.225000X-0.250000X0*%
%ADD15RoundRect,0.225000X-0.225000X-0.250000X0.225000X-0.250000X0.225000X0.250000X-0.225000X0.250000X0*%
%ADD16R,2.350000X3.500000*%
%ADD17R,0.700000X0.900000*%
%ADD18R,0.510000X0.600000*%
%ADD19R,0.450000X0.250000*%
%ADD20R,0.600000X0.522000*%
%ADD21R,1.500000X0.900000*%
%ADD22R,0.900000X1.500000*%
%ADD23R,0.900000X0.900000*%
%ADD24R,0.570000X1.200000*%
%ADD25C,0.250000*%
%ADD26RoundRect,0.032500X-0.397500X-0.097500X0.397500X-0.097500X0.397500X0.097500X-0.397500X0.097500X0*%
%ADD27RoundRect,0.032500X-0.097500X-0.397500X0.097500X-0.397500X0.097500X0.397500X-0.097500X0.397500X0*%
%ADD28RoundRect,0.045000X-0.630000X-0.255000X0.630000X-0.255000X0.630000X0.255000X-0.630000X0.255000X0*%
%ADD29R,1.140000X0.600000*%
%ADD30R,1.140000X0.300000*%
G04 APERTURE END LIST*
D10*
%TO.C,U5*%
X52475000Y-39975000D02*
X52000000Y-39975000D01*
X52000000Y-39625000D01*
X52475000Y-39625000D01*
X52475000Y-39975000D01*
G36*
X52475000Y-39975000D02*
G01*
X52000000Y-39975000D01*
X52000000Y-39625000D01*
X52475000Y-39625000D01*
X52475000Y-39975000D01*
G37*
X51800000Y-39975000D02*
X51325000Y-39975000D01*
X51325000Y-39625000D01*
X51800000Y-39625000D01*
X51800000Y-39975000D01*
G36*
X51800000Y-39975000D02*
G01*
X51325000Y-39975000D01*
X51325000Y-39625000D01*
X51800000Y-39625000D01*
X51800000Y-39975000D01*
G37*
X52775000Y-39350000D02*
X52150000Y-39350000D01*
X52150000Y-39150000D01*
X52775000Y-39150000D01*
X52775000Y-39350000D01*
G36*
X52775000Y-39350000D02*
G01*
X52150000Y-39350000D01*
X52150000Y-39150000D01*
X52775000Y-39150000D01*
X52775000Y-39350000D01*
G37*
X51950000Y-39350000D02*
X51325000Y-39350000D01*
X51325000Y-39150000D01*
X51950000Y-39150000D01*
X51950000Y-39350000D01*
G36*
X51950000Y-39350000D02*
G01*
X51325000Y-39350000D01*
X51325000Y-39150000D01*
X51950000Y-39150000D01*
X51950000Y-39350000D01*
G37*
X52475000Y-38875000D02*
X52000000Y-38875000D01*
X52000000Y-38525000D01*
X52475000Y-38525000D01*
X52475000Y-38875000D01*
G36*
X52475000Y-38875000D02*
G01*
X52000000Y-38875000D01*
X52000000Y-38525000D01*
X52475000Y-38525000D01*
X52475000Y-38875000D01*
G37*
X51800000Y-38875000D02*
X51325000Y-38875000D01*
X51325000Y-38525000D01*
X51800000Y-38525000D01*
X51800000Y-38875000D01*
G36*
X51800000Y-38875000D02*
G01*
X51325000Y-38875000D01*
X51325000Y-38525000D01*
X51800000Y-38525000D01*
X51800000Y-38875000D01*
G37*
D11*
%TO.C,MK1*%
X45480000Y-33604000D02*
X45594766Y-33719309D01*
X45525000Y-33764000D01*
X45410000Y-33824000D01*
X45260191Y-33870203D01*
X45100000Y-33884000D01*
X44960000Y-33874000D01*
X44880000Y-33854000D01*
X44790000Y-33824000D01*
X44695000Y-33779000D01*
X44600000Y-33714000D01*
X44715000Y-33599000D01*
X44812334Y-33500172D01*
X44875391Y-33535537D01*
X44980000Y-33574000D01*
X45100000Y-33587603D01*
X45220000Y-33574000D01*
X45330000Y-33534000D01*
X45380000Y-33499000D01*
X45480000Y-33604000D01*
G36*
X45480000Y-33604000D02*
G01*
X45594766Y-33719309D01*
X45525000Y-33764000D01*
X45410000Y-33824000D01*
X45260191Y-33870203D01*
X45100000Y-33884000D01*
X44960000Y-33874000D01*
X44880000Y-33854000D01*
X44790000Y-33824000D01*
X44695000Y-33779000D01*
X44600000Y-33714000D01*
X44715000Y-33599000D01*
X44812334Y-33500172D01*
X44875391Y-33535537D01*
X44980000Y-33574000D01*
X45100000Y-33587603D01*
X45220000Y-33574000D01*
X45330000Y-33534000D01*
X45380000Y-33499000D01*
X45480000Y-33604000D01*
G37*
X45240000Y-32274000D02*
X45330000Y-32294000D01*
X45410000Y-32324000D01*
X45510000Y-32374000D01*
X45600000Y-32434000D01*
X45485000Y-32549000D01*
X45382666Y-32647828D01*
X45324609Y-32612463D01*
X45220000Y-32574000D01*
X45100000Y-32560397D01*
X45040000Y-32564000D01*
X44980000Y-32574000D01*
X44925000Y-32589000D01*
X44870000Y-32614000D01*
X44820000Y-32639000D01*
X44725000Y-32544000D01*
X44610234Y-32428691D01*
X44685000Y-32374000D01*
X44790000Y-32324000D01*
X44939809Y-32277797D01*
X45100000Y-32264000D01*
X45240000Y-32274000D01*
G36*
X45240000Y-32274000D02*
G01*
X45330000Y-32294000D01*
X45410000Y-32324000D01*
X45510000Y-32374000D01*
X45600000Y-32434000D01*
X45485000Y-32549000D01*
X45382666Y-32647828D01*
X45324609Y-32612463D01*
X45220000Y-32574000D01*
X45100000Y-32560397D01*
X45040000Y-32564000D01*
X44980000Y-32574000D01*
X44925000Y-32589000D01*
X44870000Y-32614000D01*
X44820000Y-32639000D01*
X44725000Y-32544000D01*
X44610234Y-32428691D01*
X44685000Y-32374000D01*
X44790000Y-32324000D01*
X44939809Y-32277797D01*
X45100000Y-32264000D01*
X45240000Y-32274000D01*
G37*
X45805000Y-32669000D02*
X45850000Y-32764000D01*
X45880000Y-32839000D01*
X45896203Y-32913809D01*
X45910000Y-33009000D01*
X45910000Y-33134000D01*
X45900000Y-33214000D01*
X45880000Y-33304000D01*
X45850000Y-33384000D01*
X45805000Y-33479000D01*
X45740000Y-33574000D01*
X45620000Y-33454000D01*
X45521172Y-33356666D01*
X45561537Y-33298609D01*
X45600000Y-33194000D01*
X45613603Y-33074000D01*
X45600000Y-32954000D01*
X45560000Y-32844000D01*
X45525000Y-32794000D01*
X45630000Y-32689000D01*
X45740309Y-32574234D01*
X45805000Y-32669000D01*
G36*
X45805000Y-32669000D02*
G01*
X45850000Y-32764000D01*
X45880000Y-32839000D01*
X45896203Y-32913809D01*
X45910000Y-33009000D01*
X45910000Y-33134000D01*
X45900000Y-33214000D01*
X45880000Y-33304000D01*
X45850000Y-33384000D01*
X45805000Y-33479000D01*
X45740000Y-33574000D01*
X45620000Y-33454000D01*
X45521172Y-33356666D01*
X45561537Y-33298609D01*
X45600000Y-33194000D01*
X45613603Y-33074000D01*
X45600000Y-32954000D01*
X45560000Y-32844000D01*
X45525000Y-32794000D01*
X45630000Y-32689000D01*
X45740309Y-32574234D01*
X45805000Y-32669000D01*
G37*
X44575000Y-32684000D02*
X44673828Y-32781334D01*
X44638463Y-32849391D01*
X44595000Y-32949000D01*
X44580000Y-33069000D01*
X44576397Y-33069000D01*
X44580000Y-33079000D01*
X44595000Y-33184000D01*
X44590000Y-33194000D01*
X44595000Y-33194000D01*
X44635000Y-33304000D01*
X44670000Y-33359000D01*
X44570000Y-33459000D01*
X44459691Y-33573766D01*
X44395000Y-33474000D01*
X44350000Y-33384000D01*
X44303797Y-33234191D01*
X44290000Y-33074000D01*
X44300000Y-32934000D01*
X44320000Y-32854000D01*
X44350000Y-32764000D01*
X44400000Y-32664000D01*
X44465000Y-32569000D01*
X44575000Y-32684000D01*
G36*
X44575000Y-32684000D02*
G01*
X44673828Y-32781334D01*
X44638463Y-32849391D01*
X44595000Y-32949000D01*
X44580000Y-33069000D01*
X44576397Y-33069000D01*
X44580000Y-33079000D01*
X44595000Y-33184000D01*
X44590000Y-33194000D01*
X44595000Y-33194000D01*
X44635000Y-33304000D01*
X44670000Y-33359000D01*
X44570000Y-33459000D01*
X44459691Y-33573766D01*
X44395000Y-33474000D01*
X44350000Y-33384000D01*
X44303797Y-33234191D01*
X44290000Y-33074000D01*
X44300000Y-32934000D01*
X44320000Y-32854000D01*
X44350000Y-32764000D01*
X44400000Y-32664000D01*
X44465000Y-32569000D01*
X44575000Y-32684000D01*
G37*
D10*
%TO.C,U3*%
X53465000Y-26965000D02*
X52405000Y-26965000D01*
X52405000Y-25905000D01*
X53465000Y-25905000D01*
X53465000Y-26965000D01*
G36*
X53465000Y-26965000D02*
G01*
X52405000Y-26965000D01*
X52405000Y-25905000D01*
X53465000Y-25905000D01*
X53465000Y-26965000D01*
G37*
%TD*%
D12*
%TO.C,R5*%
X53500000Y-36000000D03*
X51850000Y-36000000D03*
%TD*%
%TO.C,R6*%
X40325000Y-45000000D03*
X38675000Y-45000000D03*
%TD*%
D13*
%TO.C,S2*%
X41500000Y-40650000D03*
X41500000Y-38500000D03*
X37350000Y-40650000D03*
X37350000Y-38500000D03*
%TD*%
D14*
%TO.C,C3*%
X44225000Y-22000000D03*
X45775000Y-22000000D03*
%TD*%
D15*
%TO.C,C2*%
X59500000Y-22000000D03*
X57950000Y-22000000D03*
%TD*%
%TO.C,C4*%
X39500000Y-26500000D03*
X37950000Y-26500000D03*
%TD*%
%TO.C,C5*%
X31500000Y-41500000D03*
X29950000Y-41500000D03*
%TD*%
%TO.C,C1*%
X59500000Y-31000000D03*
X57950000Y-31000000D03*
%TD*%
%TO.C,C7*%
X53500000Y-51000000D03*
X51950000Y-51000000D03*
%TD*%
D16*
%TO.C,L1*%
X64700000Y-55500000D03*
X59000000Y-55500000D03*
%TD*%
D17*
%TO.C,S1*%
X65500000Y-23000000D03*
X65500000Y-17000000D03*
D18*
X64145000Y-21000000D03*
X64145000Y-20000000D03*
X64145000Y-19000000D03*
%TD*%
D12*
%TO.C,R3*%
X46000000Y-45000000D03*
X44350000Y-45000000D03*
%TD*%
%TO.C,R4*%
X53500000Y-42500000D03*
X51850000Y-42500000D03*
%TD*%
%TO.C,R7*%
X53650000Y-22000000D03*
X52000000Y-22000000D03*
%TD*%
%TO.C,R8*%
X53650000Y-31000000D03*
X52000000Y-31000000D03*
%TD*%
%TO.C,R9*%
X16325000Y-41500000D03*
X14675000Y-41500000D03*
%TD*%
%TO.C,R1*%
X65000000Y-31000000D03*
X63350000Y-31000000D03*
%TD*%
%TO.C,R2*%
X65000000Y-47000000D03*
X63350000Y-47000000D03*
%TD*%
D19*
%TO.C,U5*%
X53500000Y-38500000D03*
X53500000Y-39000000D03*
X53500000Y-39500000D03*
X53500000Y-40000000D03*
%TD*%
D15*
%TO.C,C11*%
X21275000Y-41500000D03*
X19725000Y-41500000D03*
%TD*%
%TO.C,C6*%
X53500000Y-47500000D03*
X51950000Y-47500000D03*
%TD*%
%TO.C,C8*%
X46000000Y-55500000D03*
X44450000Y-55500000D03*
%TD*%
%TO.C,C9*%
X59500000Y-26275000D03*
X57950000Y-26275000D03*
%TD*%
%TO.C,C10*%
X26550000Y-41500000D03*
X25000000Y-41500000D03*
%TD*%
D20*
%TO.C,MK1*%
X44200000Y-31000000D03*
X44200000Y-31822000D03*
X46000000Y-31822000D03*
X46000000Y-31000000D03*
X45100000Y-31000000D03*
%TD*%
D21*
%TO.C,U1*%
X13500000Y-20000000D03*
X13500000Y-21270000D03*
X13500000Y-22540000D03*
X13500000Y-23810000D03*
X13500000Y-25080000D03*
X13500000Y-26350000D03*
X13500000Y-27620000D03*
X13500000Y-28890000D03*
X13500000Y-30160000D03*
X13500000Y-31430000D03*
X13500000Y-32700000D03*
X13500000Y-33970000D03*
X13500000Y-35240000D03*
X13500000Y-36510000D03*
D22*
X15265000Y-37760000D03*
X16535000Y-37760000D03*
X17805000Y-37760000D03*
X19075000Y-37760000D03*
X20345000Y-37760000D03*
X21615000Y-37760000D03*
X22885000Y-37760000D03*
X24155000Y-37760000D03*
X25425000Y-37760000D03*
X26695000Y-37760000D03*
X27965000Y-37760000D03*
X29235000Y-37760000D03*
D21*
X31000000Y-36510000D03*
X31000000Y-35240000D03*
X31000000Y-33970000D03*
X31000000Y-32700000D03*
X31000000Y-31430000D03*
X31000000Y-30160000D03*
X31000000Y-28890000D03*
X31000000Y-27620000D03*
X31000000Y-26350000D03*
X31000000Y-25080000D03*
X31000000Y-23810000D03*
X31000000Y-22540000D03*
X31000000Y-21270000D03*
X31000000Y-20000000D03*
D23*
X20750000Y-27720000D03*
X19350000Y-27720000D03*
X22150000Y-27720000D03*
X19350000Y-29120000D03*
X20750000Y-29120000D03*
X22150000Y-29120000D03*
X19350000Y-26320000D03*
X20750000Y-26320000D03*
X22150000Y-26320000D03*
%TD*%
D24*
%TO.C,D1*%
X46030000Y-39500000D03*
X44500000Y-39500000D03*
%TD*%
D25*
%TO.C,U2*%
X52200000Y-55000000D03*
X52600000Y-55000000D03*
X53000000Y-55000000D03*
X52200000Y-55400000D03*
X52600000Y-55400000D03*
X53000000Y-55400000D03*
X52200000Y-55800000D03*
X52600000Y-55800000D03*
X53000000Y-55800000D03*
%TD*%
D26*
%TO.C,U3*%
X51500000Y-25685000D03*
X51500000Y-26185000D03*
X51500000Y-26685000D03*
X51500000Y-27185000D03*
D27*
X52185000Y-27870000D03*
X52685000Y-27870000D03*
X53185000Y-27870000D03*
X53685000Y-27870000D03*
D26*
X54370000Y-27185000D03*
X54370000Y-26685000D03*
X54370000Y-26185000D03*
X54370000Y-25685000D03*
D27*
X53685000Y-25000000D03*
X53185000Y-25000000D03*
X52685000Y-25000000D03*
X52185000Y-25000000D03*
%TD*%
D28*
%TO.C,U4*%
X44130000Y-25500000D03*
X44130000Y-26450000D03*
X44130000Y-27400000D03*
X46500000Y-27400000D03*
X46500000Y-25500000D03*
%TD*%
D29*
%TO.C,J1*%
X60250000Y-42525000D03*
X60250000Y-41725000D03*
D30*
X60250000Y-40575000D03*
X60250000Y-39575000D03*
X60250000Y-39075000D03*
X60250000Y-38075000D03*
D29*
X60250000Y-36125000D03*
X60250000Y-36925000D03*
D30*
X60250000Y-37575000D03*
X60250000Y-38575000D03*
X60250000Y-40075000D03*
X60250000Y-41075000D03*
%TD*%
M02*
