%TF.GenerationSoftware,KiCad,Pcbnew,9.0.7*%
%TF.CreationDate,2026-01-12T23:46:57+09:00*%
%TF.ProjectId,toytalk_demo_v2,746f7974-616c-46b5-9f64-656d6f5f7632,rev?*%
%TF.SameCoordinates,Original*%
%TF.FileFunction,Soldermask,Top*%
%TF.FilePolarity,Negative*%
%FSLAX46Y46*%
G04 Gerber Fmt 4.6, Leading zero omitted, Abs format (unit mm)*
G04 Created by KiCad (PCBNEW 9.0.7) date 2026-01-12 23:46:57*
%MOMM*%
%LPD*%
G01*
G04 APERTURE LIST*
G04 Aperture macros list*
%AMRoundRect*
0 Rectangle with rounded corners*
0 $1 Rounding radius*
0 $2 $3 $4 $5 $6 $7 $8 $9 X,Y pos of 4 corners*
0 Add a 4 corners polygon primitive as box body*
4,1,4,$2,$3,$4,$5,$6,$7,$8,$9,$2,$3,0*
0 Add four circle primitives for the rounded corners*
1,1,$1+$1,$2,$3*
1,1,$1+$1,$4,$5*
1,1,$1+$1,$6,$7*
1,1,$1+$1,$8,$9*
0 Add four rect primitives between the rounded corners*
20,1,$1+$1,$2,$3,$4,$5,0*
20,1,$1+$1,$4,$5,$6,$7,0*
20,1,$1+$1,$6,$7,$8,$9,0*
20,1,$1+$1,$8,$9,$2,$3,0*%
G04 Aperture macros list end*
%ADD10C,0.010000*%
%ADD11C,0.912000*%
%ADD12C,0.800000*%
%ADD13RoundRect,0.200000X-0.200000X-0.275000X0.200000X-0.275000X0.200000X0.275000X-0.200000X0.275000X0*%
%ADD14RoundRect,0.102000X-0.525000X-0.325000X0.525000X-0.325000X0.525000X0.325000X-0.525000X0.325000X0*%
%ADD15RoundRect,0.225000X0.225000X0.250000X-0.225000X0.250000X-0.225000X-0.250000X0.225000X-0.250000X0*%
%ADD16RoundRect,0.225000X-0.225000X-0.250000X0.225000X-0.250000X0.225000X0.250000X-0.225000X0.250000X0*%
%ADD17C,1.700000*%
%ADD18R,1.700000X1.700000*%
%ADD19R,2.350000X3.500000*%
%ADD20RoundRect,0.102000X0.350000X-0.450000X0.350000X0.450000X-0.350000X0.450000X-0.350000X-0.450000X0*%
%ADD21RoundRect,0.102000X0.255000X-0.300000X0.255000X0.300000X-0.255000X0.300000X-0.255000X-0.300000X0*%
%ADD22C,0.500000*%
%ADD23RoundRect,0.102000X-0.300000X-0.261000X0.300000X-0.261000X0.300000X0.261000X-0.300000X0.261000X0*%
%ADD24RoundRect,0.102000X-0.750000X-0.450000X0.750000X-0.450000X0.750000X0.450000X-0.750000X0.450000X0*%
%ADD25RoundRect,0.102000X-0.450000X-0.750000X0.450000X-0.750000X0.450000X0.750000X-0.450000X0.750000X0*%
%ADD26RoundRect,0.102000X-0.450000X-0.450000X0.450000X-0.450000X0.450000X0.450000X-0.450000X0.450000X0*%
%ADD27RoundRect,0.102000X-0.285000X-0.600000X0.285000X-0.600000X0.285000X0.600000X-0.285000X0.600000X0*%
%ADD28C,0.454000*%
%ADD29RoundRect,0.058000X-0.474000X-0.174000X0.474000X-0.174000X0.474000X0.174000X-0.474000X0.174000X0*%
%ADD30RoundRect,0.058000X-0.174000X-0.474000X0.174000X-0.474000X0.174000X0.474000X-0.174000X0.474000X0*%
%ADD31RoundRect,0.102000X-0.840000X-0.840000X0.840000X-0.840000X0.840000X0.840000X-0.840000X0.840000X0*%
%ADD32RoundRect,0.060300X-0.716700X-0.341700X0.716700X-0.341700X0.716700X0.341700X-0.716700X0.341700X0*%
%ADD33C,0.600000*%
%ADD34O,2.204000X1.104000*%
%ADD35O,1.904000X1.104000*%
G04 APERTURE END LIST*
D10*
%TO.C,U5*%
X53795000Y-40195000D02*
X53205000Y-40195000D01*
X53205000Y-39805000D01*
X53795000Y-39805000D01*
X53795000Y-40195000D01*
G36*
X53795000Y-40195000D02*
G01*
X53205000Y-40195000D01*
X53205000Y-39805000D01*
X53795000Y-39805000D01*
X53795000Y-40195000D01*
G37*
X53795000Y-39695000D02*
X53205000Y-39695000D01*
X53205000Y-39305000D01*
X53795000Y-39305000D01*
X53795000Y-39695000D01*
G36*
X53795000Y-39695000D02*
G01*
X53205000Y-39695000D01*
X53205000Y-39305000D01*
X53795000Y-39305000D01*
X53795000Y-39695000D01*
G37*
X53795000Y-38695000D02*
X53205000Y-38695000D01*
X53205000Y-38305000D01*
X53795000Y-38305000D01*
X53795000Y-38695000D01*
G36*
X53795000Y-38695000D02*
G01*
X53205000Y-38695000D01*
X53205000Y-38305000D01*
X53795000Y-38305000D01*
X53795000Y-38695000D01*
G37*
X53795000Y-39195000D02*
X53205000Y-39195000D01*
X53205000Y-38805000D01*
X53795000Y-38805000D01*
X53795000Y-39195000D01*
G36*
X53795000Y-39195000D02*
G01*
X53205000Y-39195000D01*
X53205000Y-38805000D01*
X53795000Y-38805000D01*
X53795000Y-39195000D01*
G37*
X52845000Y-39420000D02*
X51255000Y-39420000D01*
X51255000Y-39080000D01*
X52845000Y-39080000D01*
X52845000Y-39420000D01*
G36*
X52845000Y-39420000D02*
G01*
X51255000Y-39420000D01*
X51255000Y-39080000D01*
X52845000Y-39080000D01*
X52845000Y-39420000D01*
G37*
X52545000Y-40045000D02*
X51255000Y-40045000D01*
X51255000Y-39555000D01*
X52545000Y-39555000D01*
X52545000Y-40045000D01*
G36*
X52545000Y-40045000D02*
G01*
X51255000Y-40045000D01*
X51255000Y-39555000D01*
X52545000Y-39555000D01*
X52545000Y-40045000D01*
G37*
X52545000Y-38945000D02*
X51255000Y-38945000D01*
X51255000Y-38455000D01*
X52545000Y-38455000D01*
X52545000Y-38945000D01*
G36*
X52545000Y-38945000D02*
G01*
X51255000Y-38945000D01*
X51255000Y-38455000D01*
X52545000Y-38455000D01*
X52545000Y-38945000D01*
G37*
D11*
%TO.C,MK1*%
X45556000Y-33074000D02*
G75*
G02*
X44644000Y-33074000I-456000J0D01*
G01*
X44644000Y-33074000D02*
G75*
G02*
X45556000Y-33074000I456000J0D01*
G01*
D10*
%TO.C,J1*%
X60870000Y-42875000D02*
X59630000Y-42875000D01*
X59630000Y-42175000D01*
X60870000Y-42175000D01*
X60870000Y-42875000D01*
G36*
X60870000Y-42875000D02*
G01*
X59630000Y-42875000D01*
X59630000Y-42175000D01*
X60870000Y-42175000D01*
X60870000Y-42875000D01*
G37*
X60870000Y-42075000D02*
X59630000Y-42075000D01*
X59630000Y-41375000D01*
X60870000Y-41375000D01*
X60870000Y-42075000D01*
G36*
X60870000Y-42075000D02*
G01*
X59630000Y-42075000D01*
X59630000Y-41375000D01*
X60870000Y-41375000D01*
X60870000Y-42075000D01*
G37*
X60870000Y-41275000D02*
X59630000Y-41275000D01*
X59630000Y-40875000D01*
X60870000Y-40875000D01*
X60870000Y-41275000D01*
G36*
X60870000Y-41275000D02*
G01*
X59630000Y-41275000D01*
X59630000Y-40875000D01*
X60870000Y-40875000D01*
X60870000Y-41275000D01*
G37*
X60870000Y-40775000D02*
X59630000Y-40775000D01*
X59630000Y-40375000D01*
X60870000Y-40375000D01*
X60870000Y-40775000D01*
G36*
X60870000Y-40775000D02*
G01*
X59630000Y-40775000D01*
X59630000Y-40375000D01*
X60870000Y-40375000D01*
X60870000Y-40775000D01*
G37*
X60870000Y-40275000D02*
X59630000Y-40275000D01*
X59630000Y-39875000D01*
X60870000Y-39875000D01*
X60870000Y-40275000D01*
G36*
X60870000Y-40275000D02*
G01*
X59630000Y-40275000D01*
X59630000Y-39875000D01*
X60870000Y-39875000D01*
X60870000Y-40275000D01*
G37*
X60870000Y-39775000D02*
X59630000Y-39775000D01*
X59630000Y-39375000D01*
X60870000Y-39375000D01*
X60870000Y-39775000D01*
G36*
X60870000Y-39775000D02*
G01*
X59630000Y-39775000D01*
X59630000Y-39375000D01*
X60870000Y-39375000D01*
X60870000Y-39775000D01*
G37*
X60870000Y-39275000D02*
X59630000Y-39275000D01*
X59630000Y-38875000D01*
X60870000Y-38875000D01*
X60870000Y-39275000D01*
G36*
X60870000Y-39275000D02*
G01*
X59630000Y-39275000D01*
X59630000Y-38875000D01*
X60870000Y-38875000D01*
X60870000Y-39275000D01*
G37*
X60870000Y-38775000D02*
X59630000Y-38775000D01*
X59630000Y-38375000D01*
X60870000Y-38375000D01*
X60870000Y-38775000D01*
G36*
X60870000Y-38775000D02*
G01*
X59630000Y-38775000D01*
X59630000Y-38375000D01*
X60870000Y-38375000D01*
X60870000Y-38775000D01*
G37*
X60870000Y-38275000D02*
X59630000Y-38275000D01*
X59630000Y-37875000D01*
X60870000Y-37875000D01*
X60870000Y-38275000D01*
G36*
X60870000Y-38275000D02*
G01*
X59630000Y-38275000D01*
X59630000Y-37875000D01*
X60870000Y-37875000D01*
X60870000Y-38275000D01*
G37*
X60870000Y-37775000D02*
X59630000Y-37775000D01*
X59630000Y-37375000D01*
X60870000Y-37375000D01*
X60870000Y-37775000D01*
G36*
X60870000Y-37775000D02*
G01*
X59630000Y-37775000D01*
X59630000Y-37375000D01*
X60870000Y-37375000D01*
X60870000Y-37775000D01*
G37*
X60870000Y-37275000D02*
X59630000Y-37275000D01*
X59630000Y-36575000D01*
X60870000Y-36575000D01*
X60870000Y-37275000D01*
G36*
X60870000Y-37275000D02*
G01*
X59630000Y-37275000D01*
X59630000Y-36575000D01*
X60870000Y-36575000D01*
X60870000Y-37275000D01*
G37*
X60870000Y-36475000D02*
X59630000Y-36475000D01*
X59630000Y-35775000D01*
X60870000Y-35775000D01*
X60870000Y-36475000D01*
G36*
X60870000Y-36475000D02*
G01*
X59630000Y-36475000D01*
X59630000Y-35775000D01*
X60870000Y-35775000D01*
X60870000Y-36475000D01*
G37*
%TD*%
D12*
%TO.C,*%
X20000000Y-60000000D03*
%TD*%
%TO.C,*%
X24500000Y-60000000D03*
%TD*%
%TO.C,*%
X28500000Y-60000000D03*
%TD*%
%TO.C,*%
X20000000Y-55500000D03*
%TD*%
%TO.C,*%
X24500000Y-55500000D03*
%TD*%
%TO.C,*%
X28500000Y-55500000D03*
%TD*%
%TO.C,*%
X28500000Y-50500000D03*
%TD*%
%TO.C,*%
X24500000Y-50500000D03*
%TD*%
%TO.C,*%
X20000000Y-50500000D03*
%TD*%
D13*
%TO.C,R5*%
X53500000Y-36000000D03*
X51850000Y-36000000D03*
%TD*%
%TO.C,R6*%
X40325000Y-45000000D03*
X38675000Y-45000000D03*
%TD*%
D14*
%TO.C,S2*%
X41500000Y-40650000D03*
X41500000Y-38500000D03*
X37350000Y-40650000D03*
X37350000Y-38500000D03*
%TD*%
D15*
%TO.C,C3*%
X44225000Y-22000000D03*
X45775000Y-22000000D03*
%TD*%
D16*
%TO.C,C2*%
X59500000Y-22000000D03*
X57950000Y-22000000D03*
%TD*%
%TO.C,C4*%
X39500000Y-26500000D03*
X37950000Y-26500000D03*
%TD*%
%TO.C,C5*%
X31500000Y-41500000D03*
X29950000Y-41500000D03*
%TD*%
%TO.C,C1*%
X59500000Y-31000000D03*
X57950000Y-31000000D03*
%TD*%
%TO.C,C7*%
X53500000Y-51000000D03*
X51950000Y-51000000D03*
%TD*%
D17*
%TO.C,J2*%
X59500000Y-14500000D03*
D18*
X56960000Y-14500000D03*
%TD*%
D19*
%TO.C,L1*%
X64700000Y-55500000D03*
X59000000Y-55500000D03*
%TD*%
D12*
%TO.C,S1*%
X65425000Y-18500000D03*
X65425000Y-21500000D03*
D20*
X65500000Y-23000000D03*
X65500000Y-17000000D03*
D21*
X64145000Y-21000000D03*
X64145000Y-20000000D03*
X64145000Y-19000000D03*
%TD*%
D13*
%TO.C,R3*%
X46000000Y-45000000D03*
X44350000Y-45000000D03*
%TD*%
%TO.C,R4*%
X53500000Y-42500000D03*
X51850000Y-42500000D03*
%TD*%
%TO.C,R7*%
X53650000Y-22000000D03*
X52000000Y-22000000D03*
%TD*%
%TO.C,R8*%
X53650000Y-31000000D03*
X52000000Y-31000000D03*
%TD*%
%TO.C,R9*%
X16325000Y-41500000D03*
X14675000Y-41500000D03*
%TD*%
%TO.C,R1*%
X65000000Y-31000000D03*
X63350000Y-31000000D03*
%TD*%
%TO.C,R2*%
X65000000Y-47000000D03*
X63350000Y-47000000D03*
%TD*%
D16*
%TO.C,C11*%
X21275000Y-41500000D03*
X19725000Y-41500000D03*
%TD*%
D17*
%TO.C,SP1*%
X54000000Y-63500000D03*
D18*
X51460000Y-63500000D03*
%TD*%
D16*
%TO.C,C6*%
X53500000Y-47500000D03*
X51950000Y-47500000D03*
%TD*%
%TO.C,C8*%
X46000000Y-55500000D03*
X44450000Y-55500000D03*
%TD*%
%TO.C,C9*%
X59500000Y-26275000D03*
X57950000Y-26275000D03*
%TD*%
%TO.C,C10*%
X26550000Y-41500000D03*
X25000000Y-41500000D03*
%TD*%
D22*
%TO.C,MK1*%
X45100000Y-33074000D03*
D23*
X44200000Y-31000000D03*
X44200000Y-31822000D03*
X46000000Y-31822000D03*
X46000000Y-31000000D03*
X45100000Y-31000000D03*
%TD*%
D24*
%TO.C,U1*%
X13500000Y-20000000D03*
X13500000Y-21270000D03*
X13500000Y-22540000D03*
X13500000Y-23810000D03*
X13500000Y-25080000D03*
X13500000Y-26350000D03*
X13500000Y-27620000D03*
X13500000Y-28890000D03*
X13500000Y-30160000D03*
X13500000Y-31430000D03*
X13500000Y-32700000D03*
X13500000Y-33970000D03*
X13500000Y-35240000D03*
X13500000Y-36510000D03*
D25*
X15265000Y-37760000D03*
X16535000Y-37760000D03*
X17805000Y-37760000D03*
X19075000Y-37760000D03*
X20345000Y-37760000D03*
X21615000Y-37760000D03*
X22885000Y-37760000D03*
X24155000Y-37760000D03*
X25425000Y-37760000D03*
X26695000Y-37760000D03*
X27965000Y-37760000D03*
X29235000Y-37760000D03*
D24*
X31000000Y-36510000D03*
X31000000Y-35240000D03*
X31000000Y-33970000D03*
X31000000Y-32700000D03*
X31000000Y-31430000D03*
X31000000Y-30160000D03*
X31000000Y-28890000D03*
X31000000Y-27620000D03*
X31000000Y-26350000D03*
X31000000Y-25080000D03*
X31000000Y-23810000D03*
X31000000Y-22540000D03*
X31000000Y-21270000D03*
X31000000Y-20000000D03*
D26*
X20750000Y-27720000D03*
X19350000Y-27720000D03*
X22150000Y-27720000D03*
X19350000Y-29120000D03*
X20750000Y-29120000D03*
X22150000Y-29120000D03*
X19350000Y-26320000D03*
X20750000Y-26320000D03*
X22150000Y-26320000D03*
%TD*%
D27*
%TO.C,D1*%
X46030000Y-39500000D03*
X44500000Y-39500000D03*
%TD*%
D28*
%TO.C,U2*%
X52200000Y-55000000D03*
X52600000Y-55000000D03*
X53000000Y-55000000D03*
X52200000Y-55400000D03*
X52600000Y-55400000D03*
X53000000Y-55400000D03*
X52200000Y-55800000D03*
X52600000Y-55800000D03*
X53000000Y-55800000D03*
%TD*%
D29*
%TO.C,U3*%
X51500000Y-25685000D03*
X51500000Y-26185000D03*
X51500000Y-26685000D03*
X51500000Y-27185000D03*
D30*
X52185000Y-27870000D03*
X52685000Y-27870000D03*
X53185000Y-27870000D03*
X53685000Y-27870000D03*
D29*
X54370000Y-27185000D03*
X54370000Y-26685000D03*
X54370000Y-26185000D03*
X54370000Y-25685000D03*
D30*
X53685000Y-25000000D03*
X53185000Y-25000000D03*
X52685000Y-25000000D03*
X52185000Y-25000000D03*
D31*
X52935000Y-26435000D03*
%TD*%
D32*
%TO.C,U4*%
X44130000Y-25500000D03*
X44130000Y-26450000D03*
X44130000Y-27400000D03*
X46500000Y-27400000D03*
X46500000Y-25500000D03*
%TD*%
D33*
%TO.C,J1*%
X61320000Y-42215000D03*
X61320000Y-36435000D03*
D34*
X60830000Y-43650000D03*
X60830000Y-35000000D03*
D35*
X65000000Y-43650000D03*
X65000000Y-35000000D03*
%TD*%
M02*
