M48
; DRILL file {KiCad 9.0.7} date 2026-01-12T23:45:17+0900
; FORMAT={-:-/ absolute / metric / decimal}
; #@! TF.CreationDate,2026-01-12T23:45:17+09:00
; #@! TF.GenerationSoftware,Kicad,Pcbnew,9.0.7
; #@! TF.FileFunction,Plated,1,2,PTH
FMAT,2
METRIC
; #@! TA.AperFunction,Plated,PTH,ComponentDrill
T1C0.200
; #@! TA.AperFunction,Plated,PTH,ComponentDrill
T2C0.600
; #@! TA.AperFunction,Plated,PTH,ComponentDrill
T3C1.000
%
G90
G05
T1
X19.35Y-27.02
X19.35Y-28.42
X20.05Y-26.32
X20.05Y-27.72
X20.05Y-29.12
X20.75Y-27.02
X20.75Y-28.42
X21.45Y-26.32
X21.45Y-27.72
X21.45Y-29.12
X22.15Y-27.02
X22.15Y-28.42
X52.355Y-25.855
X52.355Y-27.015
X52.935Y-26.435
X53.515Y-25.855
X53.515Y-27.015
T3
X51.46Y-63.5
X54.0Y-63.5
X56.96Y-14.5
X59.5Y-14.5
T2
G00X60.28Y-35.0
M15
G01X61.38Y-35.0
M16
G05
G00X60.28Y-43.65
M15
G01X61.38Y-43.65
M16
G05
G00X64.6Y-35.0
M15
G01X65.4Y-35.0
M16
G05
G00X64.6Y-43.65
M15
G01X65.4Y-43.65
M16
G05
M30
