%TF.GenerationSoftware,KiCad,Pcbnew,9.0.7*%
%TF.CreationDate,2026-01-12T23:46:57+09:00*%
%TF.ProjectId,toytalk_demo_v2,746f7974-616c-46b5-9f64-656d6f5f7632,rev?*%
%TF.SameCoordinates,Original*%
%TF.FileFunction,Copper,L1,Top*%
%TF.FilePolarity,Positive*%
%FSLAX46Y46*%
G04 Gerber Fmt 4.6, Leading zero omitted, Abs format (unit mm)*
G04 Created by KiCad (PCBNEW 9.0.7) date 2026-01-12 23:46:57*
%MOMM*%
%LPD*%
G01*
G04 APERTURE LIST*
G04 Aperture macros list*
%AMRoundRect*
0 Rectangle with rounded corners*
0 $1 Rounding radius*
0 $2 $3 $4 $5 $6 $7 $8 $9 X,Y pos of 4 corners*
0 Add a 4 corners polygon primitive as box body*
4,1,4,$2,$3,$4,$5,$6,$7,$8,$9,$2,$3,0*
0 Add four circle primitives for the rounded corners*
1,1,$1+$1,$2,$3*
1,1,$1+$1,$4,$5*
1,1,$1+$1,$6,$7*
1,1,$1+$1,$8,$9*
0 Add four rect primitives between the rounded corners*
20,1,$1+$1,$2,$3,$4,$5,0*
20,1,$1+$1,$4,$5,$6,$7,0*
20,1,$1+$1,$6,$7,$8,$9,0*
20,1,$1+$1,$8,$9,$2,$3,0*%
%AMFreePoly0*
4,1,286,-0.607988,0.789500,-0.564965,0.786499,-0.564929,0.786495,-0.522904,0.780491,-0.481904,0.772491,-0.439856,0.762479,-0.399835,0.750472,-0.359810,0.736463,-0.320810,0.720463,-0.281790,0.702454,-0.281753,0.702435,-0.244739,0.681427,-0.208739,0.659427,-0.173696,0.635397,-0.139696,0.609397,-0.107658,0.582365,-0.076658,0.553365,-0.076635,0.553342,-0.047635,0.522342,-0.020603,0.490304,
0.005397,0.456304,0.029427,0.421261,0.051435,0.385247,0.072435,0.348247,0.072454,0.348210,0.090463,0.309190,0.106463,0.270190,0.120479,0.230144,0.132479,0.190144,0.142491,0.148096,0.150491,0.107096,0.156495,0.065071,0.156499,0.065035,0.159500,0.022012,0.160500,-0.019988,0.160500,-0.050012,0.159499,-0.091036,0.156499,-0.132036,0.150494,-0.172074,0.150493,-0.172086,
0.143493,-0.212086,0.143485,-0.212121,0.133481,-0.252136,0.122471,-0.291169,0.108471,-0.330169,0.093450,-0.367219,0.075450,-0.404219,0.055429,-0.440257,0.034429,-0.475257,0.034410,-0.475286,0.011399,-0.508302,-0.013601,-0.541302,-0.039634,-0.572341,-0.067634,-0.602341,-0.067659,-0.602366,-0.097659,-0.630366,-0.128698,-0.656399,-0.161698,-0.681399,-0.194714,-0.704410,-0.194743,-0.704429,
-0.229757,-0.725437,-0.265781,-0.745450,-0.302781,-0.763450,-0.339831,-0.778471,-0.378831,-0.792471,-0.417879,-0.803485,-0.457879,-0.813485,-0.457914,-0.813493,-0.497914,-0.820493,-0.497926,-0.820494,-0.537964,-0.826499,-0.578964,-0.829499,-0.619988,-0.830500,-0.630012,-0.830500,-0.673012,-0.829500,-0.673045,-0.829498,-0.717058,-0.825497,-0.760058,-0.820497,-0.760091,-0.820492,-0.803091,-0.812492,
-0.845151,-0.802477,-0.886162,-0.789473,-0.927162,-0.775473,-0.927192,-0.775462,-0.968210,-0.758454,-1.007210,-0.740454,-1.007242,-0.740438,-1.045242,-0.719438,-1.082264,-0.696425,-1.118304,-0.671397,-1.152304,-0.645397,-1.185342,-0.617365,-1.217342,-0.587365,-1.217365,-0.587342,-1.247365,-0.555342,-1.275397,-0.522304,-1.301411,-0.488285,-1.326425,-0.452264,-1.349438,-0.415242,-1.370438,-0.377242,
-1.370454,-0.377210,-1.388462,-0.338192,-1.405462,-0.297192,-1.405473,-0.297162,-1.419477,-0.256151,-1.432477,-0.215151,-1.442492,-0.173091,-1.450492,-0.130091,-1.450497,-0.130058,-1.455498,-0.087045,-1.459498,-0.043045,-1.459500,-0.043012,-1.460500,0.000014,-1.459499,0.037036,-1.456499,0.078036,-1.456495,0.078072,-1.450493,0.119084,-1.443493,0.160084,-1.443486,0.160118,-1.433479,0.201144,
-1.421471,0.241169,-1.407471,0.280169,-1.391452,0.318214,-1.373445,0.356228,-1.354445,0.393228,-1.354423,0.393266,-1.332423,0.428266,-1.308408,0.462288,-1.308399,0.462302,-1.283399,0.495302,-1.256382,0.527322,-1.256359,0.527348,-1.227348,0.557359,-1.197348,0.586359,-1.197322,0.586382,-1.165302,0.613399,-1.132302,0.638399,-1.132288,0.638408,-1.098266,0.662423,-1.063266,0.684423,
-1.063228,0.684445,-1.026214,0.703452,-0.988194,0.721461,-0.950169,0.737471,-0.911169,0.751471,-0.871144,0.763479,-0.830118,0.773486,-0.830084,0.773493,-0.789072,0.780495,-0.748072,0.786495,-0.748036,0.786499,-0.707036,0.789499,-0.660011,0.790500,-0.659654,0.790361,-0.659500,0.790011,-0.659500,0.490000,-0.659646,0.489646,-0.659981,0.489500,-0.685969,0.488500,-0.711957,0.486501,
-0.737928,0.483504,-0.763895,0.478511,-0.788870,0.472517,-0.814848,0.465522,-0.838808,0.456538,-0.862800,0.446541,-0.886778,0.435551,-0.909739,0.422572,-0.931732,0.408578,-0.953710,0.394591,-0.974687,0.378609,-0.994666,0.361627,-1.013646,0.343646,-1.031627,0.324666,-1.048609,0.304687,-1.064591,0.283710,-1.078578,0.261732,-1.092572,0.239739,-1.105551,0.216778,-1.116545,0.192792,
-1.126538,0.168808,-1.135522,0.144848,-1.142517,0.118870,-1.148511,0.093895,-1.153504,0.067928,-1.156501,0.041962,-1.158501,0.015962,-1.159500,-0.010019,-1.159500,-0.039981,-1.158500,-0.065981,-1.156503,-0.090943,-1.153504,-0.116928,-1.148514,-0.141883,-1.142520,-0.166860,-1.135521,-0.190853,-1.126534,-0.215818,-1.117539,-0.238803,-1.106554,-0.261773,-1.093570,-0.284746,-1.080586,-0.306718,
-1.065593,-0.327709,-1.050610,-0.347686,-1.033636,-0.367656,-0.997656,-0.403636,-0.977686,-0.420610,-0.957709,-0.435593,-0.936718,-0.450586,-0.914754,-0.463565,-0.891773,-0.476554,-0.868803,-0.487539,-0.845818,-0.496534,-0.820853,-0.505521,-0.796869,-0.512517,-0.771888,-0.518512,-0.746928,-0.523504,-0.720943,-0.526503,-0.695981,-0.528500,-0.669981,-0.529500,-0.660019,-0.529500,-0.633028,-0.528500,
-0.606037,-0.526501,-0.579077,-0.523505,-0.552102,-0.518510,-0.525129,-0.511517,-0.525130,-0.511517,-0.499156,-0.504524,-0.474179,-0.494533,-0.448200,-0.484541,-0.424238,-0.472560,-0.400243,-0.459563,-0.377271,-0.445579,-0.354298,-0.430597,-0.333315,-0.413611,-0.312325,-0.395620,-0.292354,-0.377646,-0.274372,-0.357666,-0.256389,-0.336685,-0.239402,-0.315701,-0.224419,-0.292727,-0.210436,-0.269756,
-0.197440,-0.245762,-0.185458,-0.221799,-0.175464,-0.195814,-0.165476,-0.170844,-0.158483,-0.144870,-0.151489,-0.117898,-0.146494,-0.090922,-0.143499,-0.063963,-0.141499,-0.036963,-0.140500,-0.009998,-0.141499,0.019967,-0.144497,0.046945,-0.148491,0.072906,-0.153487,0.098889,-0.167473,0.148836,-0.177462,0.173808,-0.187457,0.197796,-0.199447,0.221776,-0.212427,0.244739,-0.226415,0.266722,
-0.242397,0.288697,-0.242398,0.288697,-0.258382,0.309676,-0.294350,0.347643,-0.314324,0.365619,-0.334312,0.382609,-0.355289,0.398591,-0.377260,0.412573,-0.400241,0.426561,-0.424208,0.438545,-0.448200,0.449541,-0.472179,0.459532,-0.497130,0.467517,-0.523130,0.474517,-0.523129,0.474517,-0.549093,0.480508,-0.575057,0.484503,-0.601043,0.487501,-0.627025,0.489500,-0.650000,0.489500,
-0.650354,0.489646,-0.650500,0.490000,-0.650500,0.790000,-0.650354,0.790354,-0.650000,0.790500,-0.607988,0.789500,-0.607988,0.789500,$1*%
G04 Aperture macros list end*
%TA.AperFunction,SMDPad,CuDef*%
%ADD10RoundRect,0.200000X-0.200000X-0.275000X0.200000X-0.275000X0.200000X0.275000X-0.200000X0.275000X0*%
%TD*%
%TA.AperFunction,SMDPad,CuDef*%
%ADD11R,1.050000X0.650000*%
%TD*%
%TA.AperFunction,SMDPad,CuDef*%
%ADD12RoundRect,0.225000X0.225000X0.250000X-0.225000X0.250000X-0.225000X-0.250000X0.225000X-0.250000X0*%
%TD*%
%TA.AperFunction,SMDPad,CuDef*%
%ADD13RoundRect,0.225000X-0.225000X-0.250000X0.225000X-0.250000X0.225000X0.250000X-0.225000X0.250000X0*%
%TD*%
%TA.AperFunction,ComponentPad*%
%ADD14C,1.700000*%
%TD*%
%TA.AperFunction,ComponentPad*%
%ADD15R,1.700000X1.700000*%
%TD*%
%TA.AperFunction,SMDPad,CuDef*%
%ADD16R,2.350000X3.500000*%
%TD*%
%TA.AperFunction,SMDPad,CuDef*%
%ADD17R,0.700000X0.900000*%
%TD*%
%TA.AperFunction,SMDPad,CuDef*%
%ADD18R,0.510000X0.600000*%
%TD*%
%TA.AperFunction,SMDPad,CuDef*%
%ADD19R,0.450000X0.250000*%
%TD*%
%TA.AperFunction,SMDPad,CuDef*%
%ADD20R,1.150000X0.350000*%
%TD*%
%TA.AperFunction,SMDPad,CuDef*%
%ADD21R,1.450000X0.200000*%
%TD*%
%TA.AperFunction,SMDPad,CuDef*%
%ADD22R,0.600000X0.522000*%
%TD*%
%TA.AperFunction,SMDPad,CuDef*%
%ADD23FreePoly0,0.000000*%
%TD*%
%TA.AperFunction,SMDPad,CuDef*%
%ADD24R,1.500000X0.900000*%
%TD*%
%TA.AperFunction,SMDPad,CuDef*%
%ADD25R,0.900000X1.500000*%
%TD*%
%TA.AperFunction,SMDPad,CuDef*%
%ADD26R,0.900000X0.900000*%
%TD*%
%TA.AperFunction,ComponentPad*%
%ADD27C,0.400000*%
%TD*%
%TA.AperFunction,SMDPad,CuDef*%
%ADD28R,0.570000X1.200000*%
%TD*%
%TA.AperFunction,SMDPad,CuDef*%
%ADD29C,0.250000*%
%TD*%
%TA.AperFunction,SMDPad,CuDef*%
%ADD30RoundRect,0.032500X-0.397500X-0.097500X0.397500X-0.097500X0.397500X0.097500X-0.397500X0.097500X0*%
%TD*%
%TA.AperFunction,SMDPad,CuDef*%
%ADD31RoundRect,0.032500X-0.097500X-0.397500X0.097500X-0.397500X0.097500X0.397500X-0.097500X0.397500X0*%
%TD*%
%TA.AperFunction,SMDPad,CuDef*%
%ADD32R,1.680000X1.680000*%
%TD*%
%TA.AperFunction,SMDPad,CuDef*%
%ADD33RoundRect,0.045000X-0.630000X-0.255000X0.630000X-0.255000X0.630000X0.255000X-0.630000X0.255000X0*%
%TD*%
%TA.AperFunction,SMDPad,CuDef*%
%ADD34R,1.140000X0.600000*%
%TD*%
%TA.AperFunction,SMDPad,CuDef*%
%ADD35R,1.140000X0.300000*%
%TD*%
%TA.AperFunction,ComponentPad*%
%ADD36O,2.000000X0.900000*%
%TD*%
%TA.AperFunction,ComponentPad*%
%ADD37O,1.700000X0.900000*%
%TD*%
G04 APERTURE END LIST*
D10*
%TO.P,R5,2*%
%TO.N,GND*%
X53500000Y-36000000D03*
%TO.P,R5,1*%
%TO.N,/FB*%
X51850000Y-36000000D03*
%TD*%
%TO.P,R6,2*%
%TO.N,/GPIO7*%
X40325000Y-45000000D03*
%TO.P,R6,1*%
%TO.N,Net-(R6-Pad1)*%
X38675000Y-45000000D03*
%TD*%
D11*
%TO.P,S2,4*%
%TO.N,GND*%
X41500000Y-40650000D03*
%TO.P,S2,2*%
%TO.N,Net-(R6-Pad1)*%
X41500000Y-38500000D03*
%TO.P,S2,3*%
%TO.N,GND*%
X37350000Y-40650000D03*
%TO.P,S2,1*%
%TO.N,Net-(R6-Pad1)*%
X37350000Y-38500000D03*
%TD*%
D12*
%TO.P,C3,2*%
%TO.N,GND*%
X44225000Y-22000000D03*
%TO.P,C3,1*%
%TO.N,/+3V3*%
X45775000Y-22000000D03*
%TD*%
D13*
%TO.P,C2,2*%
%TO.N,GND*%
X59500000Y-22000000D03*
%TO.P,C2,1*%
%TO.N,/V_SYS_SW*%
X57950000Y-22000000D03*
%TD*%
%TO.P,C4,2*%
%TO.N,GND*%
X39500000Y-26500000D03*
%TO.P,C4,1*%
%TO.N,/+3V3*%
X37950000Y-26500000D03*
%TD*%
%TO.P,C5,2*%
%TO.N,GND*%
X31500000Y-41500000D03*
%TO.P,C5,1*%
%TO.N,/+3V3*%
X29950000Y-41500000D03*
%TD*%
%TO.P,C1,2*%
%TO.N,GND*%
X59500000Y-31000000D03*
%TO.P,C1,1*%
%TO.N,VBUS*%
X57950000Y-31000000D03*
%TD*%
%TO.P,C7,2*%
%TO.N,GND*%
X53500000Y-51000000D03*
%TO.P,C7,1*%
%TO.N,/+5V*%
X51950000Y-51000000D03*
%TD*%
D14*
%TO.P,J2,2,Pin_2*%
%TO.N,GND*%
X59500000Y-14500000D03*
D15*
%TO.P,J2,1,Pin_1*%
%TO.N,/VBAT*%
X56960000Y-14500000D03*
%TD*%
D16*
%TO.P,L1,2,2*%
%TO.N,/V_SYS_SW*%
X64700000Y-55500000D03*
%TO.P,L1,1,1*%
%TO.N,Net-(U5-SW)*%
X59000000Y-55500000D03*
%TD*%
D17*
%TO.P,S1,S2*%
%TO.N,N/C*%
X65500000Y-23000000D03*
%TO.P,S1,S1*%
X65500000Y-17000000D03*
D18*
%TO.P,S1,1*%
%TO.N,unconnected-(S1-Pad1)*%
X64145000Y-21000000D03*
%TO.P,S1,C*%
%TO.N,/V_SYS*%
X64145000Y-20000000D03*
%TO.P,S1,2*%
%TO.N,/V_SYS_SW*%
X64145000Y-19000000D03*
%TD*%
D10*
%TO.P,R3,2*%
%TO.N,/GPIO8*%
X46000000Y-45000000D03*
%TO.P,R3,1*%
%TO.N,Net-(D1-PadA)*%
X44350000Y-45000000D03*
%TD*%
%TO.P,R4,2*%
%TO.N,/FB*%
X53500000Y-42500000D03*
%TO.P,R4,1*%
%TO.N,/+5V*%
X51850000Y-42500000D03*
%TD*%
%TO.P,R7,2*%
%TO.N,GND*%
X53650000Y-22000000D03*
%TO.P,R7,1*%
%TO.N,Net-(U3-ISET)*%
X52000000Y-22000000D03*
%TD*%
%TO.P,R8,2*%
%TO.N,GND*%
X53650000Y-31000000D03*
%TO.P,R8,1*%
%TO.N,Net-(U3-TS)*%
X52000000Y-31000000D03*
%TD*%
%TO.P,R9,2*%
%TO.N,/+3V3*%
X16325000Y-41500000D03*
%TO.P,R9,1*%
%TO.N,Net-(U1-EN)*%
X14675000Y-41500000D03*
%TD*%
%TO.P,R1,2*%
%TO.N,GND*%
X65000000Y-31000000D03*
%TO.P,R1,1*%
%TO.N,Net-(J1-CC1)*%
X63350000Y-31000000D03*
%TD*%
%TO.P,R2,2*%
%TO.N,GND*%
X65000000Y-47000000D03*
%TO.P,R2,1*%
%TO.N,Net-(J1-CC2)*%
X63350000Y-47000000D03*
%TD*%
D19*
%TO.P,U5,7,VIN*%
%TO.N,/V_SYS_SW*%
X53500000Y-38500000D03*
%TO.P,U5,6,MODE*%
X53500000Y-39000000D03*
%TO.P,U5,5,EN*%
X53500000Y-39500000D03*
%TO.P,U5,4,FB*%
%TO.N,/FB*%
X53500000Y-40000000D03*
D20*
%TO.P,U5,3,VOUT*%
%TO.N,/+5V*%
X51900000Y-39800000D03*
D21*
%TO.P,U5,2,SW*%
%TO.N,Net-(U5-SW)*%
X52050000Y-39250000D03*
D20*
%TO.P,U5,1,GND*%
%TO.N,GND*%
X51900000Y-38700000D03*
%TD*%
D13*
%TO.P,C11,2*%
%TO.N,GND*%
X21275000Y-41500000D03*
%TO.P,C11,1*%
%TO.N,Net-(U1-EN)*%
X19725000Y-41500000D03*
%TD*%
D14*
%TO.P,SP1,2,Pin_2*%
%TO.N,/OUTN*%
X54000000Y-63500000D03*
D15*
%TO.P,SP1,1,Pin_1*%
%TO.N,/OUTP*%
X51460000Y-63500000D03*
%TD*%
D13*
%TO.P,C6,2*%
%TO.N,GND*%
X53500000Y-47500000D03*
%TO.P,C6,1*%
%TO.N,/+5V*%
X51950000Y-47500000D03*
%TD*%
%TO.P,C8,2*%
%TO.N,GND*%
X46000000Y-55500000D03*
%TO.P,C8,1*%
%TO.N,/+5V*%
X44450000Y-55500000D03*
%TD*%
%TO.P,C9,2*%
%TO.N,GND*%
X59500000Y-26275000D03*
%TO.P,C9,1*%
%TO.N,/V_SYS*%
X57950000Y-26275000D03*
%TD*%
%TO.P,C10,2*%
%TO.N,GND*%
X26550000Y-41500000D03*
%TO.P,C10,1*%
%TO.N,/+3V3*%
X25000000Y-41500000D03*
%TD*%
D22*
%TO.P,MK1,1,WS*%
%TO.N,/GPIO3*%
X44200000Y-31000000D03*
%TO.P,MK1,2,SELECT*%
%TO.N,GND*%
X44200000Y-31822000D03*
D23*
%TO.P,MK1,3,GND*%
X45750000Y-33054000D03*
D22*
%TO.P,MK1,4,BCLK*%
%TO.N,/GPIO4*%
X46000000Y-31822000D03*
%TO.P,MK1,5,VDD*%
%TO.N,/+3V3*%
X46000000Y-31000000D03*
%TO.P,MK1,6,DATA_OUT*%
%TO.N,/GPIO9*%
X45100000Y-31000000D03*
%TD*%
D24*
%TO.P,U1,1,GND*%
%TO.N,GND*%
X13500000Y-20000000D03*
%TO.P,U1,2,3V3*%
%TO.N,/+3V3*%
X13500000Y-21270000D03*
%TO.P,U1,3,EN*%
%TO.N,Net-(U1-EN)*%
X13500000Y-22540000D03*
%TO.P,U1,4,IO4*%
%TO.N,/GPIO4*%
X13500000Y-23810000D03*
%TO.P,U1,5,IO5*%
%TO.N,/GPIO5*%
X13500000Y-25080000D03*
%TO.P,U1,6,IO6*%
%TO.N,/GPIO6*%
X13500000Y-26350000D03*
%TO.P,U1,7,IO7*%
%TO.N,/GPIO7*%
X13500000Y-27620000D03*
%TO.P,U1,8,IO15*%
%TO.N,unconnected-(U1-IO15-Pad8)*%
X13500000Y-28890000D03*
%TO.P,U1,9,IO16*%
%TO.N,unconnected-(U1-IO16-Pad9)*%
X13500000Y-30160000D03*
%TO.P,U1,10,IO17*%
%TO.N,unconnected-(U1-IO17-Pad10)*%
X13500000Y-31430000D03*
%TO.P,U1,11,IO18*%
%TO.N,unconnected-(U1-IO18-Pad11)*%
X13500000Y-32700000D03*
%TO.P,U1,12,IO8*%
%TO.N,/GPIO8*%
X13500000Y-33970000D03*
%TO.P,U1,13,IO19*%
%TO.N,unconnected-(U1-IO19-Pad13)*%
X13500000Y-35240000D03*
%TO.P,U1,14,IO20*%
%TO.N,unconnected-(U1-IO20-Pad14)*%
X13500000Y-36510000D03*
D25*
%TO.P,U1,15,IO3*%
%TO.N,/GPIO3*%
X15265000Y-37760000D03*
%TO.P,U1,16,IO46*%
%TO.N,unconnected-(U1-IO46-Pad16)*%
X16535000Y-37760000D03*
%TO.P,U1,17,IO9*%
%TO.N,/GPIO9*%
X17805000Y-37760000D03*
%TO.P,U1,18,IO10*%
%TO.N,unconnected-(U1-IO10-Pad18)*%
X19075000Y-37760000D03*
%TO.P,U1,19,IO11*%
%TO.N,/GPIO19*%
X20345000Y-37760000D03*
%TO.P,U1,20,IO12*%
%TO.N,/GPIO20*%
X21615000Y-37760000D03*
%TO.P,U1,21,IO13*%
%TO.N,unconnected-(U1-IO13-Pad21)*%
X22885000Y-37760000D03*
%TO.P,U1,22,IO14*%
%TO.N,unconnected-(U1-IO14-Pad22)*%
X24155000Y-37760000D03*
%TO.P,U1,23,IO21*%
%TO.N,unconnected-(U1-IO21-Pad23)*%
X25425000Y-37760000D03*
%TO.P,U1,24,IO47*%
%TO.N,unconnected-(U1-IO47-Pad24)*%
X26695000Y-37760000D03*
%TO.P,U1,25,IO48*%
%TO.N,unconnected-(U1-IO48-Pad25)*%
X27965000Y-37760000D03*
%TO.P,U1,26,IO45*%
%TO.N,unconnected-(U1-IO45-Pad26)*%
X29235000Y-37760000D03*
D24*
%TO.P,U1,27,IO0*%
%TO.N,unconnected-(U1-IO0-Pad27)*%
X31000000Y-36510000D03*
%TO.P,U1,28,IO35*%
%TO.N,unconnected-(U1-IO35-Pad28)*%
X31000000Y-35240000D03*
%TO.P,U1,29,IO36*%
%TO.N,unconnected-(U1-IO36-Pad29)*%
X31000000Y-33970000D03*
%TO.P,U1,30,IO37*%
%TO.N,unconnected-(U1-IO37-Pad30)*%
X31000000Y-32700000D03*
%TO.P,U1,31,IO38*%
%TO.N,unconnected-(U1-IO38-Pad31)*%
X31000000Y-31430000D03*
%TO.P,U1,32,IO39*%
%TO.N,unconnected-(U1-IO39-Pad32)*%
X31000000Y-30160000D03*
%TO.P,U1,33,IO40*%
%TO.N,unconnected-(U1-IO40-Pad33)*%
X31000000Y-28890000D03*
%TO.P,U1,34,IO41*%
%TO.N,unconnected-(U1-IO41-Pad34)*%
X31000000Y-27620000D03*
%TO.P,U1,35,IO42*%
%TO.N,unconnected-(U1-IO42-Pad35)*%
X31000000Y-26350000D03*
%TO.P,U1,36,RXD0*%
%TO.N,unconnected-(U1-RXD0-Pad36)*%
X31000000Y-25080000D03*
%TO.P,U1,37,TXD0*%
%TO.N,unconnected-(U1-TXD0-Pad37)*%
X31000000Y-23810000D03*
%TO.P,U1,38,IO2*%
%TO.N,unconnected-(U1-IO2-Pad38)*%
X31000000Y-22540000D03*
%TO.P,U1,39,IO1*%
%TO.N,unconnected-(U1-IO1-Pad39)*%
X31000000Y-21270000D03*
%TO.P,U1,40,GND*%
%TO.N,GND*%
X31000000Y-20000000D03*
D26*
%TO.P,U1,41_1,GND*%
X20750000Y-27720000D03*
%TO.P,U1,41_2,GND*%
X19350000Y-27720000D03*
%TO.P,U1,41_3,GND*%
X22150000Y-27720000D03*
%TO.P,U1,41_4,GND*%
X19350000Y-29120000D03*
%TO.P,U1,41_5,GND*%
X20750000Y-29120000D03*
%TO.P,U1,41_6,GND*%
X22150000Y-29120000D03*
%TO.P,U1,41_7,GND*%
X19350000Y-26320000D03*
%TO.P,U1,41_8,GND*%
X20750000Y-26320000D03*
%TO.P,U1,41_9,GND*%
X22150000Y-26320000D03*
D27*
%TO.P,U1,41_10*%
%TO.N,N/C*%
X20750000Y-27020000D03*
%TO.P,U1,41_11*%
X19350000Y-27020000D03*
%TO.P,U1,41_12*%
X22150000Y-27020000D03*
%TO.P,U1,41_13*%
X19350000Y-28420000D03*
%TO.P,U1,41_14*%
X20750000Y-28420000D03*
%TO.P,U1,41_15*%
X22150000Y-28420000D03*
%TO.P,U1,41_16*%
X20050000Y-26320000D03*
%TO.P,U1,41_17*%
X21450000Y-26320000D03*
%TO.P,U1,41_18*%
X20050000Y-27720000D03*
%TO.P,U1,41_19*%
X21450000Y-27720000D03*
%TO.P,U1,41_20*%
X20050000Y-29120000D03*
%TO.P,U1,41_21*%
X21450000Y-29120000D03*
%TD*%
D28*
%TO.P,D1,A*%
%TO.N,Net-(D1-PadA)*%
X46030000Y-39500000D03*
%TO.P,D1,C*%
%TO.N,GND*%
X44500000Y-39500000D03*
%TD*%
D29*
%TO.P,U2,A1,SD_MODE*%
%TO.N,/GPIO6*%
X52200000Y-55000000D03*
%TO.P,U2,A2,VDD*%
%TO.N,/+5V*%
X52600000Y-55000000D03*
%TO.P,U2,A3,OUTP*%
%TO.N,/OUTP*%
X53000000Y-55000000D03*
%TO.P,U2,B1,DIN*%
%TO.N,/GPIO5*%
X52200000Y-55400000D03*
%TO.P,U2,B2,GAIN_SLOT*%
%TO.N,unconnected-(U2-GAIN_SLOT-PadB2)*%
X52600000Y-55400000D03*
%TO.P,U2,B3,OUTN*%
%TO.N,/OUTN*%
X53000000Y-55400000D03*
%TO.P,U2,C1,BCLK*%
%TO.N,/GPIO4*%
X52200000Y-55800000D03*
%TO.P,U2,C2,GND*%
%TO.N,GND*%
X52600000Y-55800000D03*
%TO.P,U2,C3,LRCLK*%
%TO.N,/GPIO3*%
X53000000Y-55800000D03*
%TD*%
D30*
%TO.P,U3,1,TS*%
%TO.N,Net-(U3-TS)*%
X51500000Y-25685000D03*
%TO.P,U3,2,BAT_2*%
%TO.N,/VBAT*%
X51500000Y-26185000D03*
%TO.P,U3,3,BAT_3*%
X51500000Y-26685000D03*
%TO.P,U3,4,~{CE}*%
%TO.N,GND*%
X51500000Y-27185000D03*
D31*
%TO.P,U3,5,EN2*%
X52185000Y-27870000D03*
%TO.P,U3,6,EN1*%
%TO.N,VBUS*%
X52685000Y-27870000D03*
%TO.P,U3,7,~{PGOOD}*%
%TO.N,unconnected-(U3-~{PGOOD}-Pad7)*%
X53185000Y-27870000D03*
%TO.P,U3,8,VSS*%
%TO.N,GND*%
X53685000Y-27870000D03*
D30*
%TO.P,U3,9,~{CHG}*%
%TO.N,unconnected-(U3-~{CHG}-Pad9)*%
X54370000Y-27185000D03*
%TO.P,U3,10,OUT_10*%
%TO.N,/V_SYS*%
X54370000Y-26685000D03*
%TO.P,U3,11,OUT_11*%
X54370000Y-26185000D03*
%TO.P,U3,12,ILIM*%
%TO.N,GND*%
X54370000Y-25685000D03*
D31*
%TO.P,U3,13,IN*%
%TO.N,VBUS*%
X53685000Y-25000000D03*
%TO.P,U3,14,TMR*%
%TO.N,GND*%
X53185000Y-25000000D03*
%TO.P,U3,15,ITERM*%
%TO.N,unconnected-(U3-ITERM-Pad15)*%
X52685000Y-25000000D03*
%TO.P,U3,16,ISET*%
%TO.N,Net-(U3-ISET)*%
X52185000Y-25000000D03*
D32*
%TO.P,U3,17,EXP*%
%TO.N,GND*%
X52935000Y-26435000D03*
D27*
%TO.P,U3,18*%
%TO.N,N/C*%
X52935000Y-26435000D03*
%TO.P,U3,19*%
X52355000Y-25855000D03*
%TO.P,U3,20*%
X53515000Y-25855000D03*
%TO.P,U3,21*%
X52355000Y-27015000D03*
%TO.P,U3,22*%
X53515000Y-27015000D03*
%TD*%
D33*
%TO.P,U4,1,VIN*%
%TO.N,/V_SYS_SW*%
X44130000Y-25500000D03*
%TO.P,U4,2,GND*%
%TO.N,GND*%
X44130000Y-26450000D03*
%TO.P,U4,3,EN*%
%TO.N,/V_SYS_SW*%
X44130000Y-27400000D03*
%TO.P,U4,4*%
%TO.N,N/C*%
X46500000Y-27400000D03*
%TO.P,U4,5,VOUT*%
%TO.N,/+3V3*%
X46500000Y-25500000D03*
%TD*%
D34*
%TO.P,J1,A1_B12,GND*%
%TO.N,GND*%
X60250000Y-42525000D03*
%TO.P,J1,A4_B9,VBUS*%
%TO.N,VBUS*%
X60250000Y-41725000D03*
D35*
%TO.P,J1,A5,CC1*%
%TO.N,Net-(J1-CC1)*%
X60250000Y-40575000D03*
%TO.P,J1,A6,DP1*%
%TO.N,/GPIO20*%
X60250000Y-39575000D03*
%TO.P,J1,A7,DN1*%
%TO.N,/GPIO19*%
X60250000Y-39075000D03*
%TO.P,J1,A8,SBU1*%
%TO.N,unconnected-(J1-SBU1-PadA8)*%
X60250000Y-38075000D03*
D34*
%TO.P,J1,B1_A12,GND*%
%TO.N,GND*%
X60250000Y-36125000D03*
%TO.P,J1,B4_A9,VBUS*%
%TO.N,VBUS*%
X60250000Y-36925000D03*
D35*
%TO.P,J1,B5,CC2*%
%TO.N,Net-(J1-CC2)*%
X60250000Y-37575000D03*
%TO.P,J1,B6,DP2*%
%TO.N,/GPIO20*%
X60250000Y-38575000D03*
%TO.P,J1,B7,DN2*%
%TO.N,/GPIO19*%
X60250000Y-40075000D03*
%TO.P,J1,B8,SBU2*%
%TO.N,unconnected-(J1-SBU2-PadB8)*%
X60250000Y-41075000D03*
D36*
%TO.P,J1,S1,SHIELD*%
%TO.N,GND*%
X60830000Y-43650000D03*
%TO.P,J1,S2,SHIELD*%
X60830000Y-35000000D03*
D37*
%TO.P,J1,S3,SHIELD*%
X65000000Y-43650000D03*
%TO.P,J1,S4,SHIELD*%
X65000000Y-35000000D03*
%TD*%
M02*
