%TF.GenerationSoftware,KiCad,Pcbnew,9.0.7*%
%TF.CreationDate,2026-02-14T11:30:08+09:00*%
%TF.ProjectId,toytalk_demo_v2,746f7974-616c-46b5-9f64-656d6f5f7632,rev?*%
%TF.SameCoordinates,Original*%
%TF.FileFunction,Paste,Top*%
%TF.FilePolarity,Positive*%
%FSLAX46Y46*%
G04 Gerber Fmt 4.6, Leading zero omitted, Abs format (unit mm)*
G04 Created by KiCad (PCBNEW 9.0.7) date 2026-02-14 11:30:08*
%MOMM*%
%LPD*%
G01*
G04 APERTURE LIST*
G04 Aperture macros list*
%AMRoundRect*
0 Rectangle with rounded corners*
0 $1 Rounding radius*
0 $2 $3 $4 $5 $6 $7 $8 $9 X,Y pos of 4 corners*
0 Add a 4 corners polygon primitive as box body*
4,1,4,$2,$3,$4,$5,$6,$7,$8,$9,$2,$3,0*
0 Add four circle primitives for the rounded corners*
1,1,$1+$1,$2,$3*
1,1,$1+$1,$4,$5*
1,1,$1+$1,$6,$7*
1,1,$1+$1,$8,$9*
0 Add four rect primitives between the rounded corners*
20,1,$1+$1,$2,$3,$4,$5,0*
20,1,$1+$1,$4,$5,$6,$7,0*
20,1,$1+$1,$6,$7,$8,$9,0*
20,1,$1+$1,$8,$9,$2,$3,0*%
G04 Aperture macros list end*
%ADD10C,0.010000*%
%ADD11C,0.001000*%
%ADD12RoundRect,0.045000X0.630000X0.255000X-0.630000X0.255000X-0.630000X-0.255000X0.630000X-0.255000X0*%
%ADD13RoundRect,0.032500X-0.097500X-0.397500X0.097500X-0.397500X0.097500X0.397500X-0.097500X0.397500X0*%
%ADD14RoundRect,0.032500X-0.397500X-0.097500X0.397500X-0.097500X0.397500X0.097500X-0.397500X0.097500X0*%
%ADD15R,0.900000X0.900000*%
%ADD16R,1.500000X0.900000*%
%ADD17R,0.900000X1.500000*%
%ADD18R,0.510000X0.600000*%
%ADD19R,0.700000X0.900000*%
%ADD20R,0.600000X0.522000*%
%ADD21R,1.140000X0.300000*%
%ADD22R,1.140000X0.600000*%
%ADD23RoundRect,0.225000X-0.225000X-0.250000X0.225000X-0.250000X0.225000X0.250000X-0.225000X0.250000X0*%
%ADD24RoundRect,0.200000X-0.200000X-0.275000X0.200000X-0.275000X0.200000X0.275000X-0.200000X0.275000X0*%
%ADD25R,2.350000X3.500000*%
%ADD26C,0.250000*%
%ADD27R,0.450000X0.250000*%
%ADD28R,0.570000X1.200000*%
%ADD29R,1.050000X0.650000*%
%ADD30RoundRect,0.225000X0.225000X0.250000X-0.225000X0.250000X-0.225000X-0.250000X0.225000X-0.250000X0*%
G04 APERTURE END LIST*
D10*
%TO.C,U3*%
X53465000Y-26965000D02*
X52405000Y-26965000D01*
X52405000Y-25905000D01*
X53465000Y-25905000D01*
X53465000Y-26965000D01*
G36*
X53465000Y-26965000D02*
G01*
X52405000Y-26965000D01*
X52405000Y-25905000D01*
X53465000Y-25905000D01*
X53465000Y-26965000D01*
G37*
D11*
%TO.C,MK1*%
X44575000Y-32684000D02*
X44673828Y-32781334D01*
X44638463Y-32849391D01*
X44595000Y-32949000D01*
X44580000Y-33069000D01*
X44576397Y-33069000D01*
X44580000Y-33079000D01*
X44595000Y-33184000D01*
X44590000Y-33194000D01*
X44595000Y-33194000D01*
X44635000Y-33304000D01*
X44670000Y-33359000D01*
X44570000Y-33459000D01*
X44459691Y-33573766D01*
X44395000Y-33474000D01*
X44350000Y-33384000D01*
X44303797Y-33234191D01*
X44290000Y-33074000D01*
X44300000Y-32934000D01*
X44320000Y-32854000D01*
X44350000Y-32764000D01*
X44400000Y-32664000D01*
X44465000Y-32569000D01*
X44575000Y-32684000D01*
G36*
X44575000Y-32684000D02*
G01*
X44673828Y-32781334D01*
X44638463Y-32849391D01*
X44595000Y-32949000D01*
X44580000Y-33069000D01*
X44576397Y-33069000D01*
X44580000Y-33079000D01*
X44595000Y-33184000D01*
X44590000Y-33194000D01*
X44595000Y-33194000D01*
X44635000Y-33304000D01*
X44670000Y-33359000D01*
X44570000Y-33459000D01*
X44459691Y-33573766D01*
X44395000Y-33474000D01*
X44350000Y-33384000D01*
X44303797Y-33234191D01*
X44290000Y-33074000D01*
X44300000Y-32934000D01*
X44320000Y-32854000D01*
X44350000Y-32764000D01*
X44400000Y-32664000D01*
X44465000Y-32569000D01*
X44575000Y-32684000D01*
G37*
X45805000Y-32669000D02*
X45850000Y-32764000D01*
X45880000Y-32839000D01*
X45896203Y-32913809D01*
X45910000Y-33009000D01*
X45910000Y-33134000D01*
X45900000Y-33214000D01*
X45880000Y-33304000D01*
X45850000Y-33384000D01*
X45805000Y-33479000D01*
X45740000Y-33574000D01*
X45620000Y-33454000D01*
X45521172Y-33356666D01*
X45561537Y-33298609D01*
X45600000Y-33194000D01*
X45613603Y-33074000D01*
X45600000Y-32954000D01*
X45560000Y-32844000D01*
X45525000Y-32794000D01*
X45630000Y-32689000D01*
X45740309Y-32574234D01*
X45805000Y-32669000D01*
G36*
X45805000Y-32669000D02*
G01*
X45850000Y-32764000D01*
X45880000Y-32839000D01*
X45896203Y-32913809D01*
X45910000Y-33009000D01*
X45910000Y-33134000D01*
X45900000Y-33214000D01*
X45880000Y-33304000D01*
X45850000Y-33384000D01*
X45805000Y-33479000D01*
X45740000Y-33574000D01*
X45620000Y-33454000D01*
X45521172Y-33356666D01*
X45561537Y-33298609D01*
X45600000Y-33194000D01*
X45613603Y-33074000D01*
X45600000Y-32954000D01*
X45560000Y-32844000D01*
X45525000Y-32794000D01*
X45630000Y-32689000D01*
X45740309Y-32574234D01*
X45805000Y-32669000D01*
G37*
X45240000Y-32274000D02*
X45330000Y-32294000D01*
X45410000Y-32324000D01*
X45510000Y-32374000D01*
X45600000Y-32434000D01*
X45485000Y-32549000D01*
X45382666Y-32647828D01*
X45324609Y-32612463D01*
X45220000Y-32574000D01*
X45100000Y-32560397D01*
X45040000Y-32564000D01*
X44980000Y-32574000D01*
X44925000Y-32589000D01*
X44870000Y-32614000D01*
X44820000Y-32639000D01*
X44725000Y-32544000D01*
X44610234Y-32428691D01*
X44685000Y-32374000D01*
X44790000Y-32324000D01*
X44939809Y-32277797D01*
X45100000Y-32264000D01*
X45240000Y-32274000D01*
G36*
X45240000Y-32274000D02*
G01*
X45330000Y-32294000D01*
X45410000Y-32324000D01*
X45510000Y-32374000D01*
X45600000Y-32434000D01*
X45485000Y-32549000D01*
X45382666Y-32647828D01*
X45324609Y-32612463D01*
X45220000Y-32574000D01*
X45100000Y-32560397D01*
X45040000Y-32564000D01*
X44980000Y-32574000D01*
X44925000Y-32589000D01*
X44870000Y-32614000D01*
X44820000Y-32639000D01*
X44725000Y-32544000D01*
X44610234Y-32428691D01*
X44685000Y-32374000D01*
X44790000Y-32324000D01*
X44939809Y-32277797D01*
X45100000Y-32264000D01*
X45240000Y-32274000D01*
G37*
X45480000Y-33604000D02*
X45594766Y-33719309D01*
X45525000Y-33764000D01*
X45410000Y-33824000D01*
X45260191Y-33870203D01*
X45100000Y-33884000D01*
X44960000Y-33874000D01*
X44880000Y-33854000D01*
X44790000Y-33824000D01*
X44695000Y-33779000D01*
X44600000Y-33714000D01*
X44715000Y-33599000D01*
X44812334Y-33500172D01*
X44875391Y-33535537D01*
X44980000Y-33574000D01*
X45100000Y-33587603D01*
X45220000Y-33574000D01*
X45330000Y-33534000D01*
X45380000Y-33499000D01*
X45480000Y-33604000D01*
G36*
X45480000Y-33604000D02*
G01*
X45594766Y-33719309D01*
X45525000Y-33764000D01*
X45410000Y-33824000D01*
X45260191Y-33870203D01*
X45100000Y-33884000D01*
X44960000Y-33874000D01*
X44880000Y-33854000D01*
X44790000Y-33824000D01*
X44695000Y-33779000D01*
X44600000Y-33714000D01*
X44715000Y-33599000D01*
X44812334Y-33500172D01*
X44875391Y-33535537D01*
X44980000Y-33574000D01*
X45100000Y-33587603D01*
X45220000Y-33574000D01*
X45330000Y-33534000D01*
X45380000Y-33499000D01*
X45480000Y-33604000D01*
G37*
D10*
%TO.C,U5*%
X52750000Y-52600000D02*
X52125000Y-52600000D01*
X52125000Y-52400000D01*
X52750000Y-52400000D01*
X52750000Y-52600000D01*
G36*
X52750000Y-52600000D02*
G01*
X52125000Y-52600000D01*
X52125000Y-52400000D01*
X52750000Y-52400000D01*
X52750000Y-52600000D01*
G37*
X52450000Y-53225000D02*
X51975000Y-53225000D01*
X51975000Y-52875000D01*
X52450000Y-52875000D01*
X52450000Y-53225000D01*
G36*
X52450000Y-53225000D02*
G01*
X51975000Y-53225000D01*
X51975000Y-52875000D01*
X52450000Y-52875000D01*
X52450000Y-53225000D01*
G37*
X52450000Y-52125000D02*
X51975000Y-52125000D01*
X51975000Y-51775000D01*
X52450000Y-51775000D01*
X52450000Y-52125000D01*
G36*
X52450000Y-52125000D02*
G01*
X51975000Y-52125000D01*
X51975000Y-51775000D01*
X52450000Y-51775000D01*
X52450000Y-52125000D01*
G37*
X51775000Y-53225000D02*
X51300000Y-53225000D01*
X51300000Y-52875000D01*
X51775000Y-52875000D01*
X51775000Y-53225000D01*
G36*
X51775000Y-53225000D02*
G01*
X51300000Y-53225000D01*
X51300000Y-52875000D01*
X51775000Y-52875000D01*
X51775000Y-53225000D01*
G37*
X51925000Y-52600000D02*
X51300000Y-52600000D01*
X51300000Y-52400000D01*
X51925000Y-52400000D01*
X51925000Y-52600000D01*
G36*
X51925000Y-52600000D02*
G01*
X51300000Y-52600000D01*
X51300000Y-52400000D01*
X51925000Y-52400000D01*
X51925000Y-52600000D01*
G37*
X51775000Y-52125000D02*
X51300000Y-52125000D01*
X51300000Y-51775000D01*
X51775000Y-51775000D01*
X51775000Y-52125000D01*
G36*
X51775000Y-52125000D02*
G01*
X51300000Y-52125000D01*
X51300000Y-51775000D01*
X51775000Y-51775000D01*
X51775000Y-52125000D01*
G37*
%TD*%
D12*
%TO.C,U4*%
X46500000Y-27400000D03*
X46500000Y-26450000D03*
X46500000Y-25500000D03*
X44130000Y-25500000D03*
X44130000Y-27400000D03*
%TD*%
D13*
%TO.C,U3*%
X52185000Y-25000000D03*
X52685000Y-25000000D03*
X53185000Y-25000000D03*
X53685000Y-25000000D03*
D14*
X54370000Y-25685000D03*
X54370000Y-26185000D03*
X54370000Y-26685000D03*
X54370000Y-27185000D03*
D13*
X53685000Y-27870000D03*
X53185000Y-27870000D03*
X52685000Y-27870000D03*
X52185000Y-27870000D03*
D14*
X51500000Y-27185000D03*
X51500000Y-26685000D03*
X51500000Y-26185000D03*
X51500000Y-25685000D03*
%TD*%
D15*
%TO.C,U1*%
X23650000Y-26570000D03*
X22250000Y-26570000D03*
X20850000Y-26570000D03*
X23650000Y-29370000D03*
X22250000Y-29370000D03*
X20850000Y-29370000D03*
X23650000Y-27970000D03*
X20850000Y-27970000D03*
X22250000Y-27970000D03*
D16*
X32500000Y-20250000D03*
X32500000Y-21520000D03*
X32500000Y-22790000D03*
X32500000Y-24060000D03*
X32500000Y-25330000D03*
X32500000Y-26600000D03*
X32500000Y-27870000D03*
X32500000Y-29140000D03*
X32500000Y-30410000D03*
X32500000Y-31680000D03*
X32500000Y-32950000D03*
X32500000Y-34220000D03*
X32500000Y-35490000D03*
X32500000Y-36760000D03*
D17*
X30735000Y-38010000D03*
X29465000Y-38010000D03*
X28195000Y-38010000D03*
X26925000Y-38010000D03*
X25655000Y-38010000D03*
X24385000Y-38010000D03*
X23115000Y-38010000D03*
X21845000Y-38010000D03*
X20575000Y-38010000D03*
X19305000Y-38010000D03*
X18035000Y-38010000D03*
X16765000Y-38010000D03*
D16*
X15000000Y-36760000D03*
X15000000Y-35490000D03*
X15000000Y-34220000D03*
X15000000Y-32950000D03*
X15000000Y-31680000D03*
X15000000Y-30410000D03*
X15000000Y-29140000D03*
X15000000Y-27870000D03*
X15000000Y-26600000D03*
X15000000Y-25330000D03*
X15000000Y-24060000D03*
X15000000Y-22790000D03*
X15000000Y-21520000D03*
X15000000Y-20250000D03*
%TD*%
D18*
%TO.C,S1*%
X64145000Y-21000000D03*
X64145000Y-19000000D03*
X64145000Y-20000000D03*
D19*
X65500000Y-17000000D03*
X65500000Y-23000000D03*
%TD*%
D20*
%TO.C,MK1*%
X45100000Y-31000000D03*
X46000000Y-31000000D03*
X46000000Y-31822000D03*
X44200000Y-31822000D03*
X44200000Y-31000000D03*
%TD*%
D21*
%TO.C,J1*%
X60250000Y-41075000D03*
X60250000Y-40075000D03*
X60250000Y-38575000D03*
X60250000Y-37575000D03*
D22*
X60250000Y-36925000D03*
X60250000Y-36125000D03*
D21*
X60250000Y-38075000D03*
X60250000Y-39075000D03*
X60250000Y-39575000D03*
X60250000Y-40575000D03*
D22*
X60250000Y-41725000D03*
X60250000Y-42525000D03*
%TD*%
D23*
%TO.C,C5*%
X32425000Y-42000000D03*
X30875000Y-42000000D03*
%TD*%
D24*
%TO.C,R9*%
X17250000Y-42000000D03*
X15600000Y-42000000D03*
%TD*%
D23*
%TO.C,C10*%
X27475000Y-42000000D03*
X25925000Y-42000000D03*
%TD*%
%TO.C,C11*%
X22200000Y-42000000D03*
X20650000Y-42000000D03*
%TD*%
D25*
%TO.C,L1*%
X58150000Y-53500000D03*
X63850000Y-53500000D03*
%TD*%
D23*
%TO.C,C6*%
X53500000Y-59000000D03*
X51950000Y-59000000D03*
%TD*%
%TO.C,C7*%
X58500000Y-59000000D03*
X56950000Y-59000000D03*
%TD*%
D24*
%TO.C,R4*%
X53325000Y-56000000D03*
X51675000Y-56000000D03*
%TD*%
D26*
%TO.C,U2*%
X53000000Y-63800000D03*
X52600000Y-63800000D03*
X52200000Y-63800000D03*
X53000000Y-63400000D03*
X52600000Y-63400000D03*
X52200000Y-63400000D03*
X53000000Y-63000000D03*
X52600000Y-63000000D03*
X52200000Y-63000000D03*
%TD*%
D27*
%TO.C,U5*%
X53475000Y-51750000D03*
X53475000Y-52250000D03*
X53475000Y-52750000D03*
X53475000Y-53250000D03*
%TD*%
D24*
%TO.C,R1*%
X63350000Y-31000000D03*
X65000000Y-31000000D03*
%TD*%
D28*
%TO.C,D1*%
X46030000Y-39500000D03*
X44500000Y-39500000D03*
%TD*%
D24*
%TO.C,R5*%
X51675000Y-49000000D03*
X53325000Y-49000000D03*
%TD*%
D29*
%TO.C,S2*%
X37350000Y-38500000D03*
X41500000Y-38500000D03*
X37350000Y-40650000D03*
X41500000Y-40650000D03*
%TD*%
D23*
%TO.C,C1*%
X57950000Y-31000000D03*
X59500000Y-31000000D03*
%TD*%
D24*
%TO.C,R2*%
X63350000Y-47000000D03*
X65000000Y-47000000D03*
%TD*%
%TO.C,R8*%
X52000000Y-31000000D03*
X53650000Y-31000000D03*
%TD*%
%TO.C,R3*%
X44350000Y-45000000D03*
X46000000Y-45000000D03*
%TD*%
%TO.C,R6*%
X38675000Y-45000000D03*
X40325000Y-45000000D03*
%TD*%
D23*
%TO.C,C4*%
X37950000Y-26500000D03*
X39500000Y-26500000D03*
%TD*%
%TO.C,C9*%
X57950000Y-26275000D03*
X59500000Y-26275000D03*
%TD*%
%TO.C,C8*%
X44450000Y-55500000D03*
X46000000Y-55500000D03*
%TD*%
D24*
%TO.C,R7*%
X52000000Y-22000000D03*
X53650000Y-22000000D03*
%TD*%
D30*
%TO.C,C3*%
X45775000Y-22000000D03*
X44225000Y-22000000D03*
%TD*%
D23*
%TO.C,C2*%
X57950000Y-22000000D03*
X59500000Y-22000000D03*
%TD*%
M02*
