M48
; DRILL file {KiCad 9.0.7} date 2026-02-14T11:30:19+0900
; FORMAT={-:-/ absolute / metric / decimal}
; #@! TF.CreationDate,2026-02-14T11:30:19+09:00
; #@! TF.GenerationSoftware,Kicad,Pcbnew,9.0.7
; #@! TF.FileFunction,Plated,1,2,PTH
FMAT,2
METRIC
; #@! TA.AperFunction,Plated,PTH,ComponentDrill
T1C0.200
; #@! TA.AperFunction,Plated,PTH,ViaDrill
T2C0.300
; #@! TA.AperFunction,Plated,PTH,ComponentDrill
T3C0.600
; #@! TA.AperFunction,Plated,PTH,ComponentDrill
T4C1.000
%
G90
G05
T1
X20.85Y-27.27
X20.85Y-28.67
X21.55Y-26.57
X21.55Y-27.97
X21.55Y-29.37
X22.25Y-27.27
X22.25Y-28.67
X22.95Y-26.57
X22.95Y-27.97
X22.95Y-29.37
X23.65Y-27.27
X23.65Y-28.67
X52.355Y-25.855
X52.355Y-27.015
X52.935Y-26.435
X53.515Y-25.855
X53.515Y-27.015
T2
X13.25Y-22.75
X14.5Y-40.75
X18.75Y-42.0
X22.244Y-43.329
X27.498Y-43.263
X32.433Y-43.223
X33.461Y-40.024
X34.0Y-20.5
X34.25Y-40.624
X34.75Y-41.25
X34.9Y-37.0
X36.215Y-40.656
X37.35Y-37.049
X38.5Y-36.1
X40.25Y-56.75
X40.683Y-26.48
X42.635Y-40.644
X43.0Y-22.0
X43.0Y-53.75
X43.646Y-39.474
X46.0Y-57.0
X47.45Y-34.05
X47.819Y-26.439
X49.625Y-62.875
X50.162Y-61.588
X50.351Y-63.673
X50.5Y-52.0
X50.5Y-60.75
X50.75Y-22.0
X50.75Y-23.75
X51.673Y-50.551
X54.5Y-31.0
X54.5Y-49.0
X54.5Y-59.0
X54.75Y-53.0
X54.75Y-54.5
X55.0Y-22.0
X56.0Y-25.0
X56.0Y-28.85
X56.0Y-31.0
X57.5Y-41.0
X59.0Y-36.0
X59.0Y-39.625
X59.025Y-42.525
X59.051Y-38.5
X59.5Y-59.0
X60.5Y-22.0
X60.5Y-31.0
X60.522Y-26.297
X66.0Y-31.0
X66.0Y-47.0
T4
X42.96Y-63.5
X45.5Y-63.5
X56.96Y-14.5
X59.5Y-14.5
T3
G00X60.28Y-35.0
M15
G01X61.38Y-35.0
M16
G05
G00X60.28Y-43.65
M15
G01X61.38Y-43.65
M16
G05
G00X64.6Y-35.0
M15
G01X65.4Y-35.0
M16
G05
G00X64.6Y-43.65
M15
G01X65.4Y-43.65
M16
G05
M30
