%TF.GenerationSoftware,KiCad,Pcbnew,9.0.7*%
%TF.CreationDate,2026-02-14T11:30:08+09:00*%
%TF.ProjectId,toytalk_demo_v2,746f7974-616c-46b5-9f64-656d6f5f7632,rev?*%
%TF.SameCoordinates,Original*%
%TF.FileFunction,Copper,L2,Bot*%
%TF.FilePolarity,Positive*%
%FSLAX46Y46*%
G04 Gerber Fmt 4.6, Leading zero omitted, Abs format (unit mm)*
G04 Created by KiCad (PCBNEW 9.0.7) date 2026-02-14 11:30:08*
%MOMM*%
%LPD*%
G01*
G04 APERTURE LIST*
%TA.AperFunction,ComponentPad*%
%ADD10C,0.400000*%
%TD*%
%TA.AperFunction,ComponentPad*%
%ADD11O,1.700000X0.900000*%
%TD*%
%TA.AperFunction,ComponentPad*%
%ADD12O,2.000000X0.900000*%
%TD*%
%TA.AperFunction,ComponentPad*%
%ADD13R,1.700000X1.700000*%
%TD*%
%TA.AperFunction,ComponentPad*%
%ADD14C,1.700000*%
%TD*%
%TA.AperFunction,ViaPad*%
%ADD15C,0.600000*%
%TD*%
%TA.AperFunction,Conductor*%
%ADD16C,0.400000*%
%TD*%
%TA.AperFunction,Conductor*%
%ADD17C,0.200000*%
%TD*%
G04 APERTURE END LIST*
D10*
%TO.P,U3,22*%
%TO.N,GND*%
X53515000Y-27015000D03*
%TO.P,U3,21*%
X52355000Y-27015000D03*
%TO.P,U3,20*%
X53515000Y-25855000D03*
%TO.P,U3,19*%
X52355000Y-25855000D03*
%TO.P,U3,18*%
X52935000Y-26435000D03*
%TD*%
%TO.P,U1,41_21*%
%TO.N,GND*%
X22950000Y-29370000D03*
%TO.P,U1,41_20*%
X21550000Y-29370000D03*
%TO.P,U1,41_19*%
X22950000Y-27970000D03*
%TO.P,U1,41_18*%
X21550000Y-27970000D03*
%TO.P,U1,41_17*%
X22950000Y-26570000D03*
%TO.P,U1,41_16*%
X21550000Y-26570000D03*
%TO.P,U1,41_15*%
X23650000Y-28670000D03*
%TO.P,U1,41_14*%
X22250000Y-28670000D03*
%TO.P,U1,41_13*%
X20850000Y-28670000D03*
%TO.P,U1,41_12*%
X23650000Y-27270000D03*
%TO.P,U1,41_11*%
X20850000Y-27270000D03*
%TO.P,U1,41_10*%
X22250000Y-27270000D03*
%TD*%
D11*
%TO.P,J1,S4,SHIELD*%
%TO.N,GND*%
X65000000Y-35000000D03*
%TO.P,J1,S3,SHIELD*%
X65000000Y-43650000D03*
D12*
%TO.P,J1,S2,SHIELD*%
X60830000Y-35000000D03*
%TO.P,J1,S1,SHIELD*%
X60830000Y-43650000D03*
%TD*%
D13*
%TO.P,SP1,1,Pin_1*%
%TO.N,/OUTP*%
X42960000Y-63500000D03*
D14*
%TO.P,SP1,2,Pin_2*%
%TO.N,/OUTN*%
X45500000Y-63500000D03*
%TD*%
D13*
%TO.P,J2,1,Pin_1*%
%TO.N,/VBAT*%
X56960000Y-14500000D03*
D14*
%TO.P,J2,2,Pin_2*%
%TO.N,GND*%
X59500000Y-14500000D03*
%TD*%
D15*
%TO.N,VBUS*%
X56000000Y-31000000D03*
%TO.N,GND*%
X34000000Y-20500000D03*
X50351170Y-63673295D03*
%TO.N,/GPIO5*%
X49625000Y-62875000D03*
%TO.N,GND*%
X47450091Y-34049909D03*
%TO.N,/GPIO20*%
X59000000Y-39625000D03*
%TO.N,/GPIO19*%
X57500000Y-41000000D03*
%TO.N,/GPIO20*%
X59050765Y-38500000D03*
%TO.N,GND*%
X55000000Y-22000000D03*
%TO.N,Net-(U3-ISET)*%
X50750000Y-23750000D03*
X50750000Y-22000000D03*
%TO.N,GND*%
X47819435Y-26439256D03*
%TO.N,Net-(U1-EN)*%
X18750000Y-42000000D03*
X14500000Y-40750000D03*
X13250000Y-22750000D03*
%TO.N,VBUS*%
X56000000Y-25000000D03*
X56000000Y-28850000D03*
%TO.N,/FB*%
X51672923Y-50550841D03*
X54750000Y-53000000D03*
X54750000Y-54500000D03*
%TO.N,/GPIO6*%
X50500000Y-60750000D03*
%TO.N,/GPIO5*%
X50161710Y-61588290D03*
%TO.N,/GPIO3*%
X40250000Y-56750000D03*
X37350000Y-37049265D03*
%TO.N,/GPIO9*%
X38500000Y-36100000D03*
%TO.N,/GPIO20*%
X34900000Y-37000000D03*
%TO.N,/GPIO19*%
X33460712Y-40024000D03*
%TO.N,/GPIO9*%
X34250000Y-40624000D03*
%TO.N,/GPIO3*%
X34750000Y-41250000D03*
%TO.N,/GPIO6*%
X43000000Y-53750000D03*
%TO.N,GND*%
X22243659Y-43329442D03*
X27497867Y-43262933D03*
X32432833Y-43223027D03*
X36214753Y-40655911D03*
X42635086Y-40644088D03*
X40683122Y-26480200D03*
X43645582Y-39474133D03*
X46000000Y-57000000D03*
X59500000Y-59000000D03*
X54500000Y-59000000D03*
X50500000Y-52000000D03*
X54500000Y-49000000D03*
X66000000Y-47000000D03*
X59025000Y-42525000D03*
X43000000Y-22000000D03*
X60500000Y-22000000D03*
X66000000Y-31000000D03*
X60500000Y-31000000D03*
X54500000Y-31000000D03*
X59000000Y-36000000D03*
X60522301Y-26296703D03*
%TD*%
D16*
%TO.N,VBUS*%
X56000000Y-29000000D02*
X56000000Y-31000000D01*
X56000000Y-29000000D02*
X56000000Y-25000000D01*
D17*
X56000000Y-29000000D02*
X56000000Y-28850000D01*
%TO.N,/GPIO5*%
X49625000Y-62125000D02*
X50161710Y-61588290D01*
X49625000Y-62875000D02*
X49625000Y-62125000D01*
%TO.N,/GPIO20*%
X58000000Y-36500000D02*
X58000000Y-38625000D01*
X58000000Y-38625000D02*
X59000000Y-39625000D01*
X58000000Y-36500000D02*
X56500000Y-35000000D01*
X56500000Y-35000000D02*
X36900000Y-35000000D01*
X59050765Y-37550765D02*
X58000000Y-36500000D01*
X59050765Y-38500000D02*
X59050765Y-37550765D01*
X36900000Y-35000000D02*
X34900000Y-37000000D01*
%TO.N,/GPIO19*%
X57500000Y-39500000D02*
X57500000Y-40000000D01*
X57500000Y-39500000D02*
X57500000Y-41000000D01*
X57500000Y-38476000D02*
X57500000Y-39500000D01*
X54524000Y-35500000D02*
X57500000Y-38476000D01*
%TO.N,Net-(U3-ISET)*%
X50750000Y-22000000D02*
X50750000Y-23750000D01*
%TO.N,Net-(U1-EN)*%
X17500000Y-40750000D02*
X18750000Y-42000000D01*
X14500000Y-40750000D02*
X17500000Y-40750000D01*
X13250000Y-39500000D02*
X14500000Y-40750000D01*
X13250000Y-22750000D02*
X13250000Y-39500000D01*
%TO.N,/FB*%
X52300841Y-50550841D02*
X54750000Y-53000000D01*
X51672923Y-50550841D02*
X52300841Y-50550841D01*
X54750000Y-54500000D02*
X54750000Y-53000000D01*
%TO.N,/GPIO6*%
X48750000Y-59000000D02*
X50500000Y-60750000D01*
X46500000Y-53750000D02*
X48750000Y-56000000D01*
X48750000Y-56000000D02*
X48750000Y-59000000D01*
X43000000Y-53750000D02*
X46500000Y-53750000D01*
%TO.N,/GPIO5*%
X50000000Y-61750000D02*
X50161710Y-61588290D01*
%TO.N,/GPIO3*%
X34750000Y-51250000D02*
X40250000Y-56750000D01*
X34750000Y-41250000D02*
X34750000Y-51250000D01*
X37300735Y-37000000D02*
X37350000Y-37049265D01*
X37250000Y-37000000D02*
X37300735Y-37000000D01*
%TO.N,/GPIO9*%
X37400000Y-36100000D02*
X38500000Y-36100000D01*
X36750000Y-36750000D02*
X37400000Y-36100000D01*
%TO.N,/GPIO19*%
X37432900Y-35500000D02*
X54524000Y-35500000D01*
X36250000Y-36682900D02*
X37432900Y-35500000D01*
X36250000Y-37250000D02*
X36250000Y-36682900D01*
X33460712Y-40024000D02*
X33476000Y-40024000D01*
%TO.N,/GPIO9*%
X36750000Y-38124000D02*
X36750000Y-36750000D01*
X34250000Y-40624000D02*
X36750000Y-38124000D01*
%TO.N,/GPIO3*%
X34750000Y-41250000D02*
X37250000Y-38750000D01*
X37250000Y-38750000D02*
X37250000Y-37000000D01*
%TO.N,/GPIO19*%
X33476000Y-40024000D02*
X36250000Y-37250000D01*
%TD*%
%TA.AperFunction,Conductor*%
%TO.N,GND*%
G36*
X66442539Y-12520185D02*
G01*
X66488294Y-12572989D01*
X66499500Y-12624500D01*
X66499500Y-34548567D01*
X66479815Y-34615606D01*
X66427011Y-34661361D01*
X66357853Y-34671305D01*
X66294297Y-34642280D01*
X66260939Y-34596020D01*
X66241880Y-34550009D01*
X66241875Y-34549999D01*
X66137913Y-34394410D01*
X66137910Y-34394406D01*
X66005593Y-34262089D01*
X66005589Y-34262086D01*
X65850000Y-34158124D01*
X65849991Y-34158119D01*
X65677105Y-34086508D01*
X65677097Y-34086506D01*
X65493570Y-34050000D01*
X65250000Y-34050000D01*
X65250000Y-34700000D01*
X64750000Y-34700000D01*
X64750000Y-34050000D01*
X64506430Y-34050000D01*
X64322902Y-34086506D01*
X64322894Y-34086508D01*
X64150008Y-34158119D01*
X64149999Y-34158124D01*
X63994410Y-34262086D01*
X63994406Y-34262089D01*
X63862089Y-34394406D01*
X63862086Y-34394410D01*
X63758124Y-34549999D01*
X63758119Y-34550008D01*
X63686507Y-34722896D01*
X63686506Y-34722899D01*
X63681115Y-34749999D01*
X63681116Y-34750000D01*
X64433012Y-34750000D01*
X64415795Y-34759940D01*
X64359940Y-34815795D01*
X64320444Y-34884204D01*
X64300000Y-34960504D01*
X64300000Y-35039496D01*
X64320444Y-35115796D01*
X64359940Y-35184205D01*
X64415795Y-35240060D01*
X64433012Y-35250000D01*
X63681116Y-35250000D01*
X63686506Y-35277100D01*
X63686507Y-35277103D01*
X63758119Y-35449991D01*
X63758124Y-35450000D01*
X63862086Y-35605589D01*
X63862089Y-35605593D01*
X63994406Y-35737910D01*
X63994410Y-35737913D01*
X64149999Y-35841875D01*
X64150008Y-35841880D01*
X64322894Y-35913491D01*
X64322902Y-35913493D01*
X64506428Y-35949999D01*
X64506431Y-35950000D01*
X64750000Y-35950000D01*
X64750000Y-35300000D01*
X65250000Y-35300000D01*
X65250000Y-35950000D01*
X65493569Y-35950000D01*
X65493571Y-35949999D01*
X65677097Y-35913493D01*
X65677105Y-35913491D01*
X65849991Y-35841880D01*
X65850000Y-35841875D01*
X66005589Y-35737913D01*
X66005593Y-35737910D01*
X66137910Y-35605593D01*
X66137913Y-35605589D01*
X66241875Y-35450000D01*
X66241882Y-35449987D01*
X66260939Y-35403980D01*
X66304780Y-35349576D01*
X66371074Y-35327511D01*
X66438773Y-35344790D01*
X66486384Y-35395927D01*
X66499500Y-35451432D01*
X66499500Y-43198567D01*
X66479815Y-43265606D01*
X66427011Y-43311361D01*
X66357853Y-43321305D01*
X66294297Y-43292280D01*
X66260939Y-43246020D01*
X66241880Y-43200009D01*
X66241875Y-43199999D01*
X66137913Y-43044410D01*
X66137910Y-43044406D01*
X66005593Y-42912089D01*
X66005589Y-42912086D01*
X65850000Y-42808124D01*
X65849991Y-42808119D01*
X65677105Y-42736508D01*
X65677097Y-42736506D01*
X65493570Y-42700000D01*
X65250000Y-42700000D01*
X65250000Y-43350000D01*
X64750000Y-43350000D01*
X64750000Y-42700000D01*
X64506430Y-42700000D01*
X64322902Y-42736506D01*
X64322894Y-42736508D01*
X64150008Y-42808119D01*
X64149999Y-42808124D01*
X63994410Y-42912086D01*
X63994406Y-42912089D01*
X63862089Y-43044406D01*
X63862086Y-43044410D01*
X63758124Y-43199999D01*
X63758119Y-43200008D01*
X63686507Y-43372896D01*
X63686506Y-43372899D01*
X63681115Y-43399999D01*
X63681116Y-43400000D01*
X64433012Y-43400000D01*
X64415795Y-43409940D01*
X64359940Y-43465795D01*
X64320444Y-43534204D01*
X64300000Y-43610504D01*
X64300000Y-43689496D01*
X64320444Y-43765796D01*
X64359940Y-43834205D01*
X64415795Y-43890060D01*
X64433012Y-43900000D01*
X63681116Y-43900000D01*
X63686506Y-43927100D01*
X63686507Y-43927103D01*
X63758119Y-44099991D01*
X63758124Y-44100000D01*
X63862086Y-44255589D01*
X63862089Y-44255593D01*
X63994406Y-44387910D01*
X63994410Y-44387913D01*
X64149999Y-44491875D01*
X64150008Y-44491880D01*
X64322894Y-44563491D01*
X64322902Y-44563493D01*
X64506428Y-44599999D01*
X64506431Y-44600000D01*
X64750000Y-44600000D01*
X64750000Y-43950000D01*
X65250000Y-43950000D01*
X65250000Y-44600000D01*
X65493569Y-44600000D01*
X65493571Y-44599999D01*
X65677097Y-44563493D01*
X65677105Y-44563491D01*
X65849991Y-44491880D01*
X65850000Y-44491875D01*
X66005589Y-44387913D01*
X66005593Y-44387910D01*
X66137910Y-44255593D01*
X66137913Y-44255589D01*
X66241875Y-44100000D01*
X66241882Y-44099987D01*
X66260939Y-44053980D01*
X66304780Y-43999576D01*
X66371074Y-43977511D01*
X66438773Y-43994790D01*
X66486384Y-44045927D01*
X66499500Y-44101432D01*
X66499500Y-66375500D01*
X66479815Y-66442539D01*
X66427011Y-66488294D01*
X66375500Y-66499500D01*
X12624500Y-66499500D01*
X12557461Y-66479815D01*
X12511706Y-66427011D01*
X12500500Y-66375500D01*
X12500500Y-62602135D01*
X41609500Y-62602135D01*
X41609500Y-64397870D01*
X41609501Y-64397876D01*
X41615908Y-64457483D01*
X41666202Y-64592328D01*
X41666206Y-64592335D01*
X41752452Y-64707544D01*
X41752455Y-64707547D01*
X41867664Y-64793793D01*
X41867671Y-64793797D01*
X42002517Y-64844091D01*
X42002516Y-64844091D01*
X42009444Y-64844835D01*
X42062127Y-64850500D01*
X43857872Y-64850499D01*
X43917483Y-64844091D01*
X44052331Y-64793796D01*
X44167546Y-64707546D01*
X44253796Y-64592331D01*
X44302810Y-64460916D01*
X44344681Y-64404984D01*
X44410145Y-64380566D01*
X44478418Y-64395417D01*
X44506673Y-64416569D01*
X44620213Y-64530109D01*
X44792179Y-64655048D01*
X44792181Y-64655049D01*
X44792184Y-64655051D01*
X44981588Y-64751557D01*
X45183757Y-64817246D01*
X45393713Y-64850500D01*
X45393714Y-64850500D01*
X45606286Y-64850500D01*
X45606287Y-64850500D01*
X45816243Y-64817246D01*
X46018412Y-64751557D01*
X46207816Y-64655051D01*
X46294138Y-64592335D01*
X46379786Y-64530109D01*
X46379788Y-64530106D01*
X46379792Y-64530104D01*
X46530104Y-64379792D01*
X46530106Y-64379788D01*
X46530109Y-64379786D01*
X46655048Y-64207820D01*
X46655047Y-64207820D01*
X46655051Y-64207816D01*
X46751557Y-64018412D01*
X46817246Y-63816243D01*
X46850500Y-63606287D01*
X46850500Y-63393713D01*
X46817246Y-63183757D01*
X46751557Y-62981588D01*
X46655051Y-62792184D01*
X46655049Y-62792181D01*
X46655048Y-62792179D01*
X46530109Y-62620213D01*
X46379786Y-62469890D01*
X46207820Y-62344951D01*
X46018414Y-62248444D01*
X46018413Y-62248443D01*
X46018412Y-62248443D01*
X45816243Y-62182754D01*
X45816241Y-62182753D01*
X45816240Y-62182753D01*
X45654957Y-62157208D01*
X45606287Y-62149500D01*
X45393713Y-62149500D01*
X45345042Y-62157208D01*
X45183760Y-62182753D01*
X44981585Y-62248444D01*
X44792179Y-62344951D01*
X44620215Y-62469889D01*
X44506673Y-62583431D01*
X44445350Y-62616915D01*
X44375658Y-62611931D01*
X44319725Y-62570059D01*
X44302810Y-62539082D01*
X44253797Y-62407671D01*
X44253793Y-62407664D01*
X44167547Y-62292455D01*
X44167544Y-62292452D01*
X44052335Y-62206206D01*
X44052328Y-62206202D01*
X43917482Y-62155908D01*
X43917483Y-62155908D01*
X43857883Y-62149501D01*
X43857881Y-62149500D01*
X43857873Y-62149500D01*
X43857864Y-62149500D01*
X42062129Y-62149500D01*
X42062123Y-62149501D01*
X42002516Y-62155908D01*
X41867671Y-62206202D01*
X41867664Y-62206206D01*
X41752455Y-62292452D01*
X41752452Y-62292455D01*
X41666206Y-62407664D01*
X41666202Y-62407671D01*
X41615908Y-62542517D01*
X41609501Y-62602116D01*
X41609500Y-62602135D01*
X12500500Y-62602135D01*
X12500500Y-60064071D01*
X19349499Y-60064071D01*
X19374497Y-60189738D01*
X19374499Y-60189744D01*
X19423533Y-60308124D01*
X19423538Y-60308133D01*
X19494723Y-60414668D01*
X19494726Y-60414672D01*
X19585327Y-60505273D01*
X19585331Y-60505276D01*
X19691866Y-60576461D01*
X19691872Y-60576464D01*
X19691873Y-60576465D01*
X19810256Y-60625501D01*
X19810260Y-60625501D01*
X19810261Y-60625502D01*
X19935928Y-60650500D01*
X19935931Y-60650500D01*
X20064071Y-60650500D01*
X20148615Y-60633682D01*
X20189744Y-60625501D01*
X20308127Y-60576465D01*
X20414669Y-60505276D01*
X20505276Y-60414669D01*
X20576465Y-60308127D01*
X20625501Y-60189744D01*
X20650500Y-60064071D01*
X23849499Y-60064071D01*
X23874497Y-60189738D01*
X23874499Y-60189744D01*
X23923533Y-60308124D01*
X23923538Y-60308133D01*
X23994723Y-60414668D01*
X23994726Y-60414672D01*
X24085327Y-60505273D01*
X24085331Y-60505276D01*
X24191866Y-60576461D01*
X24191872Y-60576464D01*
X24191873Y-60576465D01*
X24310256Y-60625501D01*
X24310260Y-60625501D01*
X24310261Y-60625502D01*
X24435928Y-60650500D01*
X24435931Y-60650500D01*
X24564071Y-60650500D01*
X24648615Y-60633682D01*
X24689744Y-60625501D01*
X24808127Y-60576465D01*
X24914669Y-60505276D01*
X25005276Y-60414669D01*
X25076465Y-60308127D01*
X25125501Y-60189744D01*
X25150500Y-60064071D01*
X27849499Y-60064071D01*
X27874497Y-60189738D01*
X27874499Y-60189744D01*
X27923533Y-60308124D01*
X27923538Y-60308133D01*
X27994723Y-60414668D01*
X27994726Y-60414672D01*
X28085327Y-60505273D01*
X28085331Y-60505276D01*
X28191866Y-60576461D01*
X28191872Y-60576464D01*
X28191873Y-60576465D01*
X28310256Y-60625501D01*
X28310260Y-60625501D01*
X28310261Y-60625502D01*
X28435928Y-60650500D01*
X28435931Y-60650500D01*
X28564071Y-60650500D01*
X28648615Y-60633682D01*
X28689744Y-60625501D01*
X28808127Y-60576465D01*
X28914669Y-60505276D01*
X29005276Y-60414669D01*
X29076465Y-60308127D01*
X29125501Y-60189744D01*
X29150500Y-60064069D01*
X29150500Y-59935931D01*
X29150500Y-59935928D01*
X29125502Y-59810261D01*
X29125501Y-59810260D01*
X29125501Y-59810256D01*
X29076465Y-59691873D01*
X29076464Y-59691872D01*
X29076461Y-59691866D01*
X29005276Y-59585331D01*
X29005273Y-59585327D01*
X28914672Y-59494726D01*
X28914668Y-59494723D01*
X28808133Y-59423538D01*
X28808124Y-59423533D01*
X28689744Y-59374499D01*
X28689738Y-59374497D01*
X28564071Y-59349500D01*
X28564069Y-59349500D01*
X28435931Y-59349500D01*
X28435929Y-59349500D01*
X28310261Y-59374497D01*
X28310255Y-59374499D01*
X28191875Y-59423533D01*
X28191866Y-59423538D01*
X28085331Y-59494723D01*
X28085327Y-59494726D01*
X27994726Y-59585327D01*
X27994723Y-59585331D01*
X27923538Y-59691866D01*
X27923533Y-59691875D01*
X27874499Y-59810255D01*
X27874497Y-59810261D01*
X27849500Y-59935928D01*
X27849500Y-59935931D01*
X27849500Y-60064069D01*
X27849500Y-60064071D01*
X27849499Y-60064071D01*
X25150500Y-60064071D01*
X25150500Y-60064069D01*
X25150500Y-59935931D01*
X25150500Y-59935928D01*
X25125502Y-59810261D01*
X25125501Y-59810260D01*
X25125501Y-59810256D01*
X25076465Y-59691873D01*
X25076464Y-59691872D01*
X25076461Y-59691866D01*
X25005276Y-59585331D01*
X25005273Y-59585327D01*
X24914672Y-59494726D01*
X24914668Y-59494723D01*
X24808133Y-59423538D01*
X24808124Y-59423533D01*
X24689744Y-59374499D01*
X24689738Y-59374497D01*
X24564071Y-59349500D01*
X24564069Y-59349500D01*
X24435931Y-59349500D01*
X24435929Y-59349500D01*
X24310261Y-59374497D01*
X24310255Y-59374499D01*
X24191875Y-59423533D01*
X24191866Y-59423538D01*
X24085331Y-59494723D01*
X24085327Y-59494726D01*
X23994726Y-59585327D01*
X23994723Y-59585331D01*
X23923538Y-59691866D01*
X23923533Y-59691875D01*
X23874499Y-59810255D01*
X23874497Y-59810261D01*
X23849500Y-59935928D01*
X23849500Y-59935931D01*
X23849500Y-60064069D01*
X23849500Y-60064071D01*
X23849499Y-60064071D01*
X20650500Y-60064071D01*
X20650500Y-60064069D01*
X20650500Y-59935931D01*
X20650500Y-59935928D01*
X20625502Y-59810261D01*
X20625501Y-59810260D01*
X20625501Y-59810256D01*
X20576465Y-59691873D01*
X20576464Y-59691872D01*
X20576461Y-59691866D01*
X20505276Y-59585331D01*
X20505273Y-59585327D01*
X20414672Y-59494726D01*
X20414668Y-59494723D01*
X20308133Y-59423538D01*
X20308124Y-59423533D01*
X20189744Y-59374499D01*
X20189738Y-59374497D01*
X20064071Y-59349500D01*
X20064069Y-59349500D01*
X19935931Y-59349500D01*
X19935929Y-59349500D01*
X19810261Y-59374497D01*
X19810255Y-59374499D01*
X19691875Y-59423533D01*
X19691866Y-59423538D01*
X19585331Y-59494723D01*
X19585327Y-59494726D01*
X19494726Y-59585327D01*
X19494723Y-59585331D01*
X19423538Y-59691866D01*
X19423533Y-59691875D01*
X19374499Y-59810255D01*
X19374497Y-59810261D01*
X19349500Y-59935928D01*
X19349500Y-59935931D01*
X19349500Y-60064069D01*
X19349500Y-60064071D01*
X19349499Y-60064071D01*
X12500500Y-60064071D01*
X12500500Y-55564071D01*
X19349499Y-55564071D01*
X19374497Y-55689738D01*
X19374499Y-55689744D01*
X19423533Y-55808124D01*
X19423538Y-55808133D01*
X19494723Y-55914668D01*
X19494726Y-55914672D01*
X19585327Y-56005273D01*
X19585331Y-56005276D01*
X19691866Y-56076461D01*
X19691872Y-56076464D01*
X19691873Y-56076465D01*
X19810256Y-56125501D01*
X19810260Y-56125501D01*
X19810261Y-56125502D01*
X19935928Y-56150500D01*
X19935931Y-56150500D01*
X20064071Y-56150500D01*
X20176125Y-56128210D01*
X20189744Y-56125501D01*
X20308127Y-56076465D01*
X20414669Y-56005276D01*
X20505276Y-55914669D01*
X20576465Y-55808127D01*
X20625501Y-55689744D01*
X20650500Y-55564071D01*
X23849499Y-55564071D01*
X23874497Y-55689738D01*
X23874499Y-55689744D01*
X23923533Y-55808124D01*
X23923538Y-55808133D01*
X23994723Y-55914668D01*
X23994726Y-55914672D01*
X24085327Y-56005273D01*
X24085331Y-56005276D01*
X24191866Y-56076461D01*
X24191872Y-56076464D01*
X24191873Y-56076465D01*
X24310256Y-56125501D01*
X24310260Y-56125501D01*
X24310261Y-56125502D01*
X24435928Y-56150500D01*
X24435931Y-56150500D01*
X24564071Y-56150500D01*
X24676125Y-56128210D01*
X24689744Y-56125501D01*
X24808127Y-56076465D01*
X24914669Y-56005276D01*
X25005276Y-55914669D01*
X25076465Y-55808127D01*
X25125501Y-55689744D01*
X25150500Y-55564071D01*
X27849499Y-55564071D01*
X27874497Y-55689738D01*
X27874499Y-55689744D01*
X27923533Y-55808124D01*
X27923538Y-55808133D01*
X27994723Y-55914668D01*
X27994726Y-55914672D01*
X28085327Y-56005273D01*
X28085331Y-56005276D01*
X28191866Y-56076461D01*
X28191872Y-56076464D01*
X28191873Y-56076465D01*
X28310256Y-56125501D01*
X28310260Y-56125501D01*
X28310261Y-56125502D01*
X28435928Y-56150500D01*
X28435931Y-56150500D01*
X28564071Y-56150500D01*
X28676125Y-56128210D01*
X28689744Y-56125501D01*
X28808127Y-56076465D01*
X28914669Y-56005276D01*
X29005276Y-55914669D01*
X29076465Y-55808127D01*
X29125501Y-55689744D01*
X29150500Y-55564069D01*
X29150500Y-55435931D01*
X29150500Y-55435928D01*
X29125502Y-55310261D01*
X29125501Y-55310260D01*
X29125501Y-55310256D01*
X29083724Y-55209397D01*
X29076466Y-55191875D01*
X29076461Y-55191866D01*
X29005276Y-55085331D01*
X29005273Y-55085327D01*
X28914672Y-54994726D01*
X28914668Y-54994723D01*
X28808133Y-54923538D01*
X28808124Y-54923533D01*
X28689744Y-54874499D01*
X28689738Y-54874497D01*
X28564071Y-54849500D01*
X28564069Y-54849500D01*
X28435931Y-54849500D01*
X28435929Y-54849500D01*
X28310261Y-54874497D01*
X28310255Y-54874499D01*
X28191875Y-54923533D01*
X28191866Y-54923538D01*
X28085331Y-54994723D01*
X28085327Y-54994726D01*
X27994726Y-55085327D01*
X27994723Y-55085331D01*
X27923538Y-55191866D01*
X27923533Y-55191875D01*
X27874499Y-55310255D01*
X27874497Y-55310261D01*
X27849500Y-55435928D01*
X27849500Y-55435931D01*
X27849500Y-55564069D01*
X27849500Y-55564071D01*
X27849499Y-55564071D01*
X25150500Y-55564071D01*
X25150500Y-55564069D01*
X25150500Y-55435931D01*
X25150500Y-55435928D01*
X25125502Y-55310261D01*
X25125501Y-55310260D01*
X25125501Y-55310256D01*
X25083724Y-55209397D01*
X25076466Y-55191875D01*
X25076461Y-55191866D01*
X25005276Y-55085331D01*
X25005273Y-55085327D01*
X24914672Y-54994726D01*
X24914668Y-54994723D01*
X24808133Y-54923538D01*
X24808124Y-54923533D01*
X24689744Y-54874499D01*
X24689738Y-54874497D01*
X24564071Y-54849500D01*
X24564069Y-54849500D01*
X24435931Y-54849500D01*
X24435929Y-54849500D01*
X24310261Y-54874497D01*
X24310255Y-54874499D01*
X24191875Y-54923533D01*
X24191866Y-54923538D01*
X24085331Y-54994723D01*
X24085327Y-54994726D01*
X23994726Y-55085327D01*
X23994723Y-55085331D01*
X23923538Y-55191866D01*
X23923533Y-55191875D01*
X23874499Y-55310255D01*
X23874497Y-55310261D01*
X23849500Y-55435928D01*
X23849500Y-55435931D01*
X23849500Y-55564069D01*
X23849500Y-55564071D01*
X23849499Y-55564071D01*
X20650500Y-55564071D01*
X20650500Y-55564069D01*
X20650500Y-55435931D01*
X20650500Y-55435928D01*
X20625502Y-55310261D01*
X20625501Y-55310260D01*
X20625501Y-55310256D01*
X20583724Y-55209397D01*
X20576466Y-55191875D01*
X20576461Y-55191866D01*
X20505276Y-55085331D01*
X20505273Y-55085327D01*
X20414672Y-54994726D01*
X20414668Y-54994723D01*
X20308133Y-54923538D01*
X20308124Y-54923533D01*
X20189744Y-54874499D01*
X20189738Y-54874497D01*
X20064071Y-54849500D01*
X20064069Y-54849500D01*
X19935931Y-54849500D01*
X19935929Y-54849500D01*
X19810261Y-54874497D01*
X19810255Y-54874499D01*
X19691875Y-54923533D01*
X19691866Y-54923538D01*
X19585331Y-54994723D01*
X19585327Y-54994726D01*
X19494726Y-55085327D01*
X19494723Y-55085331D01*
X19423538Y-55191866D01*
X19423533Y-55191875D01*
X19374499Y-55310255D01*
X19374497Y-55310261D01*
X19349500Y-55435928D01*
X19349500Y-55435931D01*
X19349500Y-55564069D01*
X19349500Y-55564071D01*
X19349499Y-55564071D01*
X12500500Y-55564071D01*
X12500500Y-50564071D01*
X19349499Y-50564071D01*
X19374497Y-50689738D01*
X19374499Y-50689744D01*
X19423533Y-50808124D01*
X19423538Y-50808133D01*
X19494723Y-50914668D01*
X19494726Y-50914672D01*
X19585327Y-51005273D01*
X19585331Y-51005276D01*
X19691866Y-51076461D01*
X19691872Y-51076464D01*
X19691873Y-51076465D01*
X19810256Y-51125501D01*
X19810260Y-51125501D01*
X19810261Y-51125502D01*
X19935928Y-51150500D01*
X19935931Y-51150500D01*
X20064071Y-51150500D01*
X20148615Y-51133682D01*
X20189744Y-51125501D01*
X20308127Y-51076465D01*
X20414669Y-51005276D01*
X20505276Y-50914669D01*
X20576465Y-50808127D01*
X20625501Y-50689744D01*
X20650500Y-50564071D01*
X23849499Y-50564071D01*
X23874497Y-50689738D01*
X23874499Y-50689744D01*
X23923533Y-50808124D01*
X23923538Y-50808133D01*
X23994723Y-50914668D01*
X23994726Y-50914672D01*
X24085327Y-51005273D01*
X24085331Y-51005276D01*
X24191866Y-51076461D01*
X24191872Y-51076464D01*
X24191873Y-51076465D01*
X24310256Y-51125501D01*
X24310260Y-51125501D01*
X24310261Y-51125502D01*
X24435928Y-51150500D01*
X24435931Y-51150500D01*
X24564071Y-51150500D01*
X24648615Y-51133682D01*
X24689744Y-51125501D01*
X24808127Y-51076465D01*
X24914669Y-51005276D01*
X25005276Y-50914669D01*
X25076465Y-50808127D01*
X25125501Y-50689744D01*
X25150500Y-50564071D01*
X27849499Y-50564071D01*
X27874497Y-50689738D01*
X27874499Y-50689744D01*
X27923533Y-50808124D01*
X27923538Y-50808133D01*
X27994723Y-50914668D01*
X27994726Y-50914672D01*
X28085327Y-51005273D01*
X28085331Y-51005276D01*
X28191866Y-51076461D01*
X28191872Y-51076464D01*
X28191873Y-51076465D01*
X28310256Y-51125501D01*
X28310260Y-51125501D01*
X28310261Y-51125502D01*
X28435928Y-51150500D01*
X28435931Y-51150500D01*
X28564071Y-51150500D01*
X28648615Y-51133682D01*
X28689744Y-51125501D01*
X28808127Y-51076465D01*
X28914669Y-51005276D01*
X29005276Y-50914669D01*
X29076465Y-50808127D01*
X29125501Y-50689744D01*
X29150500Y-50564069D01*
X29150500Y-50435931D01*
X29150500Y-50435928D01*
X29125502Y-50310261D01*
X29125501Y-50310260D01*
X29125501Y-50310256D01*
X29076465Y-50191873D01*
X29076464Y-50191872D01*
X29076461Y-50191866D01*
X29005276Y-50085331D01*
X29005273Y-50085327D01*
X28914672Y-49994726D01*
X28914668Y-49994723D01*
X28808133Y-49923538D01*
X28808124Y-49923533D01*
X28689744Y-49874499D01*
X28689738Y-49874497D01*
X28564071Y-49849500D01*
X28564069Y-49849500D01*
X28435931Y-49849500D01*
X28435929Y-49849500D01*
X28310261Y-49874497D01*
X28310255Y-49874499D01*
X28191875Y-49923533D01*
X28191866Y-49923538D01*
X28085331Y-49994723D01*
X28085327Y-49994726D01*
X27994726Y-50085327D01*
X27994723Y-50085331D01*
X27923538Y-50191866D01*
X27923533Y-50191875D01*
X27874499Y-50310255D01*
X27874497Y-50310261D01*
X27849500Y-50435928D01*
X27849500Y-50435931D01*
X27849500Y-50564069D01*
X27849500Y-50564071D01*
X27849499Y-50564071D01*
X25150500Y-50564071D01*
X25150500Y-50564069D01*
X25150500Y-50435931D01*
X25150500Y-50435928D01*
X25125502Y-50310261D01*
X25125501Y-50310260D01*
X25125501Y-50310256D01*
X25076465Y-50191873D01*
X25076464Y-50191872D01*
X25076461Y-50191866D01*
X25005276Y-50085331D01*
X25005273Y-50085327D01*
X24914672Y-49994726D01*
X24914668Y-49994723D01*
X24808133Y-49923538D01*
X24808124Y-49923533D01*
X24689744Y-49874499D01*
X24689738Y-49874497D01*
X24564071Y-49849500D01*
X24564069Y-49849500D01*
X24435931Y-49849500D01*
X24435929Y-49849500D01*
X24310261Y-49874497D01*
X24310255Y-49874499D01*
X24191875Y-49923533D01*
X24191866Y-49923538D01*
X24085331Y-49994723D01*
X24085327Y-49994726D01*
X23994726Y-50085327D01*
X23994723Y-50085331D01*
X23923538Y-50191866D01*
X23923533Y-50191875D01*
X23874499Y-50310255D01*
X23874497Y-50310261D01*
X23849500Y-50435928D01*
X23849500Y-50435931D01*
X23849500Y-50564069D01*
X23849500Y-50564071D01*
X23849499Y-50564071D01*
X20650500Y-50564071D01*
X20650500Y-50564069D01*
X20650500Y-50435931D01*
X20650500Y-50435928D01*
X20625502Y-50310261D01*
X20625501Y-50310260D01*
X20625501Y-50310256D01*
X20576465Y-50191873D01*
X20576464Y-50191872D01*
X20576461Y-50191866D01*
X20505276Y-50085331D01*
X20505273Y-50085327D01*
X20414672Y-49994726D01*
X20414668Y-49994723D01*
X20308133Y-49923538D01*
X20308124Y-49923533D01*
X20189744Y-49874499D01*
X20189738Y-49874497D01*
X20064071Y-49849500D01*
X20064069Y-49849500D01*
X19935931Y-49849500D01*
X19935929Y-49849500D01*
X19810261Y-49874497D01*
X19810255Y-49874499D01*
X19691875Y-49923533D01*
X19691866Y-49923538D01*
X19585331Y-49994723D01*
X19585327Y-49994726D01*
X19494726Y-50085327D01*
X19494723Y-50085331D01*
X19423538Y-50191866D01*
X19423533Y-50191875D01*
X19374499Y-50310255D01*
X19374497Y-50310261D01*
X19349500Y-50435928D01*
X19349500Y-50435931D01*
X19349500Y-50564069D01*
X19349500Y-50564071D01*
X19349499Y-50564071D01*
X12500500Y-50564071D01*
X12500500Y-39865602D01*
X12520185Y-39798563D01*
X12572989Y-39752808D01*
X12642147Y-39742864D01*
X12705703Y-39771889D01*
X12731888Y-39803603D01*
X12769479Y-39868715D01*
X12888349Y-39987585D01*
X12888355Y-39987590D01*
X13665425Y-40764660D01*
X13698910Y-40825983D01*
X13699361Y-40828149D01*
X13730261Y-40983491D01*
X13730264Y-40983501D01*
X13790602Y-41129172D01*
X13790609Y-41129185D01*
X13878210Y-41260288D01*
X13878213Y-41260292D01*
X13989707Y-41371786D01*
X13989711Y-41371789D01*
X14120814Y-41459390D01*
X14120827Y-41459397D01*
X14266498Y-41519735D01*
X14266503Y-41519737D01*
X14421153Y-41550499D01*
X14421156Y-41550500D01*
X14421158Y-41550500D01*
X14578844Y-41550500D01*
X14578845Y-41550499D01*
X14733497Y-41519737D01*
X14879179Y-41459394D01*
X14879185Y-41459390D01*
X15010875Y-41371398D01*
X15077553Y-41350520D01*
X15079766Y-41350500D01*
X17199903Y-41350500D01*
X17266942Y-41370185D01*
X17287584Y-41386819D01*
X17915425Y-42014660D01*
X17948910Y-42075983D01*
X17949361Y-42078149D01*
X17980261Y-42233491D01*
X17980264Y-42233501D01*
X18040602Y-42379172D01*
X18040609Y-42379185D01*
X18128210Y-42510288D01*
X18128213Y-42510292D01*
X18239707Y-42621786D01*
X18239711Y-42621789D01*
X18370814Y-42709390D01*
X18370827Y-42709397D01*
X18506274Y-42765500D01*
X18516503Y-42769737D01*
X18671153Y-42800499D01*
X18671156Y-42800500D01*
X18671158Y-42800500D01*
X18828844Y-42800500D01*
X18828845Y-42800499D01*
X18983497Y-42769737D01*
X19129179Y-42709394D01*
X19260289Y-42621789D01*
X19371789Y-42510289D01*
X19459394Y-42379179D01*
X19519737Y-42233497D01*
X19550500Y-42078842D01*
X19550500Y-41921158D01*
X19550500Y-41921155D01*
X19550499Y-41921153D01*
X19541713Y-41876982D01*
X19519737Y-41766503D01*
X19493026Y-41702016D01*
X19459397Y-41620827D01*
X19459390Y-41620814D01*
X19371789Y-41489711D01*
X19371786Y-41489707D01*
X19260292Y-41378213D01*
X19260288Y-41378210D01*
X19129185Y-41290609D01*
X19129172Y-41290602D01*
X18983501Y-41230264D01*
X18983491Y-41230261D01*
X18828149Y-41199361D01*
X18766238Y-41166976D01*
X18764660Y-41165425D01*
X17987590Y-40388355D01*
X17987588Y-40388352D01*
X17868717Y-40269481D01*
X17868716Y-40269480D01*
X17764534Y-40209331D01*
X17764533Y-40209330D01*
X17731783Y-40190422D01*
X17675881Y-40175443D01*
X17579057Y-40149499D01*
X17420943Y-40149499D01*
X17413347Y-40149499D01*
X17413331Y-40149500D01*
X15079766Y-40149500D01*
X15061622Y-40144172D01*
X15042713Y-40143835D01*
X15014495Y-40130334D01*
X15012727Y-40129815D01*
X15010875Y-40128602D01*
X14881518Y-40042168D01*
X14881517Y-40042167D01*
X14879188Y-40040611D01*
X14879172Y-40040602D01*
X14733501Y-39980264D01*
X14733491Y-39980261D01*
X14578149Y-39949361D01*
X14570104Y-39945153D01*
X32660212Y-39945153D01*
X32660212Y-40102846D01*
X32690973Y-40257489D01*
X32690976Y-40257501D01*
X32751314Y-40403172D01*
X32751321Y-40403185D01*
X32838922Y-40534288D01*
X32838925Y-40534292D01*
X32950419Y-40645786D01*
X32950423Y-40645789D01*
X33081526Y-40733390D01*
X33081539Y-40733397D01*
X33227210Y-40793735D01*
X33227215Y-40793737D01*
X33381865Y-40824499D01*
X33381868Y-40824500D01*
X33381870Y-40824500D01*
X33383741Y-40824500D01*
X33384686Y-40824777D01*
X33387930Y-40825097D01*
X33387869Y-40825712D01*
X33450780Y-40844185D01*
X33496535Y-40896989D01*
X33498302Y-40901048D01*
X33540602Y-41003172D01*
X33540609Y-41003185D01*
X33628210Y-41134288D01*
X33628213Y-41134292D01*
X33739710Y-41245789D01*
X33818950Y-41298735D01*
X33870821Y-41333394D01*
X33896316Y-41343954D01*
X33950719Y-41387793D01*
X33970481Y-41434323D01*
X33980261Y-41483491D01*
X33980264Y-41483501D01*
X34040602Y-41629172D01*
X34040609Y-41629185D01*
X34128602Y-41760874D01*
X34149480Y-41827551D01*
X34149500Y-41829765D01*
X34149500Y-51163330D01*
X34149499Y-51163348D01*
X34149499Y-51329054D01*
X34149498Y-51329054D01*
X34190423Y-51481785D01*
X34219358Y-51531900D01*
X34219359Y-51531904D01*
X34219360Y-51531904D01*
X34269479Y-51618714D01*
X34269481Y-51618717D01*
X34388349Y-51737585D01*
X34388355Y-51737590D01*
X39415425Y-56764660D01*
X39448910Y-56825983D01*
X39449361Y-56828149D01*
X39480261Y-56983491D01*
X39480264Y-56983501D01*
X39540602Y-57129172D01*
X39540609Y-57129185D01*
X39628210Y-57260288D01*
X39628213Y-57260292D01*
X39739707Y-57371786D01*
X39739711Y-57371789D01*
X39870814Y-57459390D01*
X39870827Y-57459397D01*
X40016498Y-57519735D01*
X40016503Y-57519737D01*
X40171153Y-57550499D01*
X40171156Y-57550500D01*
X40171158Y-57550500D01*
X40328844Y-57550500D01*
X40328845Y-57550499D01*
X40483497Y-57519737D01*
X40629179Y-57459394D01*
X40760289Y-57371789D01*
X40871789Y-57260289D01*
X40959394Y-57129179D01*
X41019737Y-56983497D01*
X41050500Y-56828842D01*
X41050500Y-56671158D01*
X41050500Y-56671155D01*
X41050499Y-56671153D01*
X41019738Y-56516510D01*
X41019737Y-56516503D01*
X41019735Y-56516498D01*
X40959397Y-56370827D01*
X40959390Y-56370814D01*
X40871789Y-56239711D01*
X40871786Y-56239707D01*
X40760292Y-56128213D01*
X40760288Y-56128210D01*
X40629185Y-56040609D01*
X40629172Y-56040602D01*
X40483501Y-55980264D01*
X40483491Y-55980261D01*
X40328151Y-55949362D01*
X40266241Y-55916977D01*
X40264662Y-55915426D01*
X38020389Y-53671153D01*
X42199500Y-53671153D01*
X42199500Y-53828846D01*
X42230261Y-53983489D01*
X42230264Y-53983501D01*
X42290602Y-54129172D01*
X42290609Y-54129185D01*
X42378210Y-54260288D01*
X42378213Y-54260292D01*
X42489707Y-54371786D01*
X42489711Y-54371789D01*
X42620814Y-54459390D01*
X42620827Y-54459397D01*
X42766498Y-54519735D01*
X42766503Y-54519737D01*
X42921153Y-54550499D01*
X42921156Y-54550500D01*
X42921158Y-54550500D01*
X43078844Y-54550500D01*
X43078845Y-54550499D01*
X43233497Y-54519737D01*
X43379179Y-54459394D01*
X43379185Y-54459390D01*
X43510875Y-54371398D01*
X43577553Y-54350520D01*
X43579766Y-54350500D01*
X46199903Y-54350500D01*
X46266942Y-54370185D01*
X46287584Y-54386819D01*
X48113181Y-56212416D01*
X48146666Y-56273739D01*
X48149500Y-56300097D01*
X48149500Y-58913330D01*
X48149499Y-58913348D01*
X48149499Y-59079054D01*
X48149498Y-59079054D01*
X48190423Y-59231785D01*
X48219358Y-59281900D01*
X48219359Y-59281904D01*
X48219360Y-59281904D01*
X48269479Y-59368714D01*
X48269481Y-59368717D01*
X48388349Y-59487585D01*
X48388355Y-59487590D01*
X49665426Y-60764661D01*
X49674489Y-60781258D01*
X49687623Y-60794871D01*
X49698023Y-60824359D01*
X49698911Y-60825984D01*
X49699363Y-60828156D01*
X49701865Y-60840737D01*
X49695635Y-60910328D01*
X49655545Y-60961930D01*
X49656127Y-60962639D01*
X49653005Y-60965200D01*
X49652770Y-60965504D01*
X49651898Y-60966109D01*
X49651415Y-60966505D01*
X49539923Y-61077997D01*
X49539920Y-61078001D01*
X49452319Y-61209104D01*
X49452312Y-61209117D01*
X49391974Y-61354788D01*
X49391971Y-61354798D01*
X49361072Y-61510137D01*
X49352307Y-61526892D01*
X49348288Y-61545371D01*
X49329542Y-61570412D01*
X49328687Y-61572048D01*
X49327137Y-61573626D01*
X49296943Y-61603819D01*
X49256285Y-61644478D01*
X49256284Y-61644479D01*
X49249218Y-61651546D01*
X49249215Y-61651547D01*
X49249214Y-61651548D01*
X49249215Y-61651549D01*
X49144477Y-61756287D01*
X49131924Y-61778032D01*
X49131923Y-61778034D01*
X49065423Y-61893215D01*
X49024499Y-62045943D01*
X49024499Y-62045945D01*
X49024499Y-62214046D01*
X49024500Y-62214059D01*
X49024500Y-62295234D01*
X49004815Y-62362273D01*
X49003602Y-62364125D01*
X48915609Y-62495814D01*
X48915602Y-62495827D01*
X48855264Y-62641498D01*
X48855261Y-62641510D01*
X48824500Y-62796153D01*
X48824500Y-62953846D01*
X48855261Y-63108489D01*
X48855264Y-63108501D01*
X48915602Y-63254172D01*
X48915609Y-63254185D01*
X49003210Y-63385288D01*
X49003213Y-63385292D01*
X49114707Y-63496786D01*
X49114711Y-63496789D01*
X49245814Y-63584390D01*
X49245827Y-63584397D01*
X49391498Y-63644735D01*
X49391503Y-63644737D01*
X49546153Y-63675499D01*
X49546156Y-63675500D01*
X49546158Y-63675500D01*
X49703844Y-63675500D01*
X49703845Y-63675499D01*
X49858497Y-63644737D01*
X50004179Y-63584394D01*
X50135289Y-63496789D01*
X50246789Y-63385289D01*
X50334394Y-63254179D01*
X50394737Y-63108497D01*
X50425500Y-62953842D01*
X50425500Y-62796158D01*
X50425500Y-62796155D01*
X50425499Y-62796153D01*
X50394738Y-62641510D01*
X50394737Y-62641503D01*
X50394735Y-62641498D01*
X50342035Y-62514267D01*
X50334566Y-62444798D01*
X50365841Y-62382319D01*
X50409144Y-62352254D01*
X50540882Y-62297687D01*
X50540882Y-62297686D01*
X50540889Y-62297684D01*
X50671999Y-62210079D01*
X50783499Y-62098579D01*
X50871104Y-61967469D01*
X50931447Y-61821787D01*
X50962210Y-61667132D01*
X50962210Y-61509448D01*
X50959845Y-61497558D01*
X50966072Y-61427966D01*
X51006163Y-61376354D01*
X51005585Y-61375649D01*
X51008692Y-61373099D01*
X51008934Y-61372788D01*
X51009825Y-61372169D01*
X51010283Y-61371792D01*
X51010289Y-61371789D01*
X51121789Y-61260289D01*
X51209394Y-61129179D01*
X51269737Y-60983497D01*
X51300500Y-60828842D01*
X51300500Y-60671158D01*
X51300500Y-60671155D01*
X51300499Y-60671153D01*
X51269738Y-60516510D01*
X51269737Y-60516503D01*
X51265087Y-60505276D01*
X51209397Y-60370827D01*
X51209390Y-60370814D01*
X51121789Y-60239711D01*
X51121786Y-60239707D01*
X51010292Y-60128213D01*
X51010288Y-60128210D01*
X50879185Y-60040609D01*
X50879172Y-60040602D01*
X50733501Y-59980264D01*
X50733491Y-59980261D01*
X50578151Y-59949362D01*
X50516241Y-59916977D01*
X50514662Y-59915426D01*
X49386819Y-58787583D01*
X49353334Y-58726260D01*
X49350500Y-58699902D01*
X49350500Y-56089060D01*
X49350501Y-56089047D01*
X49350501Y-55920944D01*
X49349438Y-55916977D01*
X49309577Y-55768216D01*
X49264268Y-55689738D01*
X49230524Y-55631290D01*
X49230518Y-55631282D01*
X46987590Y-53388355D01*
X46987588Y-53388352D01*
X46868717Y-53269481D01*
X46868716Y-53269480D01*
X46781904Y-53219360D01*
X46781904Y-53219359D01*
X46781900Y-53219358D01*
X46731785Y-53190423D01*
X46579057Y-53149499D01*
X46420943Y-53149499D01*
X46413347Y-53149499D01*
X46413331Y-53149500D01*
X43579766Y-53149500D01*
X43512727Y-53129815D01*
X43510875Y-53128602D01*
X43379185Y-53040609D01*
X43379172Y-53040602D01*
X43233501Y-52980264D01*
X43233489Y-52980261D01*
X43078845Y-52949500D01*
X43078842Y-52949500D01*
X42921158Y-52949500D01*
X42921155Y-52949500D01*
X42766510Y-52980261D01*
X42766498Y-52980264D01*
X42620827Y-53040602D01*
X42620814Y-53040609D01*
X42489711Y-53128210D01*
X42489707Y-53128213D01*
X42378213Y-53239707D01*
X42378210Y-53239711D01*
X42290609Y-53370814D01*
X42290602Y-53370827D01*
X42230264Y-53516498D01*
X42230261Y-53516510D01*
X42199500Y-53671153D01*
X38020389Y-53671153D01*
X35386819Y-51037583D01*
X35353334Y-50976260D01*
X35350500Y-50949902D01*
X35350500Y-50471994D01*
X50872423Y-50471994D01*
X50872423Y-50629687D01*
X50903184Y-50784330D01*
X50903187Y-50784342D01*
X50963525Y-50930013D01*
X50963532Y-50930026D01*
X51051133Y-51061129D01*
X51051136Y-51061133D01*
X51162630Y-51172627D01*
X51162634Y-51172630D01*
X51293737Y-51260231D01*
X51293750Y-51260238D01*
X51439421Y-51320576D01*
X51439426Y-51320578D01*
X51594076Y-51351340D01*
X51594079Y-51351341D01*
X51594081Y-51351341D01*
X51751767Y-51351341D01*
X51751768Y-51351340D01*
X51906420Y-51320578D01*
X52052102Y-51260235D01*
X52052104Y-51260233D01*
X52052557Y-51260046D01*
X52122027Y-51252577D01*
X52184506Y-51283852D01*
X52187691Y-51286926D01*
X53915425Y-53014660D01*
X53948910Y-53075983D01*
X53949361Y-53078149D01*
X53980261Y-53233491D01*
X53980264Y-53233501D01*
X54040602Y-53379172D01*
X54040609Y-53379185D01*
X54128602Y-53510874D01*
X54149480Y-53577551D01*
X54149500Y-53579765D01*
X54149500Y-53920234D01*
X54129815Y-53987273D01*
X54128602Y-53989125D01*
X54040609Y-54120814D01*
X54040602Y-54120827D01*
X53980264Y-54266498D01*
X53980261Y-54266510D01*
X53949500Y-54421153D01*
X53949500Y-54578846D01*
X53980261Y-54733489D01*
X53980264Y-54733501D01*
X54040602Y-54879172D01*
X54040609Y-54879185D01*
X54128210Y-55010288D01*
X54128213Y-55010292D01*
X54239707Y-55121786D01*
X54239711Y-55121789D01*
X54370814Y-55209390D01*
X54370827Y-55209397D01*
X54516498Y-55269735D01*
X54516503Y-55269737D01*
X54671153Y-55300499D01*
X54671156Y-55300500D01*
X54671158Y-55300500D01*
X54828844Y-55300500D01*
X54828845Y-55300499D01*
X54983497Y-55269737D01*
X55129179Y-55209394D01*
X55260289Y-55121789D01*
X55371789Y-55010289D01*
X55459394Y-54879179D01*
X55519737Y-54733497D01*
X55550500Y-54578842D01*
X55550500Y-54421158D01*
X55550500Y-54421155D01*
X55550499Y-54421153D01*
X55519737Y-54266503D01*
X55517163Y-54260288D01*
X55459397Y-54120827D01*
X55459390Y-54120814D01*
X55371398Y-53989125D01*
X55350520Y-53922447D01*
X55350500Y-53920234D01*
X55350500Y-53579765D01*
X55370185Y-53512726D01*
X55371398Y-53510874D01*
X55459390Y-53379185D01*
X55459390Y-53379184D01*
X55459394Y-53379179D01*
X55462854Y-53370827D01*
X55517163Y-53239711D01*
X55519737Y-53233497D01*
X55550500Y-53078842D01*
X55550500Y-52921158D01*
X55550500Y-52921155D01*
X55550499Y-52921153D01*
X55519738Y-52766510D01*
X55519737Y-52766503D01*
X55519735Y-52766498D01*
X55459397Y-52620827D01*
X55459390Y-52620814D01*
X55371789Y-52489711D01*
X55371786Y-52489707D01*
X55260292Y-52378213D01*
X55260288Y-52378210D01*
X55129185Y-52290609D01*
X55129172Y-52290602D01*
X54983501Y-52230264D01*
X54983491Y-52230261D01*
X54828149Y-52199361D01*
X54766238Y-52166976D01*
X54764660Y-52165425D01*
X52788431Y-50189196D01*
X52788429Y-50189193D01*
X52669558Y-50070322D01*
X52669557Y-50070321D01*
X52582745Y-50020201D01*
X52582745Y-50020200D01*
X52582741Y-50020199D01*
X52532626Y-49991264D01*
X52379898Y-49950340D01*
X52252687Y-49950340D01*
X52185648Y-49930655D01*
X52183796Y-49929442D01*
X52052108Y-49841450D01*
X52052095Y-49841443D01*
X51906424Y-49781105D01*
X51906412Y-49781102D01*
X51751768Y-49750341D01*
X51751765Y-49750341D01*
X51594081Y-49750341D01*
X51594078Y-49750341D01*
X51439433Y-49781102D01*
X51439421Y-49781105D01*
X51293750Y-49841443D01*
X51293737Y-49841450D01*
X51162634Y-49929051D01*
X51162630Y-49929054D01*
X51051136Y-50040548D01*
X51051133Y-50040552D01*
X50963532Y-50171655D01*
X50963525Y-50171668D01*
X50903187Y-50317339D01*
X50903184Y-50317351D01*
X50872423Y-50471994D01*
X35350500Y-50471994D01*
X35350500Y-43399999D01*
X59361115Y-43399999D01*
X59361116Y-43400000D01*
X60113012Y-43400000D01*
X60095795Y-43409940D01*
X60039940Y-43465795D01*
X60000444Y-43534204D01*
X59980000Y-43610504D01*
X59980000Y-43689496D01*
X60000444Y-43765796D01*
X60039940Y-43834205D01*
X60095795Y-43890060D01*
X60113012Y-43900000D01*
X59361116Y-43900000D01*
X59366506Y-43927100D01*
X59366507Y-43927103D01*
X59438119Y-44099991D01*
X59438124Y-44100000D01*
X59542086Y-44255589D01*
X59542089Y-44255593D01*
X59674406Y-44387910D01*
X59674410Y-44387913D01*
X59829999Y-44491875D01*
X59830008Y-44491880D01*
X60002894Y-44563491D01*
X60002902Y-44563493D01*
X60186428Y-44599999D01*
X60186431Y-44600000D01*
X60580000Y-44600000D01*
X60580000Y-43950000D01*
X61080000Y-43950000D01*
X61080000Y-44600000D01*
X61473569Y-44600000D01*
X61473571Y-44599999D01*
X61657097Y-44563493D01*
X61657105Y-44563491D01*
X61829991Y-44491880D01*
X61830000Y-44491875D01*
X61985589Y-44387913D01*
X61985593Y-44387910D01*
X62117910Y-44255593D01*
X62117913Y-44255589D01*
X62221875Y-44100000D01*
X62221880Y-44099991D01*
X62293492Y-43927103D01*
X62293493Y-43927100D01*
X62298884Y-43900000D01*
X61546988Y-43900000D01*
X61564205Y-43890060D01*
X61620060Y-43834205D01*
X61659556Y-43765796D01*
X61680000Y-43689496D01*
X61680000Y-43610504D01*
X61659556Y-43534204D01*
X61620060Y-43465795D01*
X61564205Y-43409940D01*
X61546988Y-43400000D01*
X62298884Y-43400000D01*
X62298884Y-43399999D01*
X62293493Y-43372899D01*
X62293492Y-43372896D01*
X62221880Y-43200008D01*
X62221875Y-43199999D01*
X62117913Y-43044410D01*
X62117910Y-43044406D01*
X61985593Y-42912089D01*
X61985589Y-42912086D01*
X61830000Y-42808124D01*
X61829987Y-42808117D01*
X61771926Y-42784068D01*
X61717522Y-42740227D01*
X61695457Y-42673933D01*
X61712736Y-42606234D01*
X61731691Y-42581832D01*
X61760509Y-42553015D01*
X61832984Y-42427485D01*
X61870500Y-42287475D01*
X61870500Y-42142525D01*
X61832984Y-42002515D01*
X61786012Y-41921158D01*
X61760511Y-41876988D01*
X61760506Y-41876982D01*
X61658017Y-41774493D01*
X61658011Y-41774488D01*
X61532488Y-41702017D01*
X61532489Y-41702017D01*
X61521006Y-41698940D01*
X61392475Y-41664500D01*
X61247525Y-41664500D01*
X61118993Y-41698940D01*
X61107511Y-41702017D01*
X60981988Y-41774488D01*
X60981982Y-41774493D01*
X60879493Y-41876982D01*
X60879488Y-41876988D01*
X60807017Y-42002511D01*
X60807016Y-42002515D01*
X60769500Y-42142525D01*
X60769500Y-42287475D01*
X60794074Y-42379185D01*
X60807017Y-42427488D01*
X60879488Y-42553011D01*
X60879490Y-42553013D01*
X60879491Y-42553015D01*
X60981985Y-42655509D01*
X61018000Y-42676302D01*
X61066215Y-42726868D01*
X61080000Y-42783689D01*
X61080000Y-43350000D01*
X60580000Y-43350000D01*
X60580000Y-42700000D01*
X60186430Y-42700000D01*
X60002902Y-42736506D01*
X60002894Y-42736508D01*
X59830008Y-42808119D01*
X59829999Y-42808124D01*
X59674410Y-42912086D01*
X59674406Y-42912089D01*
X59542089Y-43044406D01*
X59542086Y-43044410D01*
X59438124Y-43199999D01*
X59438119Y-43200008D01*
X59366507Y-43372896D01*
X59366506Y-43372899D01*
X59361115Y-43399999D01*
X35350500Y-43399999D01*
X35350500Y-41829765D01*
X35370185Y-41762726D01*
X35371398Y-41760874D01*
X35459390Y-41629185D01*
X35459390Y-41629184D01*
X35459394Y-41629179D01*
X35462854Y-41620827D01*
X35491984Y-41550499D01*
X35519737Y-41483497D01*
X35549595Y-41333394D01*
X35550638Y-41328150D01*
X35583023Y-41266239D01*
X35584519Y-41264715D01*
X37608506Y-39240727D01*
X37608511Y-39240724D01*
X37618714Y-39230520D01*
X37618716Y-39230520D01*
X37730520Y-39118716D01*
X37779949Y-39033102D01*
X37787813Y-39019482D01*
X37787814Y-39019480D01*
X37809574Y-38981790D01*
X37809575Y-38981789D01*
X37809575Y-38981787D01*
X37809577Y-38981785D01*
X37850501Y-38829057D01*
X37850501Y-38670943D01*
X37850501Y-38663348D01*
X37850500Y-38663330D01*
X37850500Y-37732205D01*
X37870185Y-37665166D01*
X37886814Y-37644528D01*
X37971789Y-37559554D01*
X38059394Y-37428444D01*
X38119737Y-37282762D01*
X38150500Y-37128107D01*
X38150500Y-36997757D01*
X38170185Y-36930718D01*
X38222989Y-36884963D01*
X38292147Y-36875019D01*
X38298692Y-36876140D01*
X38421155Y-36900500D01*
X38421158Y-36900500D01*
X38578844Y-36900500D01*
X38578845Y-36900499D01*
X38733497Y-36869737D01*
X38879179Y-36809394D01*
X39010289Y-36721789D01*
X39121789Y-36610289D01*
X39209394Y-36479179D01*
X39269737Y-36333497D01*
X39278269Y-36290606D01*
X39296231Y-36200308D01*
X39328616Y-36138397D01*
X39389332Y-36103823D01*
X39417848Y-36100500D01*
X54223903Y-36100500D01*
X54290942Y-36120185D01*
X54311584Y-36136819D01*
X56863181Y-38688416D01*
X56896666Y-38749739D01*
X56899500Y-38776097D01*
X56899500Y-40420234D01*
X56879815Y-40487273D01*
X56878602Y-40489125D01*
X56790609Y-40620814D01*
X56790602Y-40620827D01*
X56730264Y-40766498D01*
X56730261Y-40766510D01*
X56699500Y-40921153D01*
X56699500Y-41078846D01*
X56730261Y-41233489D01*
X56730264Y-41233501D01*
X56790602Y-41379172D01*
X56790609Y-41379185D01*
X56878210Y-41510288D01*
X56878213Y-41510292D01*
X56989707Y-41621786D01*
X56989711Y-41621789D01*
X57120814Y-41709390D01*
X57120827Y-41709397D01*
X57249577Y-41762726D01*
X57266503Y-41769737D01*
X57421153Y-41800499D01*
X57421156Y-41800500D01*
X57421158Y-41800500D01*
X57578844Y-41800500D01*
X57578845Y-41800499D01*
X57733497Y-41769737D01*
X57879179Y-41709394D01*
X58010289Y-41621789D01*
X58121789Y-41510289D01*
X58209394Y-41379179D01*
X58269737Y-41233497D01*
X58300500Y-41078842D01*
X58300500Y-40921158D01*
X58300500Y-40921155D01*
X58300499Y-40921153D01*
X58275154Y-40793737D01*
X58269737Y-40766503D01*
X58219735Y-40645786D01*
X58209397Y-40620827D01*
X58209390Y-40620814D01*
X58121398Y-40489125D01*
X58100520Y-40422447D01*
X58100500Y-40420234D01*
X58100500Y-40128439D01*
X58120185Y-40061400D01*
X58172989Y-40015645D01*
X58242147Y-40005701D01*
X58305703Y-40034726D01*
X58327602Y-40059548D01*
X58378210Y-40135288D01*
X58378213Y-40135292D01*
X58489707Y-40246786D01*
X58489711Y-40246789D01*
X58620814Y-40334390D01*
X58620827Y-40334397D01*
X58734024Y-40381284D01*
X58766503Y-40394737D01*
X58905810Y-40422447D01*
X58921153Y-40425499D01*
X58921156Y-40425500D01*
X58921158Y-40425500D01*
X59078844Y-40425500D01*
X59078845Y-40425499D01*
X59233497Y-40394737D01*
X59379179Y-40334394D01*
X59510289Y-40246789D01*
X59621789Y-40135289D01*
X59709394Y-40004179D01*
X59769737Y-39858497D01*
X59800500Y-39703842D01*
X59800500Y-39546158D01*
X59800500Y-39546155D01*
X59800499Y-39546153D01*
X59771867Y-39402211D01*
X59769737Y-39391503D01*
X59737887Y-39314609D01*
X59709397Y-39245827D01*
X59709390Y-39245814D01*
X59656834Y-39167159D01*
X59635956Y-39100482D01*
X59654440Y-39033102D01*
X59668739Y-39015031D01*
X59668693Y-39014993D01*
X59670827Y-39012392D01*
X59672256Y-39010586D01*
X59672554Y-39010289D01*
X59760159Y-38879179D01*
X59820502Y-38733497D01*
X59851265Y-38578842D01*
X59851265Y-38421158D01*
X59851265Y-38421155D01*
X59851264Y-38421153D01*
X59820503Y-38266510D01*
X59820502Y-38266503D01*
X59820500Y-38266498D01*
X59760162Y-38120827D01*
X59760155Y-38120814D01*
X59672163Y-37989125D01*
X59651285Y-37922447D01*
X59651265Y-37920234D01*
X59651265Y-37471710D01*
X59651265Y-37471708D01*
X59649182Y-37463934D01*
X59610342Y-37318980D01*
X59581404Y-37268860D01*
X59531285Y-37182049D01*
X59419481Y-37070245D01*
X59419480Y-37070244D01*
X59415150Y-37065914D01*
X59415139Y-37065904D01*
X58480521Y-36131286D01*
X58480520Y-36131284D01*
X58368716Y-36019480D01*
X58368713Y-36019478D01*
X57099234Y-34749999D01*
X59361115Y-34749999D01*
X59361116Y-34750000D01*
X60113012Y-34750000D01*
X60095795Y-34759940D01*
X60039940Y-34815795D01*
X60000444Y-34884204D01*
X59980000Y-34960504D01*
X59980000Y-35039496D01*
X60000444Y-35115796D01*
X60039940Y-35184205D01*
X60095795Y-35240060D01*
X60113012Y-35250000D01*
X59361116Y-35250000D01*
X59366506Y-35277100D01*
X59366507Y-35277103D01*
X59438119Y-35449991D01*
X59438124Y-35450000D01*
X59542086Y-35605589D01*
X59542089Y-35605593D01*
X59674406Y-35737910D01*
X59674410Y-35737913D01*
X59829999Y-35841875D01*
X59830008Y-35841880D01*
X60002894Y-35913491D01*
X60002902Y-35913493D01*
X60186428Y-35949999D01*
X60186431Y-35950000D01*
X60580000Y-35950000D01*
X60580000Y-35300000D01*
X61080000Y-35300000D01*
X61080000Y-35866310D01*
X61060315Y-35933349D01*
X61018001Y-35973696D01*
X60981991Y-35994486D01*
X60981982Y-35994493D01*
X60879493Y-36096982D01*
X60879488Y-36096988D01*
X60807017Y-36222511D01*
X60807016Y-36222515D01*
X60769500Y-36362525D01*
X60769500Y-36507475D01*
X60799873Y-36620827D01*
X60807017Y-36647488D01*
X60879488Y-36773011D01*
X60879490Y-36773013D01*
X60879491Y-36773015D01*
X60981985Y-36875509D01*
X60981986Y-36875510D01*
X60981988Y-36875511D01*
X61107511Y-36947982D01*
X61107512Y-36947982D01*
X61107515Y-36947984D01*
X61247525Y-36985500D01*
X61247528Y-36985500D01*
X61392472Y-36985500D01*
X61392475Y-36985500D01*
X61532485Y-36947984D01*
X61658015Y-36875509D01*
X61760509Y-36773015D01*
X61832984Y-36647485D01*
X61870500Y-36507475D01*
X61870500Y-36362525D01*
X61832984Y-36222515D01*
X61819696Y-36199500D01*
X61760511Y-36096988D01*
X61760506Y-36096982D01*
X61731697Y-36068173D01*
X61698212Y-36006850D01*
X61703196Y-35937158D01*
X61745068Y-35881225D01*
X61771927Y-35865930D01*
X61829993Y-35841879D01*
X61830000Y-35841875D01*
X61985589Y-35737913D01*
X61985593Y-35737910D01*
X62117910Y-35605593D01*
X62117913Y-35605589D01*
X62221875Y-35450000D01*
X62221880Y-35449991D01*
X62293492Y-35277103D01*
X62293493Y-35277100D01*
X62298884Y-35250000D01*
X61546988Y-35250000D01*
X61564205Y-35240060D01*
X61620060Y-35184205D01*
X61659556Y-35115796D01*
X61680000Y-35039496D01*
X61680000Y-34960504D01*
X61659556Y-34884204D01*
X61620060Y-34815795D01*
X61564205Y-34759940D01*
X61546988Y-34750000D01*
X62298884Y-34750000D01*
X62298884Y-34749999D01*
X62293493Y-34722899D01*
X62293492Y-34722896D01*
X62221880Y-34550008D01*
X62221875Y-34549999D01*
X62117913Y-34394410D01*
X62117910Y-34394406D01*
X61985593Y-34262089D01*
X61985589Y-34262086D01*
X61830000Y-34158124D01*
X61829991Y-34158119D01*
X61657105Y-34086508D01*
X61657097Y-34086506D01*
X61473570Y-34050000D01*
X61080000Y-34050000D01*
X61080000Y-34700000D01*
X60580000Y-34700000D01*
X60580000Y-34050000D01*
X60186430Y-34050000D01*
X60002902Y-34086506D01*
X60002894Y-34086508D01*
X59830008Y-34158119D01*
X59829999Y-34158124D01*
X59674410Y-34262086D01*
X59674406Y-34262089D01*
X59542089Y-34394406D01*
X59542086Y-34394410D01*
X59438124Y-34549999D01*
X59438119Y-34550008D01*
X59366507Y-34722896D01*
X59366506Y-34722899D01*
X59361115Y-34749999D01*
X57099234Y-34749999D01*
X56987590Y-34638355D01*
X56987588Y-34638352D01*
X56868717Y-34519481D01*
X56868716Y-34519480D01*
X56781904Y-34469360D01*
X56781904Y-34469359D01*
X56781900Y-34469358D01*
X56731785Y-34440423D01*
X56579057Y-34399499D01*
X56420943Y-34399499D01*
X56413347Y-34399499D01*
X56413331Y-34399500D01*
X36979057Y-34399500D01*
X36820943Y-34399500D01*
X36668215Y-34440423D01*
X36668214Y-34440423D01*
X36668212Y-34440424D01*
X36668209Y-34440425D01*
X36618096Y-34469359D01*
X36618095Y-34469360D01*
X36574689Y-34494420D01*
X36531285Y-34519479D01*
X36531282Y-34519481D01*
X34885339Y-36165425D01*
X34824016Y-36198910D01*
X34821850Y-36199361D01*
X34666508Y-36230261D01*
X34666498Y-36230264D01*
X34520827Y-36290602D01*
X34520814Y-36290609D01*
X34389711Y-36378210D01*
X34389707Y-36378213D01*
X34278213Y-36489707D01*
X34278210Y-36489711D01*
X34190609Y-36620814D01*
X34190602Y-36620827D01*
X34130264Y-36766498D01*
X34130261Y-36766510D01*
X34099500Y-36921153D01*
X34099500Y-37078846D01*
X34130261Y-37233489D01*
X34130264Y-37233501D01*
X34190602Y-37379172D01*
X34190609Y-37379185D01*
X34278210Y-37510288D01*
X34278213Y-37510292D01*
X34389707Y-37621786D01*
X34389711Y-37621789D01*
X34520814Y-37709390D01*
X34520827Y-37709397D01*
X34646741Y-37761552D01*
X34701145Y-37805393D01*
X34723210Y-37871687D01*
X34705931Y-37939386D01*
X34686970Y-37963794D01*
X33463584Y-39187181D01*
X33402261Y-39220666D01*
X33387862Y-39222214D01*
X33387930Y-39222903D01*
X33381865Y-39223500D01*
X33227222Y-39254261D01*
X33227210Y-39254264D01*
X33081539Y-39314602D01*
X33081526Y-39314609D01*
X32950423Y-39402210D01*
X32950419Y-39402213D01*
X32838925Y-39513707D01*
X32838922Y-39513711D01*
X32751321Y-39644814D01*
X32751314Y-39644827D01*
X32690976Y-39790498D01*
X32690973Y-39790510D01*
X32660212Y-39945153D01*
X14570104Y-39945153D01*
X14516238Y-39916976D01*
X14514660Y-39915425D01*
X13886819Y-39287584D01*
X13853334Y-39226261D01*
X13850500Y-39199903D01*
X13850500Y-33008108D01*
X44599500Y-33008108D01*
X44599500Y-33139891D01*
X44633608Y-33267187D01*
X44666554Y-33324250D01*
X44699500Y-33381314D01*
X44792686Y-33474500D01*
X44906814Y-33540392D01*
X45034108Y-33574500D01*
X45034110Y-33574500D01*
X45165890Y-33574500D01*
X45165892Y-33574500D01*
X45293186Y-33540392D01*
X45407314Y-33474500D01*
X45500500Y-33381314D01*
X45566392Y-33267186D01*
X45600500Y-33139892D01*
X45600500Y-33008108D01*
X45566392Y-32880814D01*
X45500500Y-32766686D01*
X45407314Y-32673500D01*
X45350250Y-32640554D01*
X45293187Y-32607608D01*
X45229539Y-32590554D01*
X45165892Y-32573500D01*
X45034108Y-32573500D01*
X44906812Y-32607608D01*
X44792686Y-32673500D01*
X44792683Y-32673502D01*
X44699502Y-32766683D01*
X44699500Y-32766686D01*
X44633608Y-32880812D01*
X44599500Y-33008108D01*
X13850500Y-33008108D01*
X13850500Y-29987961D01*
X21214880Y-29987961D01*
X21214880Y-29987962D01*
X21218429Y-29990334D01*
X21345813Y-30043097D01*
X21345823Y-30043100D01*
X21481053Y-30070000D01*
X21618946Y-30070000D01*
X21754176Y-30043100D01*
X21754186Y-30043097D01*
X21881570Y-29990334D01*
X21881572Y-29990332D01*
X21885119Y-29987961D01*
X22614880Y-29987961D01*
X22614880Y-29987962D01*
X22618429Y-29990334D01*
X22745813Y-30043097D01*
X22745823Y-30043100D01*
X22881053Y-30070000D01*
X23018946Y-30070000D01*
X23154176Y-30043100D01*
X23154186Y-30043097D01*
X23281570Y-29990334D01*
X23281572Y-29990332D01*
X23285119Y-29987961D01*
X22950001Y-29652842D01*
X22950000Y-29652842D01*
X22614880Y-29987961D01*
X21885119Y-29987961D01*
X21550001Y-29652842D01*
X21550000Y-29652842D01*
X21214880Y-29987961D01*
X13850500Y-29987961D01*
X13850500Y-29287961D01*
X20514880Y-29287961D01*
X20514880Y-29287962D01*
X20518429Y-29290334D01*
X20645813Y-29343097D01*
X20645825Y-29343100D01*
X20757299Y-29365274D01*
X20819210Y-29397658D01*
X20853784Y-29458374D01*
X20854725Y-29462699D01*
X20876899Y-29574176D01*
X20876901Y-29574182D01*
X20929668Y-29701573D01*
X20929668Y-29701574D01*
X20932037Y-29705119D01*
X21267157Y-29370000D01*
X21247266Y-29350109D01*
X21450000Y-29350109D01*
X21450000Y-29389891D01*
X21465224Y-29426645D01*
X21493355Y-29454776D01*
X21530109Y-29470000D01*
X21569891Y-29470000D01*
X21606645Y-29454776D01*
X21634776Y-29426645D01*
X21650000Y-29389891D01*
X21650000Y-29369999D01*
X21832842Y-29369999D01*
X21832842Y-29370000D01*
X22167961Y-29705119D01*
X22186824Y-29703263D01*
X22200526Y-29691818D01*
X22269853Y-29683125D01*
X22311597Y-29703107D01*
X22332037Y-29705119D01*
X22667157Y-29370000D01*
X22647266Y-29350109D01*
X22850000Y-29350109D01*
X22850000Y-29389891D01*
X22865224Y-29426645D01*
X22893355Y-29454776D01*
X22930109Y-29470000D01*
X22969891Y-29470000D01*
X23006645Y-29454776D01*
X23034776Y-29426645D01*
X23050000Y-29389891D01*
X23050000Y-29369999D01*
X23232842Y-29369999D01*
X23232842Y-29370000D01*
X23567961Y-29705119D01*
X23570332Y-29701572D01*
X23570334Y-29701570D01*
X23623097Y-29574186D01*
X23623097Y-29574184D01*
X23645273Y-29462700D01*
X23677658Y-29400789D01*
X23738374Y-29366215D01*
X23742700Y-29365273D01*
X23854184Y-29343097D01*
X23854186Y-29343097D01*
X23981570Y-29290334D01*
X23981572Y-29290332D01*
X23985119Y-29287961D01*
X23650001Y-28952842D01*
X23649999Y-28952842D01*
X23487365Y-29115477D01*
X23232842Y-29369999D01*
X23050000Y-29369999D01*
X23050000Y-29350109D01*
X23034776Y-29313355D01*
X23006645Y-29285224D01*
X22969891Y-29270000D01*
X22930109Y-29270000D01*
X22893355Y-29285224D01*
X22865224Y-29313355D01*
X22850000Y-29350109D01*
X22647266Y-29350109D01*
X22412634Y-29115477D01*
X22412632Y-29115474D01*
X22250001Y-28952842D01*
X22249999Y-28952842D01*
X22087365Y-29115477D01*
X21832842Y-29369999D01*
X21650000Y-29369999D01*
X21650000Y-29350109D01*
X21634776Y-29313355D01*
X21606645Y-29285224D01*
X21569891Y-29270000D01*
X21530109Y-29270000D01*
X21493355Y-29285224D01*
X21465224Y-29313355D01*
X21450000Y-29350109D01*
X21247266Y-29350109D01*
X20849999Y-28952842D01*
X20849998Y-28952842D01*
X20514880Y-29287961D01*
X13850500Y-29287961D01*
X13850500Y-28738946D01*
X20149999Y-28738946D01*
X20176899Y-28874176D01*
X20176901Y-28874181D01*
X20229668Y-29001573D01*
X20229668Y-29001574D01*
X20232037Y-29005119D01*
X20567157Y-28670000D01*
X20547266Y-28650109D01*
X20750000Y-28650109D01*
X20750000Y-28689891D01*
X20765224Y-28726645D01*
X20793355Y-28754776D01*
X20830109Y-28770000D01*
X20869891Y-28770000D01*
X20906645Y-28754776D01*
X20934776Y-28726645D01*
X20950000Y-28689891D01*
X20950000Y-28669999D01*
X21132842Y-28669999D01*
X21337025Y-28874181D01*
X21337025Y-28874182D01*
X21550000Y-29087157D01*
X21967157Y-28670000D01*
X21947266Y-28650109D01*
X22150000Y-28650109D01*
X22150000Y-28689891D01*
X22165224Y-28726645D01*
X22193355Y-28754776D01*
X22230109Y-28770000D01*
X22269891Y-28770000D01*
X22306645Y-28754776D01*
X22334776Y-28726645D01*
X22350000Y-28689891D01*
X22350000Y-28669999D01*
X22532842Y-28669999D01*
X22737025Y-28874181D01*
X22737025Y-28874182D01*
X22950000Y-29087157D01*
X23367157Y-28670000D01*
X23347266Y-28650109D01*
X23550000Y-28650109D01*
X23550000Y-28689891D01*
X23565224Y-28726645D01*
X23593355Y-28754776D01*
X23630109Y-28770000D01*
X23669891Y-28770000D01*
X23706645Y-28754776D01*
X23734776Y-28726645D01*
X23750000Y-28689891D01*
X23750000Y-28670000D01*
X23932842Y-28670000D01*
X24267961Y-29005119D01*
X24270332Y-29001572D01*
X24270334Y-29001570D01*
X24323099Y-28874182D01*
X24323100Y-28874176D01*
X24350000Y-28738946D01*
X24350000Y-28601053D01*
X24323100Y-28465823D01*
X24323097Y-28465813D01*
X24270334Y-28338429D01*
X24267961Y-28334880D01*
X23932842Y-28670000D01*
X23750000Y-28670000D01*
X23750000Y-28650109D01*
X23734776Y-28613355D01*
X23706645Y-28585224D01*
X23669891Y-28570000D01*
X23630109Y-28570000D01*
X23593355Y-28585224D01*
X23565224Y-28613355D01*
X23550000Y-28650109D01*
X23347266Y-28650109D01*
X23112634Y-28415477D01*
X23112632Y-28415474D01*
X22950001Y-28252842D01*
X22949999Y-28252842D01*
X22787365Y-28415477D01*
X22532842Y-28669999D01*
X22350000Y-28669999D01*
X22350000Y-28650109D01*
X22334776Y-28613355D01*
X22306645Y-28585224D01*
X22269891Y-28570000D01*
X22230109Y-28570000D01*
X22193355Y-28585224D01*
X22165224Y-28613355D01*
X22150000Y-28650109D01*
X21947266Y-28650109D01*
X21712634Y-28415477D01*
X21712632Y-28415474D01*
X21550001Y-28252842D01*
X21549999Y-28252842D01*
X21387365Y-28415477D01*
X21132842Y-28669999D01*
X20950000Y-28669999D01*
X20950000Y-28650109D01*
X20934776Y-28613355D01*
X20906645Y-28585224D01*
X20869891Y-28570000D01*
X20830109Y-28570000D01*
X20793355Y-28585224D01*
X20765224Y-28613355D01*
X20750000Y-28650109D01*
X20547266Y-28650109D01*
X20232037Y-28334880D01*
X20232036Y-28334880D01*
X20229667Y-28338427D01*
X20229666Y-28338428D01*
X20176902Y-28465813D01*
X20176899Y-28465823D01*
X20150000Y-28601053D01*
X20150000Y-28738946D01*
X20149999Y-28738946D01*
X13850500Y-28738946D01*
X13850500Y-27887961D01*
X20514880Y-27887961D01*
X20516738Y-27906839D01*
X20528167Y-27920517D01*
X20536866Y-27989843D01*
X20535465Y-27997107D01*
X20521641Y-28058798D01*
X20849998Y-28387157D01*
X20849999Y-28387157D01*
X21110883Y-28126274D01*
X21267157Y-27970000D01*
X21247266Y-27950109D01*
X21450000Y-27950109D01*
X21450000Y-27989891D01*
X21465224Y-28026645D01*
X21493355Y-28054776D01*
X21530109Y-28070000D01*
X21569891Y-28070000D01*
X21606645Y-28054776D01*
X21634776Y-28026645D01*
X21650000Y-27989891D01*
X21650000Y-27969999D01*
X21832842Y-27969999D01*
X21832842Y-27970000D01*
X21989102Y-28126260D01*
X21989117Y-28126274D01*
X22250000Y-28387157D01*
X22667157Y-27970000D01*
X22647266Y-27950109D01*
X22850000Y-27950109D01*
X22850000Y-27989891D01*
X22865224Y-28026645D01*
X22893355Y-28054776D01*
X22930109Y-28070000D01*
X22969891Y-28070000D01*
X23006645Y-28054776D01*
X23034776Y-28026645D01*
X23050000Y-27989891D01*
X23050000Y-27969999D01*
X23232842Y-27969999D01*
X23232842Y-27970000D01*
X23389102Y-28126260D01*
X23389117Y-28126274D01*
X23650000Y-28387157D01*
X23650001Y-28387157D01*
X23985119Y-28052037D01*
X23983261Y-28033162D01*
X23971825Y-28019477D01*
X23963122Y-27950151D01*
X23983111Y-27908378D01*
X23985119Y-27887961D01*
X23730120Y-27632961D01*
X52019880Y-27632961D01*
X52019880Y-27632962D01*
X52023429Y-27635334D01*
X52150813Y-27688097D01*
X52150823Y-27688100D01*
X52286053Y-27715000D01*
X52423946Y-27715000D01*
X52559176Y-27688100D01*
X52559186Y-27688097D01*
X52686570Y-27635334D01*
X52686572Y-27635332D01*
X52690119Y-27632961D01*
X53179880Y-27632961D01*
X53179880Y-27632962D01*
X53183429Y-27635334D01*
X53310813Y-27688097D01*
X53310823Y-27688100D01*
X53446053Y-27715000D01*
X53583946Y-27715000D01*
X53719176Y-27688100D01*
X53719186Y-27688097D01*
X53846570Y-27635334D01*
X53846572Y-27635332D01*
X53850119Y-27632961D01*
X53515001Y-27297842D01*
X53515000Y-27297842D01*
X53179880Y-27632961D01*
X52690119Y-27632961D01*
X52355001Y-27297842D01*
X52355000Y-27297842D01*
X52019880Y-27632961D01*
X23730120Y-27632961D01*
X23650001Y-27552842D01*
X23649999Y-27552842D01*
X23487842Y-27715000D01*
X23232842Y-27969999D01*
X23050000Y-27969999D01*
X23050000Y-27950109D01*
X23034776Y-27913355D01*
X23006645Y-27885224D01*
X22969891Y-27870000D01*
X22930109Y-27870000D01*
X22893355Y-27885224D01*
X22865224Y-27913355D01*
X22850000Y-27950109D01*
X22647266Y-27950109D01*
X22412157Y-27715000D01*
X22412155Y-27714997D01*
X22250001Y-27552842D01*
X22249999Y-27552842D01*
X22087842Y-27715000D01*
X21832842Y-27969999D01*
X21650000Y-27969999D01*
X21650000Y-27950109D01*
X21634776Y-27913355D01*
X21606645Y-27885224D01*
X21569891Y-27870000D01*
X21530109Y-27870000D01*
X21493355Y-27885224D01*
X21465224Y-27913355D01*
X21450000Y-27950109D01*
X21247266Y-27950109D01*
X20849999Y-27552842D01*
X20849998Y-27552842D01*
X20514880Y-27887961D01*
X13850500Y-27887961D01*
X13850500Y-27338946D01*
X20149999Y-27338946D01*
X20176899Y-27474176D01*
X20176901Y-27474182D01*
X20229668Y-27601573D01*
X20229668Y-27601574D01*
X20232037Y-27605119D01*
X20567157Y-27270000D01*
X20547266Y-27250109D01*
X20750000Y-27250109D01*
X20750000Y-27289891D01*
X20765224Y-27326645D01*
X20793355Y-27354776D01*
X20830109Y-27370000D01*
X20869891Y-27370000D01*
X20906645Y-27354776D01*
X20934776Y-27326645D01*
X20950000Y-27289891D01*
X20950000Y-27269999D01*
X21132842Y-27269999D01*
X21323320Y-27460476D01*
X21323320Y-27460477D01*
X21550000Y-27687157D01*
X21967157Y-27270000D01*
X21947266Y-27250109D01*
X22150000Y-27250109D01*
X22150000Y-27289891D01*
X22165224Y-27326645D01*
X22193355Y-27354776D01*
X22230109Y-27370000D01*
X22269891Y-27370000D01*
X22306645Y-27354776D01*
X22334776Y-27326645D01*
X22350000Y-27289891D01*
X22350000Y-27269999D01*
X22532842Y-27269999D01*
X22723320Y-27460476D01*
X22723320Y-27460477D01*
X22950000Y-27687157D01*
X23367157Y-27270000D01*
X23347266Y-27250109D01*
X23550000Y-27250109D01*
X23550000Y-27289891D01*
X23565224Y-27326645D01*
X23593355Y-27354776D01*
X23630109Y-27370000D01*
X23669891Y-27370000D01*
X23706645Y-27354776D01*
X23734776Y-27326645D01*
X23750000Y-27289891D01*
X23750000Y-27270000D01*
X23932842Y-27270000D01*
X24267961Y-27605119D01*
X24270332Y-27601572D01*
X24296126Y-27539300D01*
X24296128Y-27539296D01*
X24323099Y-27474177D01*
X24323100Y-27474176D01*
X24350000Y-27338946D01*
X24350000Y-27201053D01*
X24326705Y-27083946D01*
X51654999Y-27083946D01*
X51681899Y-27219176D01*
X51681901Y-27219182D01*
X51734668Y-27346573D01*
X51734668Y-27346574D01*
X51737037Y-27350119D01*
X52072157Y-27015000D01*
X52052266Y-26995109D01*
X52255000Y-26995109D01*
X52255000Y-27034891D01*
X52270224Y-27071645D01*
X52298355Y-27099776D01*
X52335109Y-27115000D01*
X52374891Y-27115000D01*
X52411645Y-27099776D01*
X52439776Y-27071645D01*
X52455000Y-27034891D01*
X52455000Y-27015000D01*
X52637842Y-27015000D01*
X52935000Y-27312157D01*
X52935001Y-27312157D01*
X53232157Y-27015001D01*
X53232157Y-27014999D01*
X53212267Y-26995109D01*
X53415000Y-26995109D01*
X53415000Y-27034891D01*
X53430224Y-27071645D01*
X53458355Y-27099776D01*
X53495109Y-27115000D01*
X53534891Y-27115000D01*
X53571645Y-27099776D01*
X53599776Y-27071645D01*
X53615000Y-27034891D01*
X53615000Y-27015000D01*
X53797842Y-27015000D01*
X54132961Y-27350119D01*
X54135332Y-27346572D01*
X54135334Y-27346570D01*
X54188097Y-27219186D01*
X54188100Y-27219176D01*
X54215000Y-27083946D01*
X54215000Y-26946053D01*
X54188100Y-26810823D01*
X54188097Y-26810813D01*
X54135334Y-26683429D01*
X54132961Y-26679880D01*
X53797842Y-27015000D01*
X53615000Y-27015000D01*
X53615000Y-26995109D01*
X53599776Y-26958355D01*
X53571645Y-26930224D01*
X53534891Y-26915000D01*
X53495109Y-26915000D01*
X53458355Y-26930224D01*
X53430224Y-26958355D01*
X53415000Y-26995109D01*
X53212267Y-26995109D01*
X52935001Y-26717842D01*
X52935000Y-26717842D01*
X52637842Y-27015000D01*
X52455000Y-27015000D01*
X52455000Y-26995109D01*
X52439776Y-26958355D01*
X52411645Y-26930224D01*
X52374891Y-26915000D01*
X52335109Y-26915000D01*
X52298355Y-26930224D01*
X52270224Y-26958355D01*
X52255000Y-26995109D01*
X52052266Y-26995109D01*
X51737037Y-26679880D01*
X51737036Y-26679880D01*
X51734667Y-26683427D01*
X51734666Y-26683428D01*
X51681902Y-26810813D01*
X51681899Y-26810823D01*
X51655000Y-26946053D01*
X51655000Y-27083946D01*
X51654999Y-27083946D01*
X24326705Y-27083946D01*
X24323100Y-27065823D01*
X24323099Y-27065822D01*
X24290624Y-26987416D01*
X24290623Y-26987412D01*
X24270334Y-26938429D01*
X24267961Y-26934880D01*
X23932842Y-27270000D01*
X23750000Y-27270000D01*
X23750000Y-27250109D01*
X23734776Y-27213355D01*
X23706645Y-27185224D01*
X23669891Y-27170000D01*
X23630109Y-27170000D01*
X23593355Y-27185224D01*
X23565224Y-27213355D01*
X23550000Y-27250109D01*
X23347266Y-27250109D01*
X23112634Y-27015477D01*
X23112632Y-27015474D01*
X22950001Y-26852842D01*
X22949999Y-26852842D01*
X22787365Y-27015477D01*
X22532842Y-27269999D01*
X22350000Y-27269999D01*
X22350000Y-27250109D01*
X22334776Y-27213355D01*
X22306645Y-27185224D01*
X22269891Y-27170000D01*
X22230109Y-27170000D01*
X22193355Y-27185224D01*
X22165224Y-27213355D01*
X22150000Y-27250109D01*
X21947266Y-27250109D01*
X21712634Y-27015477D01*
X21712632Y-27015474D01*
X21550001Y-26852842D01*
X21549999Y-26852842D01*
X21387365Y-27015477D01*
X21132842Y-27269999D01*
X20950000Y-27269999D01*
X20950000Y-27250109D01*
X20934776Y-27213355D01*
X20906645Y-27185224D01*
X20869891Y-27170000D01*
X20830109Y-27170000D01*
X20793355Y-27185224D01*
X20765224Y-27213355D01*
X20750000Y-27250109D01*
X20547266Y-27250109D01*
X20232037Y-26934880D01*
X20232036Y-26934880D01*
X20229667Y-26938427D01*
X20229666Y-26938428D01*
X20176902Y-27065813D01*
X20176899Y-27065823D01*
X20150000Y-27201053D01*
X20150000Y-27338946D01*
X20149999Y-27338946D01*
X13850500Y-27338946D01*
X13850500Y-26652036D01*
X20514880Y-26652036D01*
X20514880Y-26652037D01*
X20849998Y-26987157D01*
X20849999Y-26987157D01*
X21110883Y-26726274D01*
X21267157Y-26569999D01*
X21267157Y-26569998D01*
X21247268Y-26550109D01*
X21450000Y-26550109D01*
X21450000Y-26589891D01*
X21465224Y-26626645D01*
X21493355Y-26654776D01*
X21530109Y-26670000D01*
X21569891Y-26670000D01*
X21606645Y-26654776D01*
X21634776Y-26626645D01*
X21650000Y-26589891D01*
X21650000Y-26569998D01*
X21832842Y-26569998D01*
X21832842Y-26569999D01*
X22250000Y-26987157D01*
X22510883Y-26726274D01*
X22667157Y-26569999D01*
X22667157Y-26569998D01*
X22647268Y-26550109D01*
X22850000Y-26550109D01*
X22850000Y-26589891D01*
X22865224Y-26626645D01*
X22893355Y-26654776D01*
X22930109Y-26670000D01*
X22969891Y-26670000D01*
X23006645Y-26654776D01*
X23034776Y-26626645D01*
X23050000Y-26589891D01*
X23050000Y-26569998D01*
X23232842Y-26569998D01*
X23232842Y-26569999D01*
X23650000Y-26987157D01*
X23650001Y-26987157D01*
X23985119Y-26652037D01*
X23981574Y-26649668D01*
X23854182Y-26596901D01*
X23854176Y-26596899D01*
X23742699Y-26574725D01*
X23724986Y-26565459D01*
X23705530Y-26560862D01*
X23694659Y-26549596D01*
X23680788Y-26542340D01*
X23670895Y-26524967D01*
X23657015Y-26510582D01*
X23647751Y-26484324D01*
X23646214Y-26481624D01*
X23645273Y-26477298D01*
X23636860Y-26435000D01*
X52057842Y-26435000D01*
X52355000Y-26732157D01*
X52355001Y-26732157D01*
X52652157Y-26435001D01*
X52652157Y-26434999D01*
X52632267Y-26415109D01*
X52835000Y-26415109D01*
X52835000Y-26454891D01*
X52850224Y-26491645D01*
X52878355Y-26519776D01*
X52915109Y-26535000D01*
X52954891Y-26535000D01*
X52991645Y-26519776D01*
X53019776Y-26491645D01*
X53035000Y-26454891D01*
X53035000Y-26435000D01*
X53217842Y-26435000D01*
X53515000Y-26732157D01*
X53515001Y-26732157D01*
X53812157Y-26435001D01*
X53812157Y-26434999D01*
X53515001Y-26137842D01*
X53515000Y-26137842D01*
X53217842Y-26435000D01*
X53035000Y-26435000D01*
X53035000Y-26415109D01*
X53019776Y-26378355D01*
X52991645Y-26350224D01*
X52954891Y-26335000D01*
X52915109Y-26335000D01*
X52878355Y-26350224D01*
X52850224Y-26378355D01*
X52835000Y-26415109D01*
X52632267Y-26415109D01*
X52355001Y-26137842D01*
X52355000Y-26137842D01*
X52057842Y-26435000D01*
X23636860Y-26435000D01*
X23631455Y-26407828D01*
X23631455Y-26407825D01*
X23623100Y-26365825D01*
X23623097Y-26365813D01*
X23570334Y-26238429D01*
X23567962Y-26234880D01*
X23567961Y-26234880D01*
X23232842Y-26569998D01*
X23050000Y-26569998D01*
X23050000Y-26550109D01*
X23034776Y-26513355D01*
X23006645Y-26485224D01*
X22969891Y-26470000D01*
X22930109Y-26470000D01*
X22893355Y-26485224D01*
X22865224Y-26513355D01*
X22850000Y-26550109D01*
X22647268Y-26550109D01*
X22332037Y-26234880D01*
X22313148Y-26236741D01*
X22299486Y-26248160D01*
X22230161Y-26256869D01*
X22188407Y-26236892D01*
X22167961Y-26234880D01*
X21832842Y-26569998D01*
X21650000Y-26569998D01*
X21650000Y-26550109D01*
X21634776Y-26513355D01*
X21606645Y-26485224D01*
X21569891Y-26470000D01*
X21530109Y-26470000D01*
X21493355Y-26485224D01*
X21465224Y-26513355D01*
X21450000Y-26550109D01*
X21247268Y-26550109D01*
X20932037Y-26234880D01*
X20932036Y-26234880D01*
X20929667Y-26238427D01*
X20929666Y-26238428D01*
X20876902Y-26365813D01*
X20876899Y-26365823D01*
X20854725Y-26477300D01*
X20822340Y-26539211D01*
X20761624Y-26573785D01*
X20757300Y-26574725D01*
X20645823Y-26596899D01*
X20645813Y-26596902D01*
X20518428Y-26649666D01*
X20518427Y-26649667D01*
X20514880Y-26652036D01*
X13850500Y-26652036D01*
X13850500Y-25952036D01*
X21214880Y-25952036D01*
X21214880Y-25952037D01*
X21550000Y-26287157D01*
X21550001Y-26287157D01*
X21885119Y-25952037D01*
X21885118Y-25952036D01*
X22614880Y-25952036D01*
X22614880Y-25952037D01*
X22950000Y-26287157D01*
X22950001Y-26287157D01*
X23285119Y-25952037D01*
X23281574Y-25949668D01*
X23219475Y-25923946D01*
X51654999Y-25923946D01*
X51681899Y-26059176D01*
X51681901Y-26059182D01*
X51734668Y-26186573D01*
X51734668Y-26186574D01*
X51737037Y-26190119D01*
X52072157Y-25855000D01*
X52052266Y-25835109D01*
X52255000Y-25835109D01*
X52255000Y-25874891D01*
X52270224Y-25911645D01*
X52298355Y-25939776D01*
X52335109Y-25955000D01*
X52374891Y-25955000D01*
X52411645Y-25939776D01*
X52439776Y-25911645D01*
X52455000Y-25874891D01*
X52455000Y-25855000D01*
X52637842Y-25855000D01*
X52935000Y-26152157D01*
X52935001Y-26152157D01*
X53232157Y-25855001D01*
X53232157Y-25854999D01*
X53212267Y-25835109D01*
X53415000Y-25835109D01*
X53415000Y-25874891D01*
X53430224Y-25911645D01*
X53458355Y-25939776D01*
X53495109Y-25955000D01*
X53534891Y-25955000D01*
X53571645Y-25939776D01*
X53599776Y-25911645D01*
X53615000Y-25874891D01*
X53615000Y-25855000D01*
X53797842Y-25855000D01*
X54132961Y-26190119D01*
X54135332Y-26186572D01*
X54135334Y-26186570D01*
X54188097Y-26059186D01*
X54188100Y-26059176D01*
X54215000Y-25923946D01*
X54215000Y-25786053D01*
X54188100Y-25650823D01*
X54188097Y-25650813D01*
X54135334Y-25523429D01*
X54132961Y-25519880D01*
X53797842Y-25855000D01*
X53615000Y-25855000D01*
X53615000Y-25835109D01*
X53599776Y-25798355D01*
X53571645Y-25770224D01*
X53534891Y-25755000D01*
X53495109Y-25755000D01*
X53458355Y-25770224D01*
X53430224Y-25798355D01*
X53415000Y-25835109D01*
X53212267Y-25835109D01*
X52935001Y-25557842D01*
X52935000Y-25557842D01*
X52637842Y-25855000D01*
X52455000Y-25855000D01*
X52455000Y-25835109D01*
X52439776Y-25798355D01*
X52411645Y-25770224D01*
X52374891Y-25755000D01*
X52335109Y-25755000D01*
X52298355Y-25770224D01*
X52270224Y-25798355D01*
X52255000Y-25835109D01*
X52052266Y-25835109D01*
X51737037Y-25519880D01*
X51737036Y-25519880D01*
X51734667Y-25523427D01*
X51734666Y-25523428D01*
X51681902Y-25650813D01*
X51681899Y-25650823D01*
X51655000Y-25786053D01*
X51655000Y-25923946D01*
X51654999Y-25923946D01*
X23219475Y-25923946D01*
X23154179Y-25896900D01*
X23018946Y-25870000D01*
X22881054Y-25870000D01*
X22745823Y-25896899D01*
X22745813Y-25896902D01*
X22618428Y-25949666D01*
X22618427Y-25949667D01*
X22614880Y-25952036D01*
X21885118Y-25952036D01*
X21881574Y-25949668D01*
X21754182Y-25896901D01*
X21754176Y-25896899D01*
X21618946Y-25870000D01*
X21481054Y-25870000D01*
X21345823Y-25896899D01*
X21345813Y-25896902D01*
X21218428Y-25949666D01*
X21218427Y-25949667D01*
X21214880Y-25952036D01*
X13850500Y-25952036D01*
X13850500Y-25237036D01*
X52019880Y-25237036D01*
X52019880Y-25237037D01*
X52355000Y-25572157D01*
X52355001Y-25572157D01*
X52690119Y-25237037D01*
X52690118Y-25237036D01*
X53179880Y-25237036D01*
X53179880Y-25237037D01*
X53515000Y-25572157D01*
X53515001Y-25572157D01*
X53850119Y-25237037D01*
X53846574Y-25234668D01*
X53719182Y-25181901D01*
X53719176Y-25181899D01*
X53583946Y-25155000D01*
X53446054Y-25155000D01*
X53310823Y-25181899D01*
X53310813Y-25181902D01*
X53183428Y-25234666D01*
X53183427Y-25234667D01*
X53179880Y-25237036D01*
X52690118Y-25237036D01*
X52686574Y-25234668D01*
X52559182Y-25181901D01*
X52559176Y-25181899D01*
X52423946Y-25155000D01*
X52286054Y-25155000D01*
X52150823Y-25181899D01*
X52150813Y-25181902D01*
X52023428Y-25234666D01*
X52023427Y-25234667D01*
X52019880Y-25237036D01*
X13850500Y-25237036D01*
X13850500Y-24921153D01*
X55199500Y-24921153D01*
X55199500Y-25078846D01*
X55230261Y-25233489D01*
X55230264Y-25233501D01*
X55290061Y-25377864D01*
X55299500Y-25425316D01*
X55299500Y-28424684D01*
X55290061Y-28472136D01*
X55230264Y-28616498D01*
X55230261Y-28616510D01*
X55199500Y-28771153D01*
X55199500Y-28928846D01*
X55230261Y-29083489D01*
X55230264Y-29083501D01*
X55290061Y-29227864D01*
X55299500Y-29275316D01*
X55299500Y-30574684D01*
X55290061Y-30622136D01*
X55230264Y-30766498D01*
X55230261Y-30766510D01*
X55199500Y-30921153D01*
X55199500Y-31078846D01*
X55230261Y-31233489D01*
X55230264Y-31233501D01*
X55290602Y-31379172D01*
X55290609Y-31379185D01*
X55378210Y-31510288D01*
X55378213Y-31510292D01*
X55489707Y-31621786D01*
X55489711Y-31621789D01*
X55620814Y-31709390D01*
X55620827Y-31709397D01*
X55766498Y-31769735D01*
X55766503Y-31769737D01*
X55921153Y-31800499D01*
X55921156Y-31800500D01*
X55921158Y-31800500D01*
X56078844Y-31800500D01*
X56078845Y-31800499D01*
X56233497Y-31769737D01*
X56379179Y-31709394D01*
X56510289Y-31621789D01*
X56621789Y-31510289D01*
X56709394Y-31379179D01*
X56769737Y-31233497D01*
X56800500Y-31078842D01*
X56800500Y-30921158D01*
X56800500Y-30921155D01*
X56800499Y-30921153D01*
X56769738Y-30766510D01*
X56769737Y-30766503D01*
X56709939Y-30622136D01*
X56700500Y-30574684D01*
X56700500Y-29275316D01*
X56709939Y-29227864D01*
X56738478Y-29158963D01*
X56769737Y-29083497D01*
X56800500Y-28928842D01*
X56800500Y-28771158D01*
X56800500Y-28771155D01*
X56800499Y-28771153D01*
X56780378Y-28669999D01*
X56769737Y-28616503D01*
X56768433Y-28613355D01*
X56709939Y-28472136D01*
X56700500Y-28424684D01*
X56700500Y-25425316D01*
X56709939Y-25377864D01*
X56738478Y-25308963D01*
X56769737Y-25233497D01*
X56800500Y-25078842D01*
X56800500Y-24921158D01*
X56800500Y-24921155D01*
X56800499Y-24921153D01*
X56769738Y-24766510D01*
X56769737Y-24766503D01*
X56769735Y-24766498D01*
X56709397Y-24620827D01*
X56709390Y-24620814D01*
X56621789Y-24489711D01*
X56621786Y-24489707D01*
X56510292Y-24378213D01*
X56510288Y-24378210D01*
X56379185Y-24290609D01*
X56379172Y-24290602D01*
X56233501Y-24230264D01*
X56233489Y-24230261D01*
X56078845Y-24199500D01*
X56078842Y-24199500D01*
X55921158Y-24199500D01*
X55921155Y-24199500D01*
X55766510Y-24230261D01*
X55766498Y-24230264D01*
X55620827Y-24290602D01*
X55620814Y-24290609D01*
X55489711Y-24378210D01*
X55489707Y-24378213D01*
X55378213Y-24489707D01*
X55378210Y-24489711D01*
X55290609Y-24620814D01*
X55290602Y-24620827D01*
X55230264Y-24766498D01*
X55230261Y-24766510D01*
X55199500Y-24921153D01*
X13850500Y-24921153D01*
X13850500Y-23329765D01*
X13870185Y-23262726D01*
X13871398Y-23260874D01*
X13959390Y-23129185D01*
X13959390Y-23129184D01*
X13959394Y-23129179D01*
X14019737Y-22983497D01*
X14050500Y-22828842D01*
X14050500Y-22671158D01*
X14050500Y-22671155D01*
X14050499Y-22671153D01*
X14019737Y-22516503D01*
X13999500Y-22467646D01*
X13959397Y-22370827D01*
X13959390Y-22370814D01*
X13871789Y-22239711D01*
X13871786Y-22239707D01*
X13760292Y-22128213D01*
X13760288Y-22128210D01*
X13629185Y-22040609D01*
X13629173Y-22040602D01*
X13602674Y-22029627D01*
X13483501Y-21980264D01*
X13483489Y-21980261D01*
X13328845Y-21949500D01*
X13328842Y-21949500D01*
X13171158Y-21949500D01*
X13171155Y-21949500D01*
X13016510Y-21980261D01*
X13016498Y-21980264D01*
X12870827Y-22040602D01*
X12870814Y-22040609D01*
X12739711Y-22128210D01*
X12739707Y-22128213D01*
X12712181Y-22155740D01*
X12650858Y-22189225D01*
X12581166Y-22184241D01*
X12525233Y-22142369D01*
X12500816Y-22076905D01*
X12500500Y-22068059D01*
X12500500Y-21921153D01*
X49949500Y-21921153D01*
X49949500Y-22078846D01*
X49980261Y-22233489D01*
X49980264Y-22233501D01*
X50040602Y-22379172D01*
X50040609Y-22379185D01*
X50128602Y-22510874D01*
X50149480Y-22577551D01*
X50149500Y-22579765D01*
X50149500Y-23170234D01*
X50129815Y-23237273D01*
X50128602Y-23239125D01*
X50040609Y-23370814D01*
X50040602Y-23370827D01*
X49980264Y-23516498D01*
X49980261Y-23516510D01*
X49949500Y-23671153D01*
X49949500Y-23828846D01*
X49980261Y-23983489D01*
X49980264Y-23983501D01*
X50040602Y-24129172D01*
X50040609Y-24129185D01*
X50128210Y-24260288D01*
X50128213Y-24260292D01*
X50239707Y-24371786D01*
X50239711Y-24371789D01*
X50370814Y-24459390D01*
X50370827Y-24459397D01*
X50444013Y-24489711D01*
X50516503Y-24519737D01*
X50671153Y-24550499D01*
X50671156Y-24550500D01*
X50671158Y-24550500D01*
X50828844Y-24550500D01*
X50828845Y-24550499D01*
X50983497Y-24519737D01*
X51129179Y-24459394D01*
X51260289Y-24371789D01*
X51371789Y-24260289D01*
X51459394Y-24129179D01*
X51519737Y-23983497D01*
X51550500Y-23828842D01*
X51550500Y-23671158D01*
X51550500Y-23671155D01*
X51550499Y-23671153D01*
X51519738Y-23516510D01*
X51519737Y-23516503D01*
X51519735Y-23516498D01*
X51459397Y-23370827D01*
X51459390Y-23370814D01*
X51371398Y-23239125D01*
X51350520Y-23172447D01*
X51350500Y-23170234D01*
X51350500Y-22579765D01*
X51370185Y-22512726D01*
X51371398Y-22510874D01*
X51459390Y-22379185D01*
X51459390Y-22379184D01*
X51459394Y-22379179D01*
X51462854Y-22370827D01*
X51517163Y-22239711D01*
X51519737Y-22233497D01*
X51550500Y-22078842D01*
X51550500Y-21921158D01*
X51550500Y-21921155D01*
X51550499Y-21921153D01*
X51549209Y-21914668D01*
X51519737Y-21766503D01*
X51487940Y-21689738D01*
X51459397Y-21620827D01*
X51459390Y-21620814D01*
X51421476Y-21564071D01*
X64774499Y-21564071D01*
X64799497Y-21689738D01*
X64799499Y-21689744D01*
X64848533Y-21808124D01*
X64848538Y-21808133D01*
X64919723Y-21914668D01*
X64919726Y-21914672D01*
X65010327Y-22005273D01*
X65010331Y-22005276D01*
X65116866Y-22076461D01*
X65116875Y-22076466D01*
X65122616Y-22078844D01*
X65235256Y-22125501D01*
X65235260Y-22125501D01*
X65235261Y-22125502D01*
X65360928Y-22150500D01*
X65360931Y-22150500D01*
X65489071Y-22150500D01*
X65601125Y-22128210D01*
X65614744Y-22125501D01*
X65733127Y-22076465D01*
X65839669Y-22005276D01*
X65930276Y-21914669D01*
X66001465Y-21808127D01*
X66050501Y-21689744D01*
X66064211Y-21620821D01*
X66075500Y-21564071D01*
X66075500Y-21435928D01*
X66050502Y-21310261D01*
X66050501Y-21310260D01*
X66050501Y-21310256D01*
X66001465Y-21191873D01*
X66001464Y-21191872D01*
X66001461Y-21191866D01*
X65930276Y-21085331D01*
X65930273Y-21085327D01*
X65839672Y-20994726D01*
X65839668Y-20994723D01*
X65733133Y-20923538D01*
X65733124Y-20923533D01*
X65614744Y-20874499D01*
X65614738Y-20874497D01*
X65489071Y-20849500D01*
X65489069Y-20849500D01*
X65360931Y-20849500D01*
X65360929Y-20849500D01*
X65235261Y-20874497D01*
X65235255Y-20874499D01*
X65116875Y-20923533D01*
X65116866Y-20923538D01*
X65010331Y-20994723D01*
X65010327Y-20994726D01*
X64919726Y-21085327D01*
X64919723Y-21085331D01*
X64848538Y-21191866D01*
X64848533Y-21191875D01*
X64799499Y-21310255D01*
X64799497Y-21310261D01*
X64774500Y-21435928D01*
X64774500Y-21435931D01*
X64774500Y-21564069D01*
X64774500Y-21564071D01*
X64774499Y-21564071D01*
X51421476Y-21564071D01*
X51377816Y-21498730D01*
X51371788Y-21489709D01*
X51260292Y-21378213D01*
X51260288Y-21378210D01*
X51129185Y-21290609D01*
X51129172Y-21290602D01*
X50983501Y-21230264D01*
X50983489Y-21230261D01*
X50828845Y-21199500D01*
X50828842Y-21199500D01*
X50671158Y-21199500D01*
X50671155Y-21199500D01*
X50516510Y-21230261D01*
X50516498Y-21230264D01*
X50370827Y-21290602D01*
X50370814Y-21290609D01*
X50239711Y-21378210D01*
X50239707Y-21378213D01*
X50128213Y-21489707D01*
X50128210Y-21489711D01*
X50040609Y-21620814D01*
X50040602Y-21620827D01*
X49980264Y-21766498D01*
X49980261Y-21766510D01*
X49949500Y-21921153D01*
X12500500Y-21921153D01*
X12500500Y-20124000D01*
X12520185Y-20056961D01*
X12572989Y-20011206D01*
X12624500Y-20000000D01*
X40000000Y-20000000D01*
X40000000Y-18564071D01*
X64774499Y-18564071D01*
X64799497Y-18689738D01*
X64799499Y-18689744D01*
X64848533Y-18808124D01*
X64848538Y-18808133D01*
X64919723Y-18914668D01*
X64919726Y-18914672D01*
X65010327Y-19005273D01*
X65010331Y-19005276D01*
X65116866Y-19076461D01*
X65116872Y-19076464D01*
X65116873Y-19076465D01*
X65235256Y-19125501D01*
X65235260Y-19125501D01*
X65235261Y-19125502D01*
X65360928Y-19150500D01*
X65360931Y-19150500D01*
X65489071Y-19150500D01*
X65573615Y-19133682D01*
X65614744Y-19125501D01*
X65733127Y-19076465D01*
X65839669Y-19005276D01*
X65930276Y-18914669D01*
X66001465Y-18808127D01*
X66050501Y-18689744D01*
X66075500Y-18564069D01*
X66075500Y-18435931D01*
X66075500Y-18435928D01*
X66050502Y-18310261D01*
X66050501Y-18310260D01*
X66050501Y-18310256D01*
X66001465Y-18191873D01*
X66001464Y-18191872D01*
X66001461Y-18191866D01*
X65930276Y-18085331D01*
X65930273Y-18085327D01*
X65839672Y-17994726D01*
X65839668Y-17994723D01*
X65733133Y-17923538D01*
X65733124Y-17923533D01*
X65614744Y-17874499D01*
X65614738Y-17874497D01*
X65489071Y-17849500D01*
X65489069Y-17849500D01*
X65360931Y-17849500D01*
X65360929Y-17849500D01*
X65235261Y-17874497D01*
X65235255Y-17874499D01*
X65116875Y-17923533D01*
X65116866Y-17923538D01*
X65010331Y-17994723D01*
X65010327Y-17994726D01*
X64919726Y-18085327D01*
X64919723Y-18085331D01*
X64848538Y-18191866D01*
X64848533Y-18191875D01*
X64799499Y-18310255D01*
X64799497Y-18310261D01*
X64774500Y-18435928D01*
X64774500Y-18435931D01*
X64774500Y-18564069D01*
X64774500Y-18564071D01*
X64774499Y-18564071D01*
X40000000Y-18564071D01*
X40000000Y-13602135D01*
X55609500Y-13602135D01*
X55609500Y-15397870D01*
X55609501Y-15397876D01*
X55615908Y-15457483D01*
X55666202Y-15592328D01*
X55666206Y-15592335D01*
X55752452Y-15707544D01*
X55752455Y-15707547D01*
X55867664Y-15793793D01*
X55867671Y-15793797D01*
X56002517Y-15844091D01*
X56002516Y-15844091D01*
X56009444Y-15844835D01*
X56062127Y-15850500D01*
X57857872Y-15850499D01*
X57917483Y-15844091D01*
X58052331Y-15793796D01*
X58167546Y-15707546D01*
X58253796Y-15592331D01*
X58304091Y-15457483D01*
X58310500Y-15397873D01*
X58310499Y-15373979D01*
X58313330Y-15360963D01*
X58323940Y-15341525D01*
X58330179Y-15320275D01*
X58346803Y-15299643D01*
X58346808Y-15299636D01*
X58346811Y-15299634D01*
X58346818Y-15299626D01*
X59017037Y-14629408D01*
X59034075Y-14692993D01*
X59099901Y-14807007D01*
X59192993Y-14900099D01*
X59307007Y-14965925D01*
X59370590Y-14982962D01*
X58738282Y-15615269D01*
X58738282Y-15615270D01*
X58792449Y-15654624D01*
X58981782Y-15751095D01*
X59183870Y-15816757D01*
X59393754Y-15850000D01*
X59606246Y-15850000D01*
X59816127Y-15816757D01*
X59816130Y-15816757D01*
X60018217Y-15751095D01*
X60207554Y-15654622D01*
X60261716Y-15615270D01*
X60261717Y-15615270D01*
X59629408Y-14982962D01*
X59692993Y-14965925D01*
X59807007Y-14900099D01*
X59900099Y-14807007D01*
X59965925Y-14692993D01*
X59982962Y-14629409D01*
X60615270Y-15261717D01*
X60615270Y-15261716D01*
X60654622Y-15207554D01*
X60751095Y-15018217D01*
X60816757Y-14816130D01*
X60816757Y-14816127D01*
X60850000Y-14606246D01*
X60850000Y-14393753D01*
X60816757Y-14183872D01*
X60816757Y-14183869D01*
X60751095Y-13981782D01*
X60654624Y-13792449D01*
X60615270Y-13738282D01*
X60615269Y-13738282D01*
X59982962Y-14370590D01*
X59965925Y-14307007D01*
X59900099Y-14192993D01*
X59807007Y-14099901D01*
X59692993Y-14034075D01*
X59629409Y-14017037D01*
X60261716Y-13384728D01*
X60207550Y-13345375D01*
X60018217Y-13248904D01*
X59816129Y-13183242D01*
X59606246Y-13150000D01*
X59393754Y-13150000D01*
X59183872Y-13183242D01*
X59183869Y-13183242D01*
X58981782Y-13248904D01*
X58792439Y-13345380D01*
X58738282Y-13384727D01*
X58738282Y-13384728D01*
X59370591Y-14017037D01*
X59307007Y-14034075D01*
X59192993Y-14099901D01*
X59099901Y-14192993D01*
X59034075Y-14307007D01*
X59017037Y-14370591D01*
X58346818Y-13700372D01*
X58313333Y-13639049D01*
X58313330Y-13639036D01*
X58310499Y-13626015D01*
X58310499Y-13602128D01*
X58304091Y-13542517D01*
X58275926Y-13467002D01*
X58253798Y-13407673D01*
X58253793Y-13407664D01*
X58167547Y-13292455D01*
X58167544Y-13292452D01*
X58052335Y-13206206D01*
X58052328Y-13206202D01*
X57917482Y-13155908D01*
X57917483Y-13155908D01*
X57857883Y-13149501D01*
X57857881Y-13149500D01*
X57857873Y-13149500D01*
X57857864Y-13149500D01*
X56062129Y-13149500D01*
X56062123Y-13149501D01*
X56002516Y-13155908D01*
X55867671Y-13206202D01*
X55867664Y-13206206D01*
X55752455Y-13292452D01*
X55752452Y-13292455D01*
X55666206Y-13407664D01*
X55666202Y-13407671D01*
X55615908Y-13542517D01*
X55609501Y-13602116D01*
X55609500Y-13602135D01*
X40000000Y-13602135D01*
X40000000Y-12624500D01*
X40019685Y-12557461D01*
X40072489Y-12511706D01*
X40124000Y-12500500D01*
X66375500Y-12500500D01*
X66442539Y-12520185D01*
G37*
%TD.AperFunction*%
%TD*%
M02*
